<?xml version="1.0" encoding="UTF-8" standalone="no"?>
<!DOCTYPE svg PUBLIC "-//W3C//DTD SVG 1.1//EN"
 "http://www.w3.org/Graphics/SVG/1.1/DTD/svg11.dtd">
<!-- Generated by graphviz version 2.38.0 (20140413.2041)
 -->
<!-- Title: G Pages: 1 -->
<svg width="625pt" height="404pt"
 viewBox="0.00 0.00 625.23 404.00" xmlns="http://www.w3.org/2000/svg" xmlns:xlink="http://www.w3.org/1999/xlink">
<g id="graph0" class="graph" transform="scale(1 1) rotate(0) translate(4 400)">
<title>G</title>
<polygon fill="white" stroke="none" points="-4,4 -4,-400 621.229,-400 621.229,4 -4,4"/>
<!-- Nodo0 -->
<g id="node1" class="node"><title>Nodo0</title>
<ellipse fill="none" stroke="black" cx="152.792" cy="-378" rx="27" ry="18"/>
<text text-anchor="middle" x="152.792" y="-374.3" font-family="Times New Roman,serif" font-size="14.00">S</text>
</g>
<!-- Nodo1 -->
<g id="node2" class="node"><title>Nodo1</title>
<ellipse fill="none" stroke="black" cx="152.792" cy="-306" rx="59.5901" ry="18"/>
<text text-anchor="middle" x="152.792" y="-302.3" font-family="Times New Roman,serif" font-size="14.00">Instrucciones</text>
</g>
<!-- Nodo0&#45;&gt;Nodo1 -->
<g id="edge1" class="edge"><title>Nodo0&#45;&gt;Nodo1</title>
<path fill="none" stroke="blue" d="M152.792,-359.697C152.792,-351.983 152.792,-342.712 152.792,-334.112"/>
<polygon fill="blue" stroke="blue" points="156.292,-334.104 152.792,-324.104 149.292,-334.104 156.292,-334.104"/>
</g>
<!-- Nodo2 -->
<g id="node3" class="node"><title>Nodo2</title>
<ellipse fill="none" stroke="black" cx="152.792" cy="-234" rx="112.38" ry="18"/>
<text text-anchor="middle" x="152.792" y="-230.3" font-family="Times New Roman,serif" font-size="14.00">Instruccion: INSERT INTO</text>
</g>
<!-- Nodo1&#45;&gt;Nodo2 -->
<g id="edge2" class="edge"><title>Nodo1&#45;&gt;Nodo2</title>
<path fill="none" stroke="blue" d="M152.792,-287.697C152.792,-279.983 152.792,-270.712 152.792,-262.112"/>
<polygon fill="blue" stroke="blue" points="156.292,-262.104 152.792,-252.104 149.292,-262.104 156.292,-262.104"/>
</g>
<!-- Nodo3 -->
<g id="node4" class="node"><title>Nodo3</title>
<ellipse fill="none" stroke="black" cx="85.7924" cy="-162" rx="85.5853" ry="18"/>
<text text-anchor="middle" x="85.7924" y="-158.3" font-family="Times New Roman,serif" font-size="14.00">Table: tbCalificacion</text>
</g>
<!-- Nodo2&#45;&gt;Nodo3 -->
<g id="edge3" class="edge"><title>Nodo2&#45;&gt;Nodo3</title>
<path fill="none" stroke="blue" d="M136.574,-216.055C128.262,-207.371 117.995,-196.644 108.873,-187.114"/>
<polygon fill="blue" stroke="blue" points="111.305,-184.593 101.862,-179.789 106.248,-189.433 111.305,-184.593"/>
</g>
<!-- Nodo4 -->
<g id="node5" class="node"><title>Nodo4</title>
<ellipse fill="none" stroke="black" cx="220.792" cy="-162" rx="31.3957" ry="18"/>
<text text-anchor="middle" x="220.792" y="-158.3" font-family="Times New Roman,serif" font-size="14.00">Value</text>
</g>
<!-- Nodo2&#45;&gt;Nodo4 -->
<g id="edge4" class="edge"><title>Nodo2&#45;&gt;Nodo4</title>
<path fill="none" stroke="blue" d="M169.253,-216.055C178.149,-206.898 189.25,-195.47 198.869,-185.568"/>
<polygon fill="blue" stroke="blue" points="201.417,-187.968 205.875,-178.356 196.396,-183.09 201.417,-187.968"/>
</g>
<!-- Nodo8 -->
<g id="node6" class="node"><title>Nodo8</title>
<ellipse fill="none" stroke="black" cx="99.7924" cy="-90" rx="27" ry="18"/>
<text text-anchor="middle" x="99.7924" y="-86.3" font-family="Times New Roman,serif" font-size="14.00">3</text>
</g>
<!-- Nodo4&#45;&gt;Nodo8 -->
<g id="edge5" class="edge"><title>Nodo4&#45;&gt;Nodo8</title>
<path fill="none" stroke="blue" d="M199.439,-148.647C179.73,-137.245 150.307,-120.223 128.539,-107.63"/>
<polygon fill="blue" stroke="blue" points="130.137,-104.511 119.729,-102.533 126.632,-110.57 130.137,-104.511"/>
</g>
<!-- Nodo16 -->
<g id="node7" class="node"><title>Nodo16</title>
<ellipse fill="none" stroke="black" cx="220.792" cy="-90" rx="76.0865" ry="18"/>
<text text-anchor="middle" x="220.792" y="-86.3" font-family="Times New Roman,serif" font-size="14.00"> Valida Funciones</text>
</g>
<!-- Nodo4&#45;&gt;Nodo16 -->
<g id="edge6" class="edge"><title>Nodo4&#45;&gt;Nodo16</title>
<path fill="none" stroke="blue" d="M220.792,-143.697C220.792,-135.983 220.792,-126.712 220.792,-118.112"/>
<polygon fill="blue" stroke="blue" points="224.292,-118.104 220.792,-108.104 217.292,-118.104 224.292,-118.104"/>
</g>
<!-- Nodo32 -->
<g id="node8" class="node"><title>Nodo32</title>
<ellipse fill="none" stroke="black" cx="465.792" cy="-90" rx="151.373" ry="18"/>
<text text-anchor="middle" x="465.792" y="-86.3" font-family="Times New Roman,serif" font-size="14.00">Instruccion: LLAMADA A FUNCION</text>
</g>
<!-- Nodo4&#45;&gt;Nodo32 -->
<g id="edge7" class="edge"><title>Nodo4&#45;&gt;Nodo32</title>
<path fill="none" stroke="blue" d="M248.421,-153.106C285.143,-142.614 351.172,-123.749 400.853,-109.554"/>
<polygon fill="blue" stroke="blue" points="401.904,-112.894 410.558,-106.781 399.981,-106.163 401.904,-112.894"/>
</g>
<!-- Nodo64 -->
<g id="node9" class="node"><title>Nodo64</title>
<ellipse fill="none" stroke="black" cx="465.792" cy="-18" rx="64.9885" ry="18"/>
<text text-anchor="middle" x="465.792" y="-14.3" font-family="Times New Roman,serif" font-size="14.00">CALCULOS()</text>
</g>
<!-- Nodo32&#45;&gt;Nodo64 -->
<g id="edge8" class="edge"><title>Nodo32&#45;&gt;Nodo64</title>
<path fill="none" stroke="blue" d="M465.792,-71.6966C465.792,-63.9827 465.792,-54.7125 465.792,-46.1124"/>
<polygon fill="blue" stroke="blue" points="469.292,-46.1043 465.792,-36.1043 462.292,-46.1044 469.292,-46.1043"/>
</g>
</g>
</svg>
