<?xml version="1.0" encoding="UTF-8" standalone="no"?>
<!DOCTYPE svg PUBLIC "-//W3C//DTD SVG 1.1//EN"
 "http://www.w3.org/Graphics/SVG/1.1/DTD/svg11.dtd">
<!-- Generated by graphviz version 2.44.1 (20200629.0846)
 -->
<!-- Title: G Pages: 1 -->
<svg width="5412pt" height="332pt"
 viewBox="0.00 0.00 5412.04 332.00" xmlns="http://www.w3.org/2000/svg" xmlns:xlink="http://www.w3.org/1999/xlink">
<g id="graph0" class="graph" transform="scale(1 1) rotate(0) translate(4 328)">
<title>G</title>
<polygon fill="white" stroke="transparent" points="-4,4 -4,-328 5408.04,-328 5408.04,4 -4,4"/>
<!-- Nodo0 -->
<g id="node1" class="node">
<title>Nodo0</title>
<ellipse fill="none" stroke="black" cx="2742.04" cy="-306" rx="27" ry="18"/>
<text text-anchor="middle" x="2742.04" y="-302.3" font-family="Times New Roman,serif" font-size="14.00">S</text>
</g>
<!-- Nodo1 -->
<g id="node2" class="node">
<title>Nodo1</title>
<ellipse fill="none" stroke="black" cx="2742.04" cy="-234" rx="59.59" ry="18"/>
<text text-anchor="middle" x="2742.04" y="-230.3" font-family="Times New Roman,serif" font-size="14.00">Instrucciones</text>
</g>
<!-- Nodo0&#45;&gt;Nodo1 -->
<g id="edge1" class="edge">
<title>Nodo0&#45;&gt;Nodo1</title>
<path fill="none" stroke="blue" d="M2742.04,-287.7C2742.04,-279.98 2742.04,-270.71 2742.04,-262.11"/>
<polygon fill="blue" stroke="blue" points="2745.54,-262.1 2742.04,-252.1 2738.54,-262.1 2745.54,-262.1"/>
</g>
<!-- Nodo2 -->
<g id="node3" class="node">
<title>Nodo2</title>
<ellipse fill="none" stroke="black" cx="341.04" cy="-162" rx="83.39" ry="18"/>
<text text-anchor="middle" x="341.04" y="-158.3" font-family="Times New Roman,serif" font-size="14.00">Instruccion: INDEX</text>
</g>
<!-- Nodo1&#45;&gt;Nodo2 -->
<g id="edge2" class="edge">
<title>Nodo1&#45;&gt;Nodo2</title>
<path fill="none" stroke="blue" d="M2682.55,-231.74C2441.43,-226.57 1513.3,-206.01 750.04,-180 640.61,-176.27 514.75,-170.87 431.88,-167.16"/>
<polygon fill="blue" stroke="blue" points="431.88,-163.66 421.74,-166.71 431.57,-170.65 431.88,-163.66"/>
</g>
<!-- Nodo64 -->
<g id="node8" class="node">
<title>Nodo64</title>
<ellipse fill="none" stroke="black" cx="842.04" cy="-162" rx="83.39" ry="18"/>
<text text-anchor="middle" x="842.04" y="-158.3" font-family="Times New Roman,serif" font-size="14.00">Instruccion: INDEX</text>
</g>
<!-- Nodo1&#45;&gt;Nodo64 -->
<g id="edge7" class="edge">
<title>Nodo1&#45;&gt;Nodo64</title>
<path fill="none" stroke="blue" d="M2682.84,-231.05C2481.47,-224.38 1804.4,-201.7 1245.04,-180 1137.84,-175.84 1014.63,-170.57 932.95,-167.01"/>
<polygon fill="blue" stroke="blue" points="932.85,-163.5 922.7,-166.56 932.54,-170.5 932.85,-163.5"/>
</g>
<!-- Nodo4096 -->
<g id="node14" class="node">
<title>Nodo4096</title>
<ellipse fill="none" stroke="black" cx="1337.04" cy="-162" rx="83.39" ry="18"/>
<text text-anchor="middle" x="1337.04" y="-158.3" font-family="Times New Roman,serif" font-size="14.00">Instruccion: INDEX</text>
</g>
<!-- Nodo1&#45;&gt;Nodo4096 -->
<g id="edge13" class="edge">
<title>Nodo1&#45;&gt;Nodo4096</title>
<path fill="none" stroke="blue" d="M2683.46,-230.08C2464.49,-219.17 1693.14,-180.74 1427.63,-167.51"/>
<polygon fill="blue" stroke="blue" points="1427.43,-164 1417.26,-167 1427.08,-170.99 1427.43,-164"/>
</g>
<!-- Nodo262144 -->
<g id="node20" class="node">
<title>Nodo262144</title>
<ellipse fill="none" stroke="black" cx="1828.04" cy="-162" rx="83.39" ry="18"/>
<text text-anchor="middle" x="1828.04" y="-158.3" font-family="Times New Roman,serif" font-size="14.00">Instruccion: INDEX</text>
</g>
<!-- Nodo1&#45;&gt;Nodo262144 -->
<g id="edge19" class="edge">
<title>Nodo1&#45;&gt;Nodo262144</title>
<path fill="none" stroke="blue" d="M2684.87,-228.62C2529.74,-216.74 2100.14,-183.84 1914.9,-169.65"/>
<polygon fill="blue" stroke="blue" points="1915.16,-166.16 1904.92,-168.89 1914.63,-173.14 1915.16,-166.16"/>
</g>
<!-- Nodo4194304 -->
<g id="node24" class="node">
<title>Nodo4194304</title>
<ellipse fill="none" stroke="black" cx="2313.04" cy="-162" rx="83.39" ry="18"/>
<text text-anchor="middle" x="2313.04" y="-158.3" font-family="Times New Roman,serif" font-size="14.00">Instruccion: INDEX</text>
</g>
<!-- Nodo1&#45;&gt;Nodo4194304 -->
<g id="edge23" class="edge">
<title>Nodo1&#45;&gt;Nodo4194304</title>
<path fill="none" stroke="blue" d="M2690.72,-224.63C2615.31,-212.32 2474.14,-189.29 2387.38,-175.13"/>
<polygon fill="blue" stroke="blue" points="2387.77,-171.65 2377.34,-173.49 2386.65,-178.56 2387.77,-171.65"/>
</g>
<!-- Nodo67108864 -->
<g id="node28" class="node">
<title>Nodo67108864</title>
<ellipse fill="none" stroke="black" cx="2742.04" cy="-162" rx="83.39" ry="18"/>
<text text-anchor="middle" x="2742.04" y="-158.3" font-family="Times New Roman,serif" font-size="14.00">Instruccion: INDEX</text>
</g>
<!-- Nodo1&#45;&gt;Nodo67108864 -->
<g id="edge27" class="edge">
<title>Nodo1&#45;&gt;Nodo67108864</title>
<path fill="none" stroke="blue" d="M2742.04,-215.7C2742.04,-207.98 2742.04,-198.71 2742.04,-190.11"/>
<polygon fill="blue" stroke="blue" points="2745.54,-190.1 2742.04,-180.1 2738.54,-190.1 2745.54,-190.1"/>
</g>
<!-- Nodo4294967296 -->
<g id="node34" class="node">
<title>Nodo4294967296</title>
<ellipse fill="none" stroke="black" cx="3082.04" cy="-162" rx="83.39" ry="18"/>
<text text-anchor="middle" x="3082.04" y="-158.3" font-family="Times New Roman,serif" font-size="14.00">Instruccion: INDEX</text>
</g>
<!-- Nodo1&#45;&gt;Nodo4294967296 -->
<g id="edge33" class="edge">
<title>Nodo1&#45;&gt;Nodo4294967296</title>
<path fill="none" stroke="blue" d="M2790.04,-223.12C2848.54,-211.07 2947.78,-190.64 3014.11,-176.99"/>
<polygon fill="blue" stroke="blue" points="3014.97,-180.38 3024.05,-174.94 3013.55,-173.53 3014.97,-180.38"/>
</g>
<!-- Nodo68719476736 -->
<g id="node38" class="node">
<title>Nodo68719476736</title>
<ellipse fill="none" stroke="black" cx="3606.04" cy="-162" rx="83.39" ry="18"/>
<text text-anchor="middle" x="3606.04" y="-158.3" font-family="Times New Roman,serif" font-size="14.00">Instruccion: INDEX</text>
</g>
<!-- Nodo1&#45;&gt;Nodo68719476736 -->
<g id="edge37" class="edge">
<title>Nodo1&#45;&gt;Nodo68719476736</title>
<path fill="none" stroke="blue" d="M2799.07,-228.38C2946.94,-216.4 3343.48,-184.27 3519.65,-170"/>
<polygon fill="blue" stroke="blue" points="3519.97,-173.49 3529.65,-169.19 3519.4,-166.51 3519.97,-173.49"/>
</g>
<!-- Nodo2199023255552 -->
<g id="node43" class="node">
<title>Nodo2199023255552</title>
<ellipse fill="none" stroke="black" cx="4157.04" cy="-162" rx="83.39" ry="18"/>
<text text-anchor="middle" x="4157.04" y="-158.3" font-family="Times New Roman,serif" font-size="14.00">Instruccion: INDEX</text>
</g>
<!-- Nodo1&#45;&gt;Nodo2199023255552 -->
<g id="edge42" class="edge">
<title>Nodo1&#45;&gt;Nodo2199023255552</title>
<path fill="none" stroke="blue" d="M2800.6,-230.1C3020.73,-219.21 3799.73,-180.68 4066.58,-167.48"/>
<polygon fill="blue" stroke="blue" points="4066.8,-170.97 4076.62,-166.98 4066.46,-163.98 4066.8,-170.97"/>
</g>
<!-- Nodo70368744177664 -->
<g id="node48" class="node">
<title>Nodo70368744177664</title>
<ellipse fill="none" stroke="black" cx="4638.04" cy="-162" rx="83.39" ry="18"/>
<text text-anchor="middle" x="4638.04" y="-158.3" font-family="Times New Roman,serif" font-size="14.00">Instruccion: INDEX</text>
</g>
<!-- Nodo1&#45;&gt;Nodo70368744177664 -->
<g id="edge47" class="edge">
<title>Nodo1&#45;&gt;Nodo70368744177664</title>
<path fill="none" stroke="blue" d="M2801.29,-231.1C3003.57,-224.56 3685.64,-202.22 4249.04,-180 4351.18,-175.97 4468.38,-170.77 4547.21,-167.19"/>
<polygon fill="blue" stroke="blue" points="4547.76,-170.67 4557.59,-166.72 4547.44,-163.67 4547.76,-170.67"/>
</g>
<!-- Nodo2251799813685248 -->
<g id="node53" class="node">
<title>Nodo2251799813685248</title>
<ellipse fill="none" stroke="black" cx="5119.04" cy="-162" rx="83.39" ry="18"/>
<text text-anchor="middle" x="5119.04" y="-158.3" font-family="Times New Roman,serif" font-size="14.00">Instruccion: INDEX</text>
</g>
<!-- Nodo1&#45;&gt;Nodo2251799813685248 -->
<g id="edge52" class="edge">
<title>Nodo1&#45;&gt;Nodo2251799813685248</title>
<path fill="none" stroke="blue" d="M2801.42,-231.79C3042.06,-226.79 3968.35,-206.8 4730.04,-180 4832.36,-176.4 4949.76,-171.11 5028.59,-167.39"/>
<polygon fill="blue" stroke="blue" points="5029.15,-170.87 5038.97,-166.9 5028.82,-163.87 5029.15,-170.87"/>
</g>
<!-- Nodo4 -->
<g id="node4" class="node">
<title>Nodo4</title>
<ellipse fill="none" stroke="black" cx="76.04" cy="-90" rx="76.09" ry="18"/>
<text text-anchor="middle" x="76.04" y="-86.3" font-family="Times New Roman,serif" font-size="14.00">CREATE INDEX</text>
</g>
<!-- Nodo2&#45;&gt;Nodo4 -->
<g id="edge3" class="edge">
<title>Nodo2&#45;&gt;Nodo4</title>
<path fill="none" stroke="blue" d="M290.58,-147.67C246.13,-135.93 181.39,-118.83 134.66,-106.48"/>
<polygon fill="blue" stroke="blue" points="135.54,-103.1 124.98,-103.93 133.75,-109.86 135.54,-103.1"/>
</g>
<!-- Nodo8 -->
<g id="node5" class="node">
<title>Nodo8</title>
<ellipse fill="none" stroke="black" cx="269.04" cy="-90" rx="98.58" ry="18"/>
<text text-anchor="middle" x="269.04" y="-86.3" font-family="Times New Roman,serif" font-size="14.00">test1_id_index ON test1</text>
</g>
<!-- Nodo2&#45;&gt;Nodo8 -->
<g id="edge4" class="edge">
<title>Nodo2&#45;&gt;Nodo8</title>
<path fill="none" stroke="blue" d="M323.61,-144.05C314.59,-135.28 303.43,-124.43 293.56,-114.83"/>
<polygon fill="blue" stroke="blue" points="295.92,-112.25 286.31,-107.79 291.04,-117.27 295.92,-112.25"/>
</g>
<!-- Nodo16 -->
<g id="node6" class="node">
<title>Nodo16</title>
<ellipse fill="none" stroke="black" cx="413.04" cy="-90" rx="27" ry="18"/>
<text text-anchor="middle" x="413.04" y="-86.3" font-family="Times New Roman,serif" font-size="14.00">IDS</text>
</g>
<!-- Nodo2&#45;&gt;Nodo16 -->
<g id="edge5" class="edge">
<title>Nodo2&#45;&gt;Nodo16</title>
<path fill="none" stroke="blue" d="M358.47,-144.05C368.25,-134.55 380.55,-122.59 390.99,-112.44"/>
<polygon fill="blue" stroke="blue" points="393.48,-114.9 398.21,-105.42 388.6,-109.89 393.48,-114.9"/>
</g>
<!-- Nodo32 -->
<g id="node7" class="node">
<title>Nodo32</title>
<ellipse fill="none" stroke="black" cx="413.04" cy="-18" rx="27" ry="18"/>
<text text-anchor="middle" x="413.04" y="-14.3" font-family="Times New Roman,serif" font-size="14.00">id</text>
</g>
<!-- Nodo16&#45;&gt;Nodo32 -->
<g id="edge6" class="edge">
<title>Nodo16&#45;&gt;Nodo32</title>
<path fill="none" stroke="blue" d="M413.04,-71.7C413.04,-63.98 413.04,-54.71 413.04,-46.11"/>
<polygon fill="blue" stroke="blue" points="416.54,-46.1 413.04,-36.1 409.54,-46.1 416.54,-46.1"/>
</g>
<!-- Nodo128 -->
<g id="node9" class="node">
<title>Nodo128</title>
<ellipse fill="none" stroke="black" cx="534.04" cy="-90" rx="76.09" ry="18"/>
<text text-anchor="middle" x="534.04" y="-86.3" font-family="Times New Roman,serif" font-size="14.00">CREATE INDEX</text>
</g>
<!-- Nodo64&#45;&gt;Nodo128 -->
<g id="edge8" class="edge">
<title>Nodo64&#45;&gt;Nodo128</title>
<path fill="none" stroke="blue" d="M786.98,-148.49C733.52,-136.34 652.48,-117.92 596.61,-105.22"/>
<polygon fill="blue" stroke="blue" points="597.36,-101.8 586.83,-103 595.81,-108.63 597.36,-101.8"/>
</g>
<!-- Nodo256 -->
<g id="node10" class="node">
<title>Nodo256</title>
<ellipse fill="none" stroke="black" cx="693.04" cy="-90" rx="64.99" ry="18"/>
<text text-anchor="middle" x="693.04" y="-86.3" font-family="Times New Roman,serif" font-size="14.00">name ON tabla</text>
</g>
<!-- Nodo64&#45;&gt;Nodo256 -->
<g id="edge9" class="edge">
<title>Nodo64&#45;&gt;Nodo256</title>
<path fill="none" stroke="blue" d="M808.98,-145.46C786.72,-135.01 757.24,-121.16 733.57,-110.04"/>
<polygon fill="blue" stroke="blue" points="735.03,-106.86 724.49,-105.77 732.05,-113.19 735.03,-106.86"/>
</g>
<!-- Nodo512 -->
<g id="node11" class="node">
<title>Nodo512</title>
<ellipse fill="none" stroke="black" cx="842.04" cy="-90" rx="65.79" ry="18"/>
<text text-anchor="middle" x="842.04" y="-86.3" font-family="Times New Roman,serif" font-size="14.00">USING HASH</text>
</g>
<!-- Nodo64&#45;&gt;Nodo512 -->
<g id="edge10" class="edge">
<title>Nodo64&#45;&gt;Nodo512</title>
<path fill="none" stroke="blue" d="M842.04,-143.7C842.04,-135.98 842.04,-126.71 842.04,-118.11"/>
<polygon fill="blue" stroke="blue" points="845.54,-118.1 842.04,-108.1 838.54,-118.1 845.54,-118.1"/>
</g>
<!-- Nodo1024 -->
<g id="node12" class="node">
<title>Nodo1024</title>
<ellipse fill="none" stroke="black" cx="953.04" cy="-90" rx="27" ry="18"/>
<text text-anchor="middle" x="953.04" y="-86.3" font-family="Times New Roman,serif" font-size="14.00">IDS</text>
</g>
<!-- Nodo64&#45;&gt;Nodo1024 -->
<g id="edge11" class="edge">
<title>Nodo64&#45;&gt;Nodo1024</title>
<path fill="none" stroke="blue" d="M867.79,-144.76C885.02,-133.9 907.69,-119.6 925.32,-108.48"/>
<polygon fill="blue" stroke="blue" points="927.43,-111.29 934.02,-102.99 923.7,-105.37 927.43,-111.29"/>
</g>
<!-- Nodo2048 -->
<g id="node13" class="node">
<title>Nodo2048</title>
<ellipse fill="none" stroke="black" cx="953.04" cy="-18" rx="41.69" ry="18"/>
<text text-anchor="middle" x="953.04" y="-14.3" font-family="Times New Roman,serif" font-size="14.00">columna</text>
</g>
<!-- Nodo1024&#45;&gt;Nodo2048 -->
<g id="edge12" class="edge">
<title>Nodo1024&#45;&gt;Nodo2048</title>
<path fill="none" stroke="blue" d="M953.04,-71.7C953.04,-63.98 953.04,-54.71 953.04,-46.11"/>
<polygon fill="blue" stroke="blue" points="956.54,-46.1 953.04,-36.1 949.54,-46.1 956.54,-46.1"/>
</g>
<!-- Nodo8192 -->
<g id="node15" class="node">
<title>Nodo8192</title>
<ellipse fill="none" stroke="black" cx="1074.04" cy="-90" rx="76.09" ry="18"/>
<text text-anchor="middle" x="1074.04" y="-86.3" font-family="Times New Roman,serif" font-size="14.00">CREATE INDEX</text>
</g>
<!-- Nodo4096&#45;&gt;Nodo8192 -->
<g id="edge14" class="edge">
<title>Nodo4096&#45;&gt;Nodo8192</title>
<path fill="none" stroke="blue" d="M1286.65,-147.59C1242.6,-135.86 1178.63,-118.84 1132.37,-106.53"/>
<polygon fill="blue" stroke="blue" points="1133.06,-103.09 1122.49,-103.9 1131.26,-109.85 1133.06,-103.09"/>
</g>
<!-- Nodo16384 -->
<g id="node16" class="node">
<title>Nodo16384</title>
<ellipse fill="none" stroke="black" cx="1266.04" cy="-90" rx="97.48" ry="18"/>
<text text-anchor="middle" x="1266.04" y="-86.3" font-family="Times New Roman,serif" font-size="14.00">test2_mm_idx ON test2</text>
</g>
<!-- Nodo4096&#45;&gt;Nodo16384 -->
<g id="edge15" class="edge">
<title>Nodo4096&#45;&gt;Nodo16384</title>
<path fill="none" stroke="blue" d="M1319.86,-144.05C1310.96,-135.28 1299.95,-124.43 1290.21,-114.83"/>
<polygon fill="blue" stroke="blue" points="1292.65,-112.32 1283.07,-107.79 1287.74,-117.3 1292.65,-112.32"/>
</g>
<!-- Nodo32768 -->
<g id="node17" class="node">
<title>Nodo32768</title>
<ellipse fill="none" stroke="black" cx="1408.04" cy="-90" rx="27" ry="18"/>
<text text-anchor="middle" x="1408.04" y="-86.3" font-family="Times New Roman,serif" font-size="14.00">IDS</text>
</g>
<!-- Nodo4096&#45;&gt;Nodo32768 -->
<g id="edge16" class="edge">
<title>Nodo4096&#45;&gt;Nodo32768</title>
<path fill="none" stroke="blue" d="M1354.23,-144.05C1363.78,-134.64 1375.76,-122.82 1386,-112.74"/>
<polygon fill="blue" stroke="blue" points="1388.75,-114.94 1393.41,-105.42 1383.83,-109.95 1388.75,-114.94"/>
</g>
<!-- Nodo65536 -->
<g id="node18" class="node">
<title>Nodo65536</title>
<ellipse fill="none" stroke="black" cx="1367.04" cy="-18" rx="31.4" ry="18"/>
<text text-anchor="middle" x="1367.04" y="-14.3" font-family="Times New Roman,serif" font-size="14.00">major</text>
</g>
<!-- Nodo32768&#45;&gt;Nodo65536 -->
<g id="edge17" class="edge">
<title>Nodo32768&#45;&gt;Nodo65536</title>
<path fill="none" stroke="blue" d="M1398.53,-72.76C1393.59,-64.32 1387.43,-53.8 1381.87,-44.31"/>
<polygon fill="blue" stroke="blue" points="1384.86,-42.49 1376.79,-35.63 1378.82,-46.03 1384.86,-42.49"/>
</g>
<!-- Nodo131072 -->
<g id="node19" class="node">
<title>Nodo131072</title>
<ellipse fill="none" stroke="black" cx="1448.04" cy="-18" rx="31.7" ry="18"/>
<text text-anchor="middle" x="1448.04" y="-14.3" font-family="Times New Roman,serif" font-size="14.00">minor</text>
</g>
<!-- Nodo32768&#45;&gt;Nodo131072 -->
<g id="edge18" class="edge">
<title>Nodo32768&#45;&gt;Nodo131072</title>
<path fill="none" stroke="blue" d="M1417.32,-72.76C1422.1,-64.4 1428.03,-54.02 1433.41,-44.61"/>
<polygon fill="blue" stroke="blue" points="1436.62,-46.05 1438.54,-35.63 1430.54,-42.58 1436.62,-46.05"/>
</g>
<!-- Nodo524288 -->
<g id="node21" class="node">
<title>Nodo524288</title>
<ellipse fill="none" stroke="black" cx="1529.04" cy="-90" rx="76.09" ry="18"/>
<text text-anchor="middle" x="1529.04" y="-86.3" font-family="Times New Roman,serif" font-size="14.00">CREATE INDEX</text>
</g>
<!-- Nodo262144&#45;&gt;Nodo524288 -->
<g id="edge20" class="edge">
<title>Nodo262144&#45;&gt;Nodo524288</title>
<path fill="none" stroke="blue" d="M1773.9,-148.32C1722.41,-136.27 1645.02,-118.15 1591.07,-105.52"/>
<polygon fill="blue" stroke="blue" points="1591.82,-102.1 1581.28,-103.23 1590.22,-108.92 1591.82,-102.1"/>
</g>
<!-- Nodo1048576 -->
<g id="node22" class="node">
<title>Nodo1048576</title>
<ellipse fill="none" stroke="black" cx="1745.04" cy="-90" rx="121.58" ry="18"/>
<text text-anchor="middle" x="1745.04" y="-86.3" font-family="Times New Roman,serif" font-size="14.00">test2_info_nulls_low ON test2</text>
</g>
<!-- Nodo262144&#45;&gt;Nodo1048576 -->
<g id="edge21" class="edge">
<title>Nodo262144&#45;&gt;Nodo1048576</title>
<path fill="none" stroke="blue" d="M1808.37,-144.41C1797.78,-135.48 1784.53,-124.3 1772.89,-114.49"/>
<polygon fill="blue" stroke="blue" points="1775.05,-111.73 1765.15,-107.96 1770.54,-117.08 1775.05,-111.73"/>
</g>
<!-- Nodo2097152 -->
<g id="node23" class="node">
<title>Nodo2097152</title>
<ellipse fill="none" stroke="black" cx="1912.04" cy="-90" rx="27" ry="18"/>
<text text-anchor="middle" x="1912.04" y="-86.3" font-family="Times New Roman,serif" font-size="14.00">IDS</text>
</g>
<!-- Nodo262144&#45;&gt;Nodo2097152 -->
<g id="edge22" class="edge">
<title>Nodo262144&#45;&gt;Nodo2097152</title>
<path fill="none" stroke="blue" d="M1847.95,-144.41C1859.89,-134.46 1875.16,-121.74 1887.8,-111.2"/>
<polygon fill="blue" stroke="blue" points="1890.22,-113.74 1895.66,-104.65 1885.74,-108.36 1890.22,-113.74"/>
</g>
<!-- Nodo8388608 -->
<g id="node25" class="node">
<title>Nodo8388608</title>
<ellipse fill="none" stroke="black" cx="2033.04" cy="-90" rx="76.09" ry="18"/>
<text text-anchor="middle" x="2033.04" y="-86.3" font-family="Times New Roman,serif" font-size="14.00">CREATE INDEX</text>
</g>
<!-- Nodo4194304&#45;&gt;Nodo8388608 -->
<g id="edge24" class="edge">
<title>Nodo4194304&#45;&gt;Nodo8388608</title>
<path fill="none" stroke="blue" d="M2260.71,-147.92C2213.17,-136.03 2143.08,-118.51 2093.24,-106.05"/>
<polygon fill="blue" stroke="blue" points="2093.79,-102.58 2083.24,-103.55 2092.09,-109.37 2093.79,-102.58"/>
</g>
<!-- Nodo16777216 -->
<g id="node26" class="node">
<title>Nodo16777216</title>
<ellipse fill="none" stroke="black" cx="2236.04" cy="-90" rx="109.38" ry="18"/>
<text text-anchor="middle" x="2236.04" y="-86.3" font-family="Times New Roman,serif" font-size="14.00">test3_desc_index ON test3</text>
</g>
<!-- Nodo4194304&#45;&gt;Nodo16777216 -->
<g id="edge25" class="edge">
<title>Nodo4194304&#45;&gt;Nodo16777216</title>
<path fill="none" stroke="blue" d="M2294.8,-144.41C2285.06,-135.56 2272.91,-124.52 2262.19,-114.77"/>
<polygon fill="blue" stroke="blue" points="2264.45,-112.09 2254.7,-107.96 2259.74,-117.27 2264.45,-112.09"/>
</g>
<!-- Nodo33554432 -->
<g id="node27" class="node">
<title>Nodo33554432</title>
<ellipse fill="none" stroke="black" cx="2390.04" cy="-90" rx="27" ry="18"/>
<text text-anchor="middle" x="2390.04" y="-86.3" font-family="Times New Roman,serif" font-size="14.00">IDS</text>
</g>
<!-- Nodo4194304&#45;&gt;Nodo33554432 -->
<g id="edge26" class="edge">
<title>Nodo4194304&#45;&gt;Nodo33554432</title>
<path fill="none" stroke="blue" d="M2331.29,-144.41C2342.06,-134.62 2355.78,-122.15 2367.26,-111.72"/>
<polygon fill="blue" stroke="blue" points="2369.73,-114.19 2374.78,-104.88 2365.02,-109.02 2369.73,-114.19"/>
</g>
<!-- Nodo134217728 -->
<g id="node29" class="node">
<title>Nodo134217728</title>
<ellipse fill="none" stroke="black" cx="2547.04" cy="-90" rx="112.38" ry="18"/>
<text text-anchor="middle" x="2547.04" y="-86.3" font-family="Times New Roman,serif" font-size="14.00">CREATE UNIQUE INDEX</text>
</g>
<!-- Nodo67108864&#45;&gt;Nodo134217728 -->
<g id="edge28" class="edge">
<title>Nodo67108864&#45;&gt;Nodo134217728</title>
<path fill="none" stroke="blue" d="M2700.69,-146.15C2671.41,-135.64 2631.88,-121.45 2600.25,-110.1"/>
<polygon fill="blue" stroke="blue" points="2601.3,-106.76 2590.71,-106.67 2598.94,-113.35 2601.3,-106.76"/>
</g>
<!-- Nodo268435456 -->
<g id="node30" class="node">
<title>Nodo268435456</title>
<ellipse fill="none" stroke="black" cx="2742.04" cy="-90" rx="64.99" ry="18"/>
<text text-anchor="middle" x="2742.04" y="-86.3" font-family="Times New Roman,serif" font-size="14.00">name ON tabla</text>
</g>
<!-- Nodo67108864&#45;&gt;Nodo268435456 -->
<g id="edge29" class="edge">
<title>Nodo67108864&#45;&gt;Nodo268435456</title>
<path fill="none" stroke="blue" d="M2742.04,-143.7C2742.04,-135.98 2742.04,-126.71 2742.04,-118.11"/>
<polygon fill="blue" stroke="blue" points="2745.54,-118.1 2742.04,-108.1 2738.54,-118.1 2745.54,-118.1"/>
</g>
<!-- Nodo536870912 -->
<g id="node31" class="node">
<title>Nodo536870912</title>
<ellipse fill="none" stroke="black" cx="2852.04" cy="-90" rx="27" ry="18"/>
<text text-anchor="middle" x="2852.04" y="-86.3" font-family="Times New Roman,serif" font-size="14.00">IDS</text>
</g>
<!-- Nodo67108864&#45;&gt;Nodo536870912 -->
<g id="edge30" class="edge">
<title>Nodo67108864&#45;&gt;Nodo536870912</title>
<path fill="none" stroke="blue" d="M2767.56,-144.76C2784.63,-133.9 2807.1,-119.6 2824.57,-108.48"/>
<polygon fill="blue" stroke="blue" points="2826.64,-111.32 2833.2,-102.99 2822.88,-105.41 2826.64,-111.32"/>
</g>
<!-- Nodo1073741824 -->
<g id="node32" class="node">
<title>Nodo1073741824</title>
<ellipse fill="none" stroke="black" cx="2814.04" cy="-18" rx="27" ry="18"/>
<text text-anchor="middle" x="2814.04" y="-14.3" font-family="Times New Roman,serif" font-size="14.00">data</text>
</g>
<!-- Nodo536870912&#45;&gt;Nodo1073741824 -->
<g id="edge31" class="edge">
<title>Nodo536870912&#45;&gt;Nodo1073741824</title>
<path fill="none" stroke="blue" d="M2843.23,-72.76C2838.63,-64.28 2832.89,-53.71 2827.72,-44.2"/>
<polygon fill="blue" stroke="blue" points="2830.66,-42.27 2822.81,-35.15 2824.5,-45.61 2830.66,-42.27"/>
</g>
<!-- Nodo2147483648 -->
<g id="node33" class="node">
<title>Nodo2147483648</title>
<ellipse fill="none" stroke="black" cx="2890.04" cy="-18" rx="30.59" ry="18"/>
<text text-anchor="middle" x="2890.04" y="-14.3" font-family="Times New Roman,serif" font-size="14.00">data2</text>
</g>
<!-- Nodo536870912&#45;&gt;Nodo2147483648 -->
<g id="edge32" class="edge">
<title>Nodo536870912&#45;&gt;Nodo2147483648</title>
<path fill="none" stroke="blue" d="M2860.86,-72.76C2865.4,-64.4 2871.03,-54.02 2876.14,-44.61"/>
<polygon fill="blue" stroke="blue" points="2879.32,-46.09 2881.01,-35.63 2873.17,-42.75 2879.32,-46.09"/>
</g>
<!-- Nodo8589934592 -->
<g id="node35" class="node">
<title>Nodo8589934592</title>
<ellipse fill="none" stroke="black" cx="2973.04" cy="-90" rx="76.09" ry="18"/>
<text text-anchor="middle" x="2973.04" y="-86.3" font-family="Times New Roman,serif" font-size="14.00">CREATE INDEX</text>
</g>
<!-- Nodo4294967296&#45;&gt;Nodo8589934592 -->
<g id="edge34" class="edge">
<title>Nodo4294967296&#45;&gt;Nodo8589934592</title>
<path fill="none" stroke="blue" d="M3056.76,-144.76C3041.9,-135.22 3022.93,-123.04 3006.81,-112.68"/>
<polygon fill="blue" stroke="blue" points="3008.49,-109.61 2998.19,-107.15 3004.71,-115.5 3008.49,-109.61"/>
</g>
<!-- Nodo17179869184 -->
<g id="node36" class="node">
<title>Nodo17179869184</title>
<ellipse fill="none" stroke="black" cx="3191.04" cy="-90" rx="124.28" ry="18"/>
<text text-anchor="middle" x="3191.04" y="-86.3" font-family="Times New Roman,serif" font-size="14.00">test1_lower_col1_idx ON test1</text>
</g>
<!-- Nodo4294967296&#45;&gt;Nodo17179869184 -->
<g id="edge35" class="edge">
<title>Nodo4294967296&#45;&gt;Nodo17179869184</title>
<path fill="none" stroke="blue" d="M3107.32,-144.76C3121.97,-135.36 3140.61,-123.39 3156.59,-113.13"/>
<polygon fill="blue" stroke="blue" points="3158.62,-115.98 3165.14,-107.63 3154.84,-110.09 3158.62,-115.98"/>
</g>
<!-- Nodo34359738368 -->
<g id="node37" class="node">
<title>Nodo34359738368</title>
<ellipse fill="none" stroke="black" cx="3360.04" cy="-90" rx="27" ry="18"/>
<text text-anchor="middle" x="3360.04" y="-86.3" font-family="Times New Roman,serif" font-size="14.00">IDS</text>
</g>
<!-- Nodo4294967296&#45;&gt;Nodo34359738368 -->
<g id="edge36" class="edge">
<title>Nodo4294967296&#45;&gt;Nodo34359738368</title>
<path fill="none" stroke="blue" d="M3147.33,-150.82C3196.66,-142.15 3265.62,-127.91 3324.04,-108 3325.96,-107.35 3327.9,-106.62 3329.85,-105.85"/>
<polygon fill="blue" stroke="blue" points="3331.65,-108.89 3339.43,-101.71 3328.87,-102.46 3331.65,-108.89"/>
</g>
<!-- Nodo137438953472 -->
<g id="node39" class="node">
<title>Nodo137438953472</title>
<ellipse fill="none" stroke="black" cx="3481.04" cy="-90" rx="76.09" ry="18"/>
<text text-anchor="middle" x="3481.04" y="-86.3" font-family="Times New Roman,serif" font-size="14.00">CREATE INDEX</text>
</g>
<!-- Nodo68719476736&#45;&gt;Nodo137438953472 -->
<g id="edge38" class="edge">
<title>Nodo68719476736&#45;&gt;Nodo137438953472</title>
<path fill="none" stroke="blue" d="M3577.37,-144.94C3559.77,-135.09 3537.07,-122.37 3518.12,-111.76"/>
<polygon fill="blue" stroke="blue" points="3519.59,-108.58 3509.16,-106.74 3516.17,-114.68 3519.59,-108.58"/>
</g>
<!-- Nodo274877906944 -->
<g id="node40" class="node">
<title>Nodo274877906944</title>
<ellipse fill="none" stroke="black" cx="3732.04" cy="-90" rx="156.77" ry="18"/>
<text text-anchor="middle" x="3732.04" y="-86.3" font-family="Times New Roman,serif" font-size="14.00">access_log_client_ip_ix ON access_log</text>
</g>
<!-- Nodo68719476736&#45;&gt;Nodo274877906944 -->
<g id="edge39" class="edge">
<title>Nodo68719476736&#45;&gt;Nodo274877906944</title>
<path fill="none" stroke="blue" d="M3634.95,-144.94C3652.18,-135.37 3674.29,-123.09 3693.05,-112.66"/>
<polygon fill="blue" stroke="blue" points="3694.91,-115.63 3701.96,-107.72 3691.51,-109.51 3694.91,-115.63"/>
</g>
<!-- Nodo549755813888 -->
<g id="node41" class="node">
<title>Nodo549755813888</title>
<ellipse fill="none" stroke="black" cx="3934.04" cy="-90" rx="27" ry="18"/>
<text text-anchor="middle" x="3934.04" y="-86.3" font-family="Times New Roman,serif" font-size="14.00">IDS</text>
</g>
<!-- Nodo68719476736&#45;&gt;Nodo549755813888 -->
<g id="edge40" class="edge">
<title>Nodo68719476736&#45;&gt;Nodo549755813888</title>
<path fill="none" stroke="blue" d="M3678.73,-153.17C3738.6,-145.46 3825.19,-131.37 3898.04,-108 3899.97,-107.38 3901.92,-106.68 3903.88,-105.93"/>
<polygon fill="blue" stroke="blue" points="3905.65,-108.98 3913.48,-101.84 3902.91,-102.54 3905.65,-108.98"/>
</g>
<!-- Nodo1099511627776 -->
<g id="node42" class="node">
<title>Nodo1099511627776</title>
<ellipse fill="none" stroke="black" cx="3934.04" cy="-18" rx="41.69" ry="18"/>
<text text-anchor="middle" x="3934.04" y="-14.3" font-family="Times New Roman,serif" font-size="14.00">client_ip</text>
</g>
<!-- Nodo549755813888&#45;&gt;Nodo1099511627776 -->
<g id="edge41" class="edge">
<title>Nodo549755813888&#45;&gt;Nodo1099511627776</title>
<path fill="none" stroke="blue" d="M3934.04,-71.7C3934.04,-63.98 3934.04,-54.71 3934.04,-46.11"/>
<polygon fill="blue" stroke="blue" points="3937.54,-46.1 3934.04,-36.1 3930.54,-46.1 3937.54,-46.1"/>
</g>
<!-- Nodo4398046511104 -->
<g id="node44" class="node">
<title>Nodo4398046511104</title>
<ellipse fill="none" stroke="black" cx="4055.04" cy="-90" rx="76.09" ry="18"/>
<text text-anchor="middle" x="4055.04" y="-86.3" font-family="Times New Roman,serif" font-size="14.00">CREATE INDEX</text>
</g>
<!-- Nodo2199023255552&#45;&gt;Nodo4398046511104 -->
<g id="edge43" class="edge">
<title>Nodo2199023255552&#45;&gt;Nodo4398046511104</title>
<path fill="none" stroke="blue" d="M4133.13,-144.59C4119.44,-135.2 4102.1,-123.29 4087.23,-113.09"/>
<polygon fill="blue" stroke="blue" points="4089.03,-110.08 4078.81,-107.31 4085.07,-115.85 4089.03,-110.08"/>
</g>
<!-- Nodo8796093022208 -->
<g id="node45" class="node">
<title>Nodo8796093022208</title>
<ellipse fill="none" stroke="black" cx="4260.04" cy="-90" rx="110.48" ry="18"/>
<text text-anchor="middle" x="4260.04" y="-86.3" font-family="Times New Roman,serif" font-size="14.00">mytable_cat_1 ON mytable</text>
</g>
<!-- Nodo2199023255552&#45;&gt;Nodo8796093022208 -->
<g id="edge44" class="edge">
<title>Nodo2199023255552&#45;&gt;Nodo8796093022208</title>
<path fill="none" stroke="blue" d="M4181.19,-144.59C4194.81,-135.33 4212.03,-123.63 4226.89,-113.53"/>
<polygon fill="blue" stroke="blue" points="4229.03,-116.31 4235.33,-107.8 4225.09,-110.52 4229.03,-116.31"/>
</g>
<!-- Nodo17592186044416 -->
<g id="node46" class="node">
<title>Nodo17592186044416</title>
<ellipse fill="none" stroke="black" cx="4415.04" cy="-90" rx="27" ry="18"/>
<text text-anchor="middle" x="4415.04" y="-86.3" font-family="Times New Roman,serif" font-size="14.00">IDS</text>
</g>
<!-- Nodo2199023255552&#45;&gt;Nodo17592186044416 -->
<g id="edge45" class="edge">
<title>Nodo2199023255552&#45;&gt;Nodo17592186044416</title>
<path fill="none" stroke="blue" d="M4218.8,-149.83C4263.9,-140.81 4326.14,-126.58 4379.04,-108 4380.95,-107.33 4382.89,-106.59 4384.84,-105.81"/>
<polygon fill="blue" stroke="blue" points="4386.64,-108.84 4394.41,-101.64 4383.84,-102.42 4386.64,-108.84"/>
</g>
<!-- Nodo35184372088832 -->
<g id="node47" class="node">
<title>Nodo35184372088832</title>
<ellipse fill="none" stroke="black" cx="4415.04" cy="-18" rx="27" ry="18"/>
<text text-anchor="middle" x="4415.04" y="-14.3" font-family="Times New Roman,serif" font-size="14.00">data</text>
</g>
<!-- Nodo17592186044416&#45;&gt;Nodo35184372088832 -->
<g id="edge46" class="edge">
<title>Nodo17592186044416&#45;&gt;Nodo35184372088832</title>
<path fill="none" stroke="blue" d="M4415.04,-71.7C4415.04,-63.98 4415.04,-54.71 4415.04,-46.11"/>
<polygon fill="blue" stroke="blue" points="4418.54,-46.1 4415.04,-36.1 4411.54,-46.1 4418.54,-46.1"/>
</g>
<!-- Nodo140737488355328 -->
<g id="node49" class="node">
<title>Nodo140737488355328</title>
<ellipse fill="none" stroke="black" cx="4536.04" cy="-90" rx="76.09" ry="18"/>
<text text-anchor="middle" x="4536.04" y="-86.3" font-family="Times New Roman,serif" font-size="14.00">CREATE INDEX</text>
</g>
<!-- Nodo70368744177664&#45;&gt;Nodo140737488355328 -->
<g id="edge48" class="edge">
<title>Nodo70368744177664&#45;&gt;Nodo140737488355328</title>
<path fill="none" stroke="blue" d="M4614.13,-144.59C4600.44,-135.2 4583.1,-123.29 4568.23,-113.09"/>
<polygon fill="blue" stroke="blue" points="4570.03,-110.08 4559.81,-107.31 4566.07,-115.85 4570.03,-110.08"/>
</g>
<!-- Nodo281474976710656 -->
<g id="node50" class="node">
<title>Nodo281474976710656</title>
<ellipse fill="none" stroke="black" cx="4741.04" cy="-90" rx="110.48" ry="18"/>
<text text-anchor="middle" x="4741.04" y="-86.3" font-family="Times New Roman,serif" font-size="14.00">mytable_cat_2 ON mytable</text>
</g>
<!-- Nodo70368744177664&#45;&gt;Nodo281474976710656 -->
<g id="edge49" class="edge">
<title>Nodo70368744177664&#45;&gt;Nodo281474976710656</title>
<path fill="none" stroke="blue" d="M4662.19,-144.59C4675.81,-135.33 4693.03,-123.63 4707.89,-113.53"/>
<polygon fill="blue" stroke="blue" points="4710.03,-116.31 4716.33,-107.8 4706.09,-110.52 4710.03,-116.31"/>
</g>
<!-- Nodo562949953421312 -->
<g id="node51" class="node">
<title>Nodo562949953421312</title>
<ellipse fill="none" stroke="black" cx="4896.04" cy="-90" rx="27" ry="18"/>
<text text-anchor="middle" x="4896.04" y="-86.3" font-family="Times New Roman,serif" font-size="14.00">IDS</text>
</g>
<!-- Nodo70368744177664&#45;&gt;Nodo562949953421312 -->
<g id="edge50" class="edge">
<title>Nodo70368744177664&#45;&gt;Nodo562949953421312</title>
<path fill="none" stroke="blue" d="M4699.8,-149.83C4744.9,-140.81 4807.14,-126.58 4860.04,-108 4861.95,-107.33 4863.89,-106.59 4865.84,-105.81"/>
<polygon fill="blue" stroke="blue" points="4867.64,-108.84 4875.41,-101.64 4864.84,-102.42 4867.64,-108.84"/>
</g>
<!-- Nodo1125899906842624 -->
<g id="node52" class="node">
<title>Nodo1125899906842624</title>
<ellipse fill="none" stroke="black" cx="4896.04" cy="-18" rx="27" ry="18"/>
<text text-anchor="middle" x="4896.04" y="-14.3" font-family="Times New Roman,serif" font-size="14.00">data</text>
</g>
<!-- Nodo562949953421312&#45;&gt;Nodo1125899906842624 -->
<g id="edge51" class="edge">
<title>Nodo562949953421312&#45;&gt;Nodo1125899906842624</title>
<path fill="none" stroke="blue" d="M4896.04,-71.7C4896.04,-63.98 4896.04,-54.71 4896.04,-46.11"/>
<polygon fill="blue" stroke="blue" points="4899.54,-46.1 4896.04,-36.1 4892.54,-46.1 4899.54,-46.1"/>
</g>
<!-- Nodo4503599627370496 -->
<g id="node54" class="node">
<title>Nodo4503599627370496</title>
<ellipse fill="none" stroke="black" cx="5017.04" cy="-90" rx="76.09" ry="18"/>
<text text-anchor="middle" x="5017.04" y="-86.3" font-family="Times New Roman,serif" font-size="14.00">CREATE INDEX</text>
</g>
<!-- Nodo2251799813685248&#45;&gt;Nodo4503599627370496 -->
<g id="edge53" class="edge">
<title>Nodo2251799813685248&#45;&gt;Nodo4503599627370496</title>
<path fill="none" stroke="blue" d="M5095.13,-144.59C5081.44,-135.2 5064.1,-123.29 5049.23,-113.09"/>
<polygon fill="blue" stroke="blue" points="5051.03,-110.08 5040.81,-107.31 5047.07,-115.85 5051.03,-110.08"/>
</g>
<!-- Nodo9007199254740992 -->
<g id="node55" class="node">
<title>Nodo9007199254740992</title>
<ellipse fill="none" stroke="black" cx="5222.04" cy="-90" rx="110.48" ry="18"/>
<text text-anchor="middle" x="5222.04" y="-86.3" font-family="Times New Roman,serif" font-size="14.00">mytable_cat_3 ON mytable</text>
</g>
<!-- Nodo2251799813685248&#45;&gt;Nodo9007199254740992 -->
<g id="edge54" class="edge">
<title>Nodo2251799813685248&#45;&gt;Nodo9007199254740992</title>
<path fill="none" stroke="blue" d="M5143.19,-144.59C5156.81,-135.33 5174.03,-123.63 5188.89,-113.53"/>
<polygon fill="blue" stroke="blue" points="5191.03,-116.31 5197.33,-107.8 5187.09,-110.52 5191.03,-116.31"/>
</g>
<!-- Nodo18014398509481984 -->
<g id="node56" class="node">
<title>Nodo18014398509481984</title>
<ellipse fill="none" stroke="black" cx="5377.04" cy="-90" rx="27" ry="18"/>
<text text-anchor="middle" x="5377.04" y="-86.3" font-family="Times New Roman,serif" font-size="14.00">IDS</text>
</g>
<!-- Nodo2251799813685248&#45;&gt;Nodo18014398509481984 -->
<g id="edge55" class="edge">
<title>Nodo2251799813685248&#45;&gt;Nodo18014398509481984</title>
<path fill="none" stroke="blue" d="M5180.8,-149.83C5225.9,-140.81 5288.14,-126.58 5341.04,-108 5342.95,-107.33 5344.89,-106.59 5346.84,-105.81"/>
<polygon fill="blue" stroke="blue" points="5348.64,-108.84 5356.41,-101.64 5345.84,-102.42 5348.64,-108.84"/>
</g>
<!-- Nodo36028797018963968 -->
<g id="node57" class="node">
<title>Nodo36028797018963968</title>
<ellipse fill="none" stroke="black" cx="5377.04" cy="-18" rx="27" ry="18"/>
<text text-anchor="middle" x="5377.04" y="-14.3" font-family="Times New Roman,serif" font-size="14.00">data</text>
</g>
<!-- Nodo18014398509481984&#45;&gt;Nodo36028797018963968 -->
<g id="edge56" class="edge">
<title>Nodo18014398509481984&#45;&gt;Nodo36028797018963968</title>
<path fill="none" stroke="blue" d="M5377.04,-71.7C5377.04,-63.98 5377.04,-54.71 5377.04,-46.11"/>
<polygon fill="blue" stroke="blue" points="5380.54,-46.1 5377.04,-36.1 5373.54,-46.1 5380.54,-46.1"/>
</g>
</g>
</svg>
