<?xml version="1.0" encoding="UTF-8" standalone="no"?>
<!DOCTYPE svg PUBLIC "-//W3C//DTD SVG 1.1//EN"
 "http://www.w3.org/Graphics/SVG/1.1/DTD/svg11.dtd">
<!-- Generated by graphviz version 2.44.1 (20200629.0846)
 -->
<!-- Title: G Pages: 1 -->
<svg width="397pt" height="332pt"
 viewBox="0.00 0.00 396.79 332.00" xmlns="http://www.w3.org/2000/svg" xmlns:xlink="http://www.w3.org/1999/xlink">
<g id="graph0" class="graph" transform="scale(1 1) rotate(0) translate(4 328)">
<title>G</title>
<polygon fill="white" stroke="transparent" points="-4,4 -4,-328 392.79,-328 392.79,4 -4,4"/>
<!-- Nodo0 -->
<g id="node1" class="node">
<title>Nodo0</title>
<ellipse fill="none" stroke="black" cx="152.79" cy="-306" rx="27" ry="18"/>
<text text-anchor="middle" x="152.79" y="-302.3" font-family="Times New Roman,serif" font-size="14.00">S</text>
</g>
<!-- Nodo1 -->
<g id="node2" class="node">
<title>Nodo1</title>
<ellipse fill="none" stroke="black" cx="152.79" cy="-234" rx="59.59" ry="18"/>
<text text-anchor="middle" x="152.79" y="-230.3" font-family="Times New Roman,serif" font-size="14.00">Instrucciones</text>
</g>
<!-- Nodo0&#45;&gt;Nodo1 -->
<g id="edge1" class="edge">
<title>Nodo0&#45;&gt;Nodo1</title>
<path fill="none" stroke="blue" d="M152.79,-287.7C152.79,-279.98 152.79,-270.71 152.79,-262.11"/>
<polygon fill="blue" stroke="blue" points="156.29,-262.1 152.79,-252.1 149.29,-262.1 156.29,-262.1"/>
</g>
<!-- Nodo2 -->
<g id="node3" class="node">
<title>Nodo2</title>
<ellipse fill="none" stroke="black" cx="152.79" cy="-162" rx="112.38" ry="18"/>
<text text-anchor="middle" x="152.79" y="-158.3" font-family="Times New Roman,serif" font-size="14.00">Instruccion: INSERT INTO</text>
</g>
<!-- Nodo1&#45;&gt;Nodo2 -->
<g id="edge2" class="edge">
<title>Nodo1&#45;&gt;Nodo2</title>
<path fill="none" stroke="blue" d="M152.79,-215.7C152.79,-207.98 152.79,-198.71 152.79,-190.11"/>
<polygon fill="blue" stroke="blue" points="156.29,-190.1 152.79,-180.1 149.29,-190.1 156.29,-190.1"/>
</g>
<!-- Nodo3 -->
<g id="node4" class="node">
<title>Nodo3</title>
<ellipse fill="none" stroke="black" cx="85.79" cy="-90" rx="85.59" ry="18"/>
<text text-anchor="middle" x="85.79" y="-86.3" font-family="Times New Roman,serif" font-size="14.00">Table: tbCalificacion</text>
</g>
<!-- Nodo2&#45;&gt;Nodo3 -->
<g id="edge3" class="edge">
<title>Nodo2&#45;&gt;Nodo3</title>
<path fill="none" stroke="blue" d="M136.57,-144.05C128.26,-135.37 117.99,-124.64 108.87,-115.11"/>
<polygon fill="blue" stroke="blue" points="111.3,-112.59 101.86,-107.79 106.25,-117.43 111.3,-112.59"/>
</g>
<!-- Nodo4 -->
<g id="node5" class="node">
<title>Nodo4</title>
<ellipse fill="none" stroke="black" cx="220.79" cy="-90" rx="31.4" ry="18"/>
<text text-anchor="middle" x="220.79" y="-86.3" font-family="Times New Roman,serif" font-size="14.00">Value</text>
</g>
<!-- Nodo2&#45;&gt;Nodo4 -->
<g id="edge4" class="edge">
<title>Nodo2&#45;&gt;Nodo4</title>
<path fill="none" stroke="blue" d="M169.25,-144.05C178.15,-134.9 189.25,-123.47 198.87,-113.57"/>
<polygon fill="blue" stroke="blue" points="201.42,-115.97 205.87,-106.36 196.4,-111.09 201.42,-115.97"/>
</g>
<!-- Nodo8 -->
<g id="node6" class="node">
<title>Nodo8</title>
<ellipse fill="none" stroke="black" cx="79.79" cy="-18" rx="27" ry="18"/>
<text text-anchor="middle" x="79.79" y="-14.3" font-family="Times New Roman,serif" font-size="14.00">1</text>
</g>
<!-- Nodo4&#45;&gt;Nodo8 -->
<g id="edge5" class="edge">
<title>Nodo4&#45;&gt;Nodo8</title>
<path fill="none" stroke="blue" d="M197.82,-77.6C173.92,-65.73 136.36,-47.08 110.05,-34.02"/>
<polygon fill="blue" stroke="blue" points="111.42,-30.79 100.91,-29.48 108.31,-37.06 111.42,-30.79"/>
</g>
<!-- Nodo16 -->
<g id="node7" class="node">
<title>Nodo16</title>
<ellipse fill="none" stroke="black" cx="220.79" cy="-18" rx="95.58" ry="18"/>
<text text-anchor="middle" x="220.79" y="-14.3" font-family="Times New Roman,serif" font-size="14.00">Create Table and Insert</text>
</g>
<!-- Nodo4&#45;&gt;Nodo16 -->
<g id="edge6" class="edge">
<title>Nodo4&#45;&gt;Nodo16</title>
<path fill="none" stroke="blue" d="M220.79,-71.7C220.79,-63.98 220.79,-54.71 220.79,-46.11"/>
<polygon fill="blue" stroke="blue" points="224.29,-46.1 220.79,-36.1 217.29,-46.1 224.29,-46.1"/>
</g>
<!-- Nodo32 -->
<g id="node8" class="node">
<title>Nodo32</title>
<ellipse fill="none" stroke="black" cx="361.79" cy="-18" rx="27" ry="18"/>
<text text-anchor="middle" x="361.79" y="-14.3" font-family="Times New Roman,serif" font-size="14.00">1</text>
</g>
<!-- Nodo4&#45;&gt;Nodo32 -->
<g id="edge7" class="edge">
<title>Nodo4&#45;&gt;Nodo32</title>
<path fill="none" stroke="blue" d="M243.76,-77.6C267.67,-65.73 305.23,-47.08 331.54,-34.02"/>
<polygon fill="blue" stroke="blue" points="333.28,-37.06 340.68,-29.48 330.17,-30.79 333.28,-37.06"/>
</g>
</g>
</svg>
