<?xml version="1.0" encoding="UTF-8" standalone="no"?>
<!DOCTYPE svg PUBLIC "-//W3C//DTD SVG 1.1//EN"
 "http://www.w3.org/Graphics/SVG/1.1/DTD/svg11.dtd">
<!-- Generated by graphviz version 2.44.1 (20200629.0846)
 -->
<!-- Title: G Pages: 1 -->
<svg width="648pt" height="476pt"
 viewBox="0.00 0.00 647.79 476.00" xmlns="http://www.w3.org/2000/svg" xmlns:xlink="http://www.w3.org/1999/xlink">
<g id="graph0" class="graph" transform="scale(1 1) rotate(0) translate(4 472)">
<title>G</title>
<polygon fill="white" stroke="transparent" points="-4,4 -4,-472 643.79,-472 643.79,4 -4,4"/>
<!-- Nodo0 -->
<g id="node1" class="node">
<title>Nodo0</title>
<ellipse fill="none" stroke="black" cx="152.79" cy="-450" rx="27" ry="18"/>
<text text-anchor="middle" x="152.79" y="-446.3" font-family="Times New Roman,serif" font-size="14.00">S</text>
</g>
<!-- Nodo1 -->
<g id="node2" class="node">
<title>Nodo1</title>
<ellipse fill="none" stroke="black" cx="152.79" cy="-378" rx="59.59" ry="18"/>
<text text-anchor="middle" x="152.79" y="-374.3" font-family="Times New Roman,serif" font-size="14.00">Instrucciones</text>
</g>
<!-- Nodo0&#45;&gt;Nodo1 -->
<g id="edge1" class="edge">
<title>Nodo0&#45;&gt;Nodo1</title>
<path fill="none" stroke="blue" d="M152.79,-431.7C152.79,-423.98 152.79,-414.71 152.79,-406.11"/>
<polygon fill="blue" stroke="blue" points="156.29,-406.1 152.79,-396.1 149.29,-406.1 156.29,-406.1"/>
</g>
<!-- Nodo2 -->
<g id="node3" class="node">
<title>Nodo2</title>
<ellipse fill="none" stroke="black" cx="152.79" cy="-306" rx="112.38" ry="18"/>
<text text-anchor="middle" x="152.79" y="-302.3" font-family="Times New Roman,serif" font-size="14.00">Instruccion: INSERT INTO</text>
</g>
<!-- Nodo1&#45;&gt;Nodo2 -->
<g id="edge2" class="edge">
<title>Nodo1&#45;&gt;Nodo2</title>
<path fill="none" stroke="blue" d="M152.79,-359.7C152.79,-351.98 152.79,-342.71 152.79,-334.11"/>
<polygon fill="blue" stroke="blue" points="156.29,-334.1 152.79,-324.1 149.29,-334.1 156.29,-334.1"/>
</g>
<!-- Nodo3 -->
<g id="node4" class="node">
<title>Nodo3</title>
<ellipse fill="none" stroke="black" cx="85.79" cy="-234" rx="85.59" ry="18"/>
<text text-anchor="middle" x="85.79" y="-230.3" font-family="Times New Roman,serif" font-size="14.00">Table: tbCalificacion</text>
</g>
<!-- Nodo2&#45;&gt;Nodo3 -->
<g id="edge3" class="edge">
<title>Nodo2&#45;&gt;Nodo3</title>
<path fill="none" stroke="blue" d="M136.57,-288.05C128.26,-279.37 117.99,-268.64 108.87,-259.11"/>
<polygon fill="blue" stroke="blue" points="111.3,-256.59 101.86,-251.79 106.25,-261.43 111.3,-256.59"/>
</g>
<!-- Nodo4 -->
<g id="node5" class="node">
<title>Nodo4</title>
<ellipse fill="none" stroke="black" cx="220.79" cy="-234" rx="31.4" ry="18"/>
<text text-anchor="middle" x="220.79" y="-230.3" font-family="Times New Roman,serif" font-size="14.00">Value</text>
</g>
<!-- Nodo2&#45;&gt;Nodo4 -->
<g id="edge4" class="edge">
<title>Nodo2&#45;&gt;Nodo4</title>
<path fill="none" stroke="blue" d="M169.25,-288.05C178.15,-278.9 189.25,-267.47 198.87,-257.57"/>
<polygon fill="blue" stroke="blue" points="201.42,-259.97 205.87,-250.36 196.4,-255.09 201.42,-259.97"/>
</g>
<!-- Nodo8 -->
<g id="node6" class="node">
<title>Nodo8</title>
<ellipse fill="none" stroke="black" cx="79.79" cy="-162" rx="27" ry="18"/>
<text text-anchor="middle" x="79.79" y="-158.3" font-family="Times New Roman,serif" font-size="14.00">1</text>
</g>
<!-- Nodo4&#45;&gt;Nodo8 -->
<g id="edge5" class="edge">
<title>Nodo4&#45;&gt;Nodo8</title>
<path fill="none" stroke="blue" d="M197.82,-221.6C173.92,-209.73 136.36,-191.08 110.05,-178.02"/>
<polygon fill="blue" stroke="blue" points="111.42,-174.79 100.91,-173.48 108.31,-181.06 111.42,-174.79"/>
</g>
<!-- Nodo16 -->
<g id="node7" class="node">
<title>Nodo16</title>
<ellipse fill="none" stroke="black" cx="220.79" cy="-162" rx="95.58" ry="18"/>
<text text-anchor="middle" x="220.79" y="-158.3" font-family="Times New Roman,serif" font-size="14.00">Create Table and Insert</text>
</g>
<!-- Nodo4&#45;&gt;Nodo16 -->
<g id="edge6" class="edge">
<title>Nodo4&#45;&gt;Nodo16</title>
<path fill="none" stroke="blue" d="M220.79,-215.7C220.79,-207.98 220.79,-198.71 220.79,-190.11"/>
<polygon fill="blue" stroke="blue" points="224.29,-190.1 220.79,-180.1 217.29,-190.1 224.29,-190.1"/>
</g>
<!-- Nodo32 -->
<g id="node8" class="node">
<title>Nodo32</title>
<ellipse fill="none" stroke="black" cx="485.79" cy="-162" rx="151.37" ry="18"/>
<text text-anchor="middle" x="485.79" y="-158.3" font-family="Times New Roman,serif" font-size="14.00">Instruccion: LLAMADA A FUNCION</text>
</g>
<!-- Nodo4&#45;&gt;Nodo32 -->
<g id="edge7" class="edge">
<title>Nodo4&#45;&gt;Nodo32</title>
<path fill="none" stroke="blue" d="M248.65,-225.64C288.18,-215.2 361.83,-195.74 416.61,-181.27"/>
<polygon fill="blue" stroke="blue" points="417.83,-184.57 426.6,-178.63 416.04,-177.8 417.83,-184.57"/>
</g>
<!-- Nodo64 -->
<g id="node9" class="node">
<title>Nodo64</title>
<ellipse fill="none" stroke="black" cx="405.79" cy="-90" rx="68.49" ry="18"/>
<text text-anchor="middle" x="405.79" y="-86.3" font-family="Times New Roman,serif" font-size="14.00">ValidaRegistros</text>
</g>
<!-- Nodo32&#45;&gt;Nodo64 -->
<g id="edge8" class="edge">
<title>Nodo32&#45;&gt;Nodo64</title>
<path fill="none" stroke="blue" d="M466.43,-144.05C456.23,-135.13 443.57,-124.06 432.46,-114.34"/>
<polygon fill="blue" stroke="blue" points="434.53,-111.5 424.7,-107.55 429.92,-116.77 434.53,-111.5"/>
</g>
<!-- Nodo128 -->
<g id="node10" class="node">
<title>Nodo128</title>
<ellipse fill="none" stroke="black" cx="564.79" cy="-90" rx="72.59" ry="18"/>
<text text-anchor="middle" x="564.79" y="-86.3" font-family="Times New Roman,serif" font-size="14.00">PARAMETROS</text>
</g>
<!-- Nodo32&#45;&gt;Nodo128 -->
<g id="edge9" class="edge">
<title>Nodo32&#45;&gt;Nodo128</title>
<path fill="none" stroke="blue" d="M504.92,-144.05C514.98,-135.13 527.48,-124.06 538.46,-114.34"/>
<polygon fill="blue" stroke="blue" points="540.95,-116.8 546.12,-107.55 536.31,-111.56 540.95,-116.8"/>
</g>
<!-- Nodo256 -->
<g id="node11" class="node">
<title>Nodo256</title>
<ellipse fill="none" stroke="black" cx="515.79" cy="-18" rx="51.99" ry="18"/>
<text text-anchor="middle" x="515.79" y="-14.3" font-family="Times New Roman,serif" font-size="14.00">tbProducto</text>
</g>
<!-- Nodo128&#45;&gt;Nodo256 -->
<g id="edge10" class="edge">
<title>Nodo128&#45;&gt;Nodo256</title>
<path fill="none" stroke="blue" d="M552.93,-72.05C547.09,-63.71 539.94,-53.49 533.47,-44.25"/>
<polygon fill="blue" stroke="blue" points="536.15,-41.97 527.54,-35.79 530.41,-45.99 536.15,-41.97"/>
</g>
<!-- Nodo512 -->
<g id="node12" class="node">
<title>Nodo512</title>
<ellipse fill="none" stroke="black" cx="612.79" cy="-18" rx="27" ry="18"/>
<text text-anchor="middle" x="612.79" y="-14.3" font-family="Times New Roman,serif" font-size="14.00">8</text>
</g>
<!-- Nodo128&#45;&gt;Nodo512 -->
<g id="edge11" class="edge">
<title>Nodo128&#45;&gt;Nodo512</title>
<path fill="none" stroke="blue" d="M576.41,-72.05C582.36,-63.38 589.7,-52.67 596.23,-43.15"/>
<polygon fill="blue" stroke="blue" points="599.17,-45.06 601.94,-34.83 593.4,-41.1 599.17,-45.06"/>
</g>
</g>
</svg>
