<?xml version="1.0" encoding="UTF-8" standalone="no"?>
<!DOCTYPE svg PUBLIC "-//W3C//DTD SVG 1.1//EN"
 "http://www.w3.org/Graphics/SVG/1.1/DTD/svg11.dtd">
<!-- Generated by graphviz version 2.44.1 (20200629.0846)
 -->
<!-- Title: G Pages: 1 -->
<svg width="701pt" height="476pt"
 viewBox="0.00 0.00 701.09 476.00" xmlns="http://www.w3.org/2000/svg" xmlns:xlink="http://www.w3.org/1999/xlink">
<g id="graph0" class="graph" transform="scale(1 1) rotate(0) translate(4 472)">
<title>G</title>
<polygon fill="white" stroke="transparent" points="-4,4 -4,-472 697.09,-472 697.09,4 -4,4"/>
<!-- Nodo0 -->
<g id="node1" class="node">
<title>Nodo0</title>
<ellipse fill="none" stroke="black" cx="290.25" cy="-450" rx="27" ry="18"/>
<text text-anchor="middle" x="290.25" y="-446.3" font-family="Times New Roman,serif" font-size="14.00">S</text>
</g>
<!-- Nodo1 -->
<g id="node2" class="node">
<title>Nodo1</title>
<ellipse fill="none" stroke="black" cx="290.25" cy="-378" rx="59.59" ry="18"/>
<text text-anchor="middle" x="290.25" y="-374.3" font-family="Times New Roman,serif" font-size="14.00">Instrucciones</text>
</g>
<!-- Nodo0&#45;&gt;Nodo1 -->
<g id="edge1" class="edge">
<title>Nodo0&#45;&gt;Nodo1</title>
<path fill="none" stroke="blue" d="M290.25,-431.7C290.25,-423.98 290.25,-414.71 290.25,-406.11"/>
<polygon fill="blue" stroke="blue" points="293.75,-406.1 290.25,-396.1 286.75,-406.1 293.75,-406.1"/>
</g>
<!-- Nodo2 -->
<g id="node3" class="node">
<title>Nodo2</title>
<ellipse fill="none" stroke="black" cx="290.25" cy="-306" rx="77.99" ry="18"/>
<text text-anchor="middle" x="290.25" y="-302.3" font-family="Times New Roman,serif" font-size="14.00">Instruccion: Select</text>
</g>
<!-- Nodo1&#45;&gt;Nodo2 -->
<g id="edge2" class="edge">
<title>Nodo1&#45;&gt;Nodo2</title>
<path fill="none" stroke="blue" d="M290.25,-359.7C290.25,-351.98 290.25,-342.71 290.25,-334.11"/>
<polygon fill="blue" stroke="blue" points="293.75,-334.1 290.25,-324.1 286.75,-334.1 293.75,-334.1"/>
</g>
<!-- Nodo4 -->
<g id="node4" class="node">
<title>Nodo4</title>
<ellipse fill="none" stroke="black" cx="86.25" cy="-234" rx="47.39" ry="18"/>
<text text-anchor="middle" x="86.25" y="-230.3" font-family="Times New Roman,serif" font-size="14.00">Columnas</text>
</g>
<!-- Nodo2&#45;&gt;Nodo4 -->
<g id="edge3" class="edge">
<title>Nodo2&#45;&gt;Nodo4</title>
<path fill="none" stroke="blue" d="M248.47,-290.67C213.84,-278.78 164.79,-261.95 129.7,-249.91"/>
<polygon fill="blue" stroke="blue" points="130.79,-246.59 120.2,-246.65 128.52,-253.21 130.79,-246.59"/>
</g>
<!-- Nodo128 -->
<g id="node9" class="node">
<title>Nodo128</title>
<ellipse fill="none" stroke="black" cx="188.25" cy="-234" rx="37.09" ry="18"/>
<text text-anchor="middle" x="188.25" y="-230.3" font-family="Times New Roman,serif" font-size="14.00">FROM</text>
</g>
<!-- Nodo2&#45;&gt;Nodo128 -->
<g id="edge8" class="edge">
<title>Nodo2&#45;&gt;Nodo128</title>
<path fill="none" stroke="blue" d="M266.59,-288.76C251.79,-278.61 232.63,-265.46 216.97,-254.71"/>
<polygon fill="blue" stroke="blue" points="218.9,-251.79 208.67,-249.02 214.94,-257.56 218.9,-251.79"/>
</g>
<!-- Nodo256 -->
<g id="node10" class="node">
<title>Nodo256</title>
<ellipse fill="none" stroke="black" cx="290.25" cy="-234" rx="47.39" ry="18"/>
<text text-anchor="middle" x="290.25" y="-230.3" font-family="Times New Roman,serif" font-size="14.00">Columnas</text>
</g>
<!-- Nodo2&#45;&gt;Nodo256 -->
<g id="edge9" class="edge">
<title>Nodo2&#45;&gt;Nodo256</title>
<path fill="none" stroke="blue" d="M290.25,-287.7C290.25,-279.98 290.25,-270.71 290.25,-262.11"/>
<polygon fill="blue" stroke="blue" points="293.75,-262.1 290.25,-252.1 286.75,-262.1 293.75,-262.1"/>
</g>
<!-- Nodo2048 -->
<g id="node13" class="node">
<title>Nodo2048</title>
<ellipse fill="none" stroke="black" cx="398.25" cy="-234" rx="42.79" ry="18"/>
<text text-anchor="middle" x="398.25" y="-230.3" font-family="Times New Roman,serif" font-size="14.00">WHERE</text>
</g>
<!-- Nodo2&#45;&gt;Nodo2048 -->
<g id="edge12" class="edge">
<title>Nodo2&#45;&gt;Nodo2048</title>
<path fill="none" stroke="blue" d="M315.3,-288.76C330.75,-278.75 350.7,-265.81 367.17,-255.14"/>
<polygon fill="blue" stroke="blue" points="369.41,-257.86 375.9,-249.48 365.61,-251.98 369.41,-257.86"/>
</g>
<!-- Nodo4096 -->
<g id="node14" class="node">
<title>Nodo4096</title>
<ellipse fill="none" stroke="black" cx="503.25" cy="-234" rx="27" ry="18"/>
<text text-anchor="middle" x="503.25" y="-230.3" font-family="Times New Roman,serif" font-size="14.00">E</text>
</g>
<!-- Nodo2&#45;&gt;Nodo4096 -->
<g id="edge13" class="edge">
<title>Nodo2&#45;&gt;Nodo4096</title>
<path fill="none" stroke="blue" d="M333.09,-290.92C373.4,-277.67 432.93,-258.11 469.83,-245.98"/>
<polygon fill="blue" stroke="blue" points="471.2,-249.22 479.61,-242.77 469.01,-242.57 471.2,-249.22"/>
</g>
<!-- Nodo8 -->
<g id="node5" class="node">
<title>Nodo8</title>
<ellipse fill="none" stroke="black" cx="86.25" cy="-162" rx="43.59" ry="18"/>
<text text-anchor="middle" x="86.25" y="-158.3" font-family="Times New Roman,serif" font-size="14.00">Columna</text>
</g>
<!-- Nodo4&#45;&gt;Nodo8 -->
<g id="edge4" class="edge">
<title>Nodo4&#45;&gt;Nodo8</title>
<path fill="none" stroke="blue" d="M86.25,-215.7C86.25,-207.98 86.25,-198.71 86.25,-190.11"/>
<polygon fill="blue" stroke="blue" points="89.75,-190.1 86.25,-180.1 82.75,-190.1 89.75,-190.1"/>
</g>
<!-- Nodo16 -->
<g id="node6" class="node">
<title>Nodo16</title>
<ellipse fill="none" stroke="black" cx="86.25" cy="-90" rx="29.5" ry="18"/>
<text text-anchor="middle" x="86.25" y="-86.3" font-family="Times New Roman,serif" font-size="14.00">Math</text>
</g>
<!-- Nodo8&#45;&gt;Nodo16 -->
<g id="edge5" class="edge">
<title>Nodo8&#45;&gt;Nodo16</title>
<path fill="none" stroke="blue" d="M86.25,-143.7C86.25,-135.98 86.25,-126.71 86.25,-118.11"/>
<polygon fill="blue" stroke="blue" points="89.75,-118.1 86.25,-108.1 82.75,-118.1 89.75,-118.1"/>
</g>
<!-- Nodo32 -->
<g id="node7" class="node">
<title>Nodo32</title>
<ellipse fill="none" stroke="black" cx="42.25" cy="-18" rx="42.49" ry="18"/>
<text text-anchor="middle" x="42.25" y="-14.3" font-family="Times New Roman,serif" font-size="14.00">COUNT</text>
</g>
<!-- Nodo16&#45;&gt;Nodo32 -->
<g id="edge6" class="edge">
<title>Nodo16&#45;&gt;Nodo32</title>
<path fill="none" stroke="blue" d="M76.04,-72.76C70.73,-64.32 64.12,-53.8 58.16,-44.31"/>
<polygon fill="blue" stroke="blue" points="60.99,-42.24 52.7,-35.63 55.06,-45.96 60.99,-42.24"/>
</g>
<!-- Nodo64 -->
<g id="node8" class="node">
<title>Nodo64</title>
<ellipse fill="none" stroke="black" cx="130.25" cy="-18" rx="27.1" ry="18"/>
<text text-anchor="middle" x="130.25" y="-14.3" font-family="Times New Roman,serif" font-size="14.00">Id: *</text>
</g>
<!-- Nodo16&#45;&gt;Nodo64 -->
<g id="edge7" class="edge">
<title>Nodo16&#45;&gt;Nodo64</title>
<path fill="none" stroke="blue" d="M96.45,-72.76C101.84,-64.19 108.56,-53.49 114.59,-43.9"/>
<polygon fill="blue" stroke="blue" points="117.74,-45.48 120.1,-35.15 111.81,-41.75 117.74,-45.48"/>
</g>
<!-- Nodo512 -->
<g id="node11" class="node">
<title>Nodo512</title>
<ellipse fill="none" stroke="black" cx="281.25" cy="-162" rx="43.59" ry="18"/>
<text text-anchor="middle" x="281.25" y="-158.3" font-family="Times New Roman,serif" font-size="14.00">Columna</text>
</g>
<!-- Nodo256&#45;&gt;Nodo512 -->
<g id="edge10" class="edge">
<title>Nodo256&#45;&gt;Nodo512</title>
<path fill="none" stroke="blue" d="M288.02,-215.7C287.03,-207.98 285.84,-198.71 284.73,-190.11"/>
<polygon fill="blue" stroke="blue" points="288.19,-189.58 283.45,-180.1 281.25,-190.47 288.19,-189.58"/>
</g>
<!-- Nodo1024 -->
<g id="node12" class="node">
<title>Nodo1024</title>
<ellipse fill="none" stroke="black" cx="281.25" cy="-90" rx="51.99" ry="18"/>
<text text-anchor="middle" x="281.25" y="-86.3" font-family="Times New Roman,serif" font-size="14.00">tbProducto</text>
</g>
<!-- Nodo512&#45;&gt;Nodo1024 -->
<g id="edge11" class="edge">
<title>Nodo512&#45;&gt;Nodo1024</title>
<path fill="none" stroke="blue" d="M281.25,-143.7C281.25,-135.98 281.25,-126.71 281.25,-118.11"/>
<polygon fill="blue" stroke="blue" points="284.75,-118.1 281.25,-108.1 277.75,-118.1 284.75,-118.1"/>
</g>
<!-- Nodo8192 -->
<g id="node15" class="node">
<title>Nodo8192</title>
<ellipse fill="none" stroke="black" cx="395.25" cy="-162" rx="51.99" ry="18"/>
<text text-anchor="middle" x="395.25" y="-158.3" font-family="Times New Roman,serif" font-size="14.00">Primitivo: 2</text>
</g>
<!-- Nodo4096&#45;&gt;Nodo8192 -->
<g id="edge14" class="edge">
<title>Nodo4096&#45;&gt;Nodo8192</title>
<path fill="none" stroke="blue" d="M484.43,-220.81C468.68,-210.59 445.84,-195.79 427.22,-183.73"/>
<polygon fill="blue" stroke="blue" points="429.03,-180.73 418.74,-178.23 425.23,-186.6 429.03,-180.73"/>
</g>
<!-- Nodo16384 -->
<g id="node16" class="node">
<title>Nodo16384</title>
<ellipse fill="none" stroke="black" cx="512.25" cy="-162" rx="46.59" ry="18"/>
<text text-anchor="middle" x="512.25" y="-158.3" font-family="Times New Roman,serif" font-size="14.00">Id: estado</text>
</g>
<!-- Nodo4096&#45;&gt;Nodo16384 -->
<g id="edge15" class="edge">
<title>Nodo4096&#45;&gt;Nodo16384</title>
<path fill="none" stroke="blue" d="M505.42,-216.05C506.42,-208.35 507.61,-199.03 508.73,-190.36"/>
<polygon fill="blue" stroke="blue" points="512.22,-190.64 510.03,-180.28 505.28,-189.75 512.22,-190.64"/>
</g>
<!-- Nodo16385 -->
<g id="node17" class="node">
<title>Nodo16385</title>
<ellipse fill="none" stroke="black" cx="635.25" cy="-162" rx="57.69" ry="18"/>
<text text-anchor="middle" x="635.25" y="-158.3" font-family="Times New Roman,serif" font-size="14.00"> Operador: =</text>
</g>
<!-- Nodo4096&#45;&gt;Nodo16385 -->
<g id="edge16" class="edge">
<title>Nodo4096&#45;&gt;Nodo16385</title>
<path fill="none" stroke="blue" d="M523.87,-222.06C543.67,-211.56 574.04,-195.46 598.07,-182.72"/>
<polygon fill="blue" stroke="blue" points="599.73,-185.79 606.93,-178.02 596.45,-179.61 599.73,-185.79"/>
</g>
</g>
</svg>
