<?xml version="1.0" encoding="UTF-8" standalone="no"?>
<!DOCTYPE svg PUBLIC "-//W3C//DTD SVG 1.1//EN"
 "http://www.w3.org/Graphics/SVG/1.1/DTD/svg11.dtd">
<!-- Generated by graphviz version 2.38.0 (20140413.2041)
 -->
<!-- Title: G Pages: 1 -->
<svg width="2609pt" height="332pt"
 viewBox="0.00 0.00 2608.79 332.00" xmlns="http://www.w3.org/2000/svg" xmlns:xlink="http://www.w3.org/1999/xlink">
<g id="graph0" class="graph" transform="scale(1 1) rotate(0) translate(4 328)">
<title>G</title>
<polygon fill="white" stroke="none" points="-4,4 -4,-328 2604.79,-328 2604.79,4 -4,4"/>
<!-- Nodo0 -->
<g id="node1" class="node"><title>Nodo0</title>
<ellipse fill="none" stroke="black" cx="1231.25" cy="-306" rx="38.9931" ry="18"/>
<text text-anchor="middle" x="1231.25" y="-302.3" font-family="Times New Roman,serif" font-size="14.00">INICIO</text>
</g>
<!-- Nodo1 -->
<g id="node2" class="node"><title>Nodo1</title>
<ellipse fill="none" stroke="black" cx="1231.25" cy="-234" rx="59.5901" ry="18"/>
<text text-anchor="middle" x="1231.25" y="-230.3" font-family="Times New Roman,serif" font-size="14.00">Instrucciones</text>
</g>
<!-- Nodo0&#45;&gt;Nodo1 -->
<g id="edge1" class="edge"><title>Nodo0&#45;&gt;Nodo1</title>
<path fill="none" stroke="black" d="M1231.25,-287.697C1231.25,-279.983 1231.25,-270.712 1231.25,-262.112"/>
<polygon fill="black" stroke="black" points="1234.75,-262.104 1231.25,-252.104 1227.75,-262.104 1234.75,-262.104"/>
</g>
<!-- Nodo2 -->
<g id="node3" class="node"><title>Nodo2</title>
<ellipse fill="none" stroke="black" cx="518.245" cy="-162" rx="96.6831" ry="18"/>
<text text-anchor="middle" x="518.245" y="-158.3" font-family="Times New Roman,serif" font-size="14.00">CREATE DATABASE</text>
</g>
<!-- Nodo1&#45;&gt;Nodo2 -->
<g id="edge2" class="edge"><title>Nodo1&#45;&gt;Nodo2</title>
<path fill="none" stroke="black" d="M1175.3,-227.507C1053.27,-215.527 762.114,-186.942 611.719,-172.177"/>
<polygon fill="black" stroke="black" points="611.873,-168.675 601.578,-171.181 611.189,-175.642 611.873,-168.675"/>
</g>
<!-- Nodo10 -->
<g id="node7" class="node"><title>Nodo10</title>
<ellipse fill="none" stroke="black" cx="970.245" cy="-162" rx="120.479" ry="18"/>
<text text-anchor="middle" x="970.245" y="-158.3" font-family="Times New Roman,serif" font-size="14.00">USE DATABASE [DBFase2]</text>
</g>
<!-- Nodo1&#45;&gt;Nodo10 -->
<g id="edge6" class="edge"><title>Nodo1&#45;&gt;Nodo10</title>
<path fill="none" stroke="black" d="M1188.15,-221.441C1146.78,-210.347 1083.74,-193.439 1036.09,-180.659"/>
<polygon fill="black" stroke="black" points="1036.73,-177.208 1026.17,-177.998 1034.92,-183.969 1036.73,-177.208"/>
</g>
<!-- Nodo11 -->
<g id="node8" class="node"><title>Nodo11</title>
<ellipse fill="none" stroke="black" cx="1231.25" cy="-162" rx="122.678" ry="18"/>
<text text-anchor="middle" x="1231.25" y="-158.3" font-family="Times New Roman,serif" font-size="14.00">Instruccion: CREATE TABLE</text>
</g>
<!-- Nodo1&#45;&gt;Nodo11 -->
<g id="edge7" class="edge"><title>Nodo1&#45;&gt;Nodo11</title>
<path fill="none" stroke="black" d="M1231.25,-215.697C1231.25,-207.983 1231.25,-198.712 1231.25,-190.112"/>
<polygon fill="black" stroke="black" points="1234.75,-190.104 1231.25,-180.104 1227.75,-190.104 1234.75,-190.104"/>
</g>
<!-- Nodo26 -->
<g id="node23" class="node"><title>Nodo26</title>
<ellipse fill="none" stroke="black" cx="2045.25" cy="-162" rx="112.38" ry="18"/>
<text text-anchor="middle" x="2045.25" y="-158.3" font-family="Times New Roman,serif" font-size="14.00">Instruccion: INSERT INTO</text>
</g>
<!-- Nodo1&#45;&gt;Nodo26 -->
<g id="edge22" class="edge"><title>Nodo1&#45;&gt;Nodo26</title>
<path fill="none" stroke="black" d="M1287.84,-228.133C1422.59,-216.545 1764.2,-187.168 1938.87,-172.148"/>
<polygon fill="black" stroke="black" points="1939.18,-175.634 1948.85,-171.29 1938.58,-168.66 1939.18,-175.634"/>
</g>
<!-- Nodo224 -->
<g id="node28" class="node"><title>Nodo224</title>
<ellipse fill="none" stroke="black" cx="2363.25" cy="-162" rx="77.9862" ry="18"/>
<text text-anchor="middle" x="2363.25" y="-158.3" font-family="Times New Roman,serif" font-size="14.00">Instruccion: Select</text>
</g>
<!-- Nodo1&#45;&gt;Nodo224 -->
<g id="edge27" class="edge"><title>Nodo1&#45;&gt;Nodo224</title>
<path fill="none" stroke="black" d="M1289.81,-230.281C1437.14,-223.31 1835.01,-203.675 2166.25,-180 2204.27,-177.282 2246.37,-173.724 2281.86,-170.566"/>
<polygon fill="black" stroke="black" points="2282.51,-174.021 2292.16,-169.643 2281.89,-167.049 2282.51,-174.021"/>
</g>
<!-- Nodo3 -->
<g id="node4" class="node"><title>Nodo3</title>
<ellipse fill="none" stroke="black" cx="328.245" cy="-90" rx="74.187" ry="18"/>
<text text-anchor="middle" x="328.245" y="-86.3" font-family="Times New Roman,serif" font-size="14.00">IF NOT EXISTS</text>
</g>
<!-- Nodo2&#45;&gt;Nodo3 -->
<g id="edge3" class="edge"><title>Nodo2&#45;&gt;Nodo3</title>
<path fill="none" stroke="black" d="M476.549,-145.638C447.175,-134.816 407.749,-120.291 376.931,-108.937"/>
<polygon fill="black" stroke="black" points="377.845,-105.544 367.252,-105.371 375.425,-112.112 377.845,-105.544"/>
</g>
<!-- Nodo4 -->
<g id="node5" class="node"><title>Nodo4</title>
<ellipse fill="none" stroke="black" cx="464.245" cy="-90" rx="44.393" ry="18"/>
<text text-anchor="middle" x="464.245" y="-86.3" font-family="Times New Roman,serif" font-size="14.00">DBFase2</text>
</g>
<!-- Nodo2&#45;&gt;Nodo4 -->
<g id="edge4" class="edge"><title>Nodo2&#45;&gt;Nodo4</title>
<path fill="none" stroke="black" d="M505.173,-144.055C498.51,-135.418 490.288,-124.76 482.966,-115.268"/>
<polygon fill="black" stroke="black" points="485.704,-113.087 476.825,-107.307 480.162,-117.363 485.704,-113.087"/>
</g>
<!-- Nodo5 -->
<g id="node6" class="node"><title>Nodo5</title>
<ellipse fill="none" stroke="black" cx="572.245" cy="-90" rx="46.2923" ry="18"/>
<text text-anchor="middle" x="572.245" y="-86.3" font-family="Times New Roman,serif" font-size="14.00">MODE: 1</text>
</g>
<!-- Nodo2&#45;&gt;Nodo5 -->
<g id="edge5" class="edge"><title>Nodo2&#45;&gt;Nodo5</title>
<path fill="none" stroke="black" d="M531.317,-144.055C537.817,-135.629 545.801,-125.28 552.985,-115.966"/>
<polygon fill="black" stroke="black" points="555.957,-117.845 559.294,-107.789 550.414,-113.569 555.957,-117.845"/>
</g>
<!-- Nodo12 -->
<g id="node9" class="node"><title>Nodo12</title>
<ellipse fill="none" stroke="black" cx="710.245" cy="-90" rx="73.387" ry="18"/>
<text text-anchor="middle" x="710.245" y="-86.3" font-family="Times New Roman,serif" font-size="14.00">Id: tbCalificacion</text>
</g>
<!-- Nodo11&#45;&gt;Nodo12 -->
<g id="edge8" class="edge"><title>Nodo11&#45;&gt;Nodo12</title>
<path fill="none" stroke="black" d="M1142.86,-149.477C1128.29,-147.618 1113.35,-145.735 1099.25,-144 962.894,-127.226 927.857,-129.965 792.245,-108 786.029,-106.993 779.569,-105.84 773.126,-104.62"/>
<polygon fill="black" stroke="black" points="773.536,-101.134 763.051,-102.657 772.198,-108.005 773.536,-101.134"/>
</g>
<!-- Nodo13 -->
<g id="node10" class="node"><title>Nodo13</title>
<ellipse fill="none" stroke="black" cx="839.245" cy="-90" rx="37.8943" ry="18"/>
<text text-anchor="middle" x="839.245" y="-86.3" font-family="Times New Roman,serif" font-size="14.00">Campo</text>
</g>
<!-- Nodo11&#45;&gt;Nodo13 -->
<g id="edge9" class="edge"><title>Nodo11&#45;&gt;Nodo13</title>
<path fill="none" stroke="black" d="M1156.59,-147.669C1076.04,-133.285 950.417,-110.852 883.962,-98.9851"/>
<polygon fill="black" stroke="black" points="884.28,-95.4866 873.82,-97.1741 883.049,-102.378 884.28,-95.4866"/>
</g>
<!-- Nodo18 -->
<g id="node15" class="node"><title>Nodo18</title>
<ellipse fill="none" stroke="black" cx="1231.25" cy="-90" rx="37.8943" ry="18"/>
<text text-anchor="middle" x="1231.25" y="-86.3" font-family="Times New Roman,serif" font-size="14.00">Campo</text>
</g>
<!-- Nodo11&#45;&gt;Nodo18 -->
<g id="edge14" class="edge"><title>Nodo11&#45;&gt;Nodo18</title>
<path fill="none" stroke="black" d="M1231.25,-143.697C1231.25,-135.983 1231.25,-126.712 1231.25,-118.112"/>
<polygon fill="black" stroke="black" points="1234.75,-118.104 1231.25,-108.104 1227.75,-118.104 1234.75,-118.104"/>
</g>
<!-- Nodo22 -->
<g id="node19" class="node"><title>Nodo22</title>
<ellipse fill="none" stroke="black" cx="1811.25" cy="-90" rx="37.8943" ry="18"/>
<text text-anchor="middle" x="1811.25" y="-86.3" font-family="Times New Roman,serif" font-size="14.00">Campo</text>
</g>
<!-- Nodo11&#45;&gt;Nodo22 -->
<g id="edge18" class="edge"><title>Nodo11&#45;&gt;Nodo22</title>
<path fill="none" stroke="black" d="M1322.83,-149.947C1448.49,-134.781 1669.64,-108.09 1765.17,-96.5612"/>
<polygon fill="black" stroke="black" points="1765.59,-100.036 1775.1,-95.3627 1764.75,-93.0862 1765.59,-100.036"/>
</g>
<!-- Nodo14 -->
<g id="node11" class="node"><title>Nodo14</title>
<ellipse fill="none" stroke="black" cx="55.2451" cy="-18" rx="55.4913" ry="18"/>
<text text-anchor="middle" x="55.2451" y="-14.3" font-family="Times New Roman,serif" font-size="14.00">Id: idcalifica</text>
</g>
<!-- Nodo13&#45;&gt;Nodo14 -->
<g id="edge10" class="edge"><title>Nodo13&#45;&gt;Nodo14</title>
<path fill="none" stroke="black" d="M811.798,-77.5512C805.476,-75.3433 798.708,-73.312 792.245,-72 499.129,-12.4937 415.77,-82.0751 120.245,-36 115.188,-35.2116 109.956,-34.1941 104.756,-33.0492"/>
<polygon fill="black" stroke="black" points="105.388,-29.6024 94.8521,-30.7172 103.784,-36.4161 105.388,-29.6024"/>
</g>
<!-- Nodo15 -->
<g id="node12" class="node"><title>Nodo15</title>
<ellipse fill="none" stroke="black" cx="243.245" cy="-18" rx="114.28" ry="18"/>
<text text-anchor="middle" x="243.245" y="-14.3" font-family="Times New Roman,serif" font-size="14.00">Tipo: Tipo_Dato.INTEGER</text>
</g>
<!-- Nodo13&#45;&gt;Nodo15 -->
<g id="edge11" class="edge"><title>Nodo13&#45;&gt;Nodo15</title>
<path fill="none" stroke="black" d="M811.267,-77.5239C805.091,-75.3744 798.517,-73.3742 792.245,-72 606.639,-31.3352 555.088,-57.0144 366.245,-36 355.747,-34.8318 344.761,-33.4879 333.859,-32.0785"/>
<polygon fill="black" stroke="black" points="334.258,-28.6009 323.887,-30.7689 333.347,-35.5413 334.258,-28.6009"/>
</g>
<!-- Nodo16 -->
<g id="node13" class="node"><title>Nodo16</title>
<ellipse fill="none" stroke="black" cx="518.245" cy="-18" rx="142.975" ry="18"/>
<text text-anchor="middle" x="518.245" y="-14.3" font-family="Times New Roman,serif" font-size="14.00">Tipo_Dato_Constraint.NOT_NULL</text>
</g>
<!-- Nodo13&#45;&gt;Nodo16 -->
<g id="edge12" class="edge"><title>Nodo13&#45;&gt;Nodo16</title>
<path fill="none" stroke="black" d="M810.641,-77.8517C804.621,-75.7321 798.268,-73.6608 792.245,-72 734.324,-56.028 668.223,-43.0934 615.459,-34.0015"/>
<polygon fill="black" stroke="black" points="615.875,-30.522 605.429,-32.2917 614.699,-37.4224 615.875,-30.522"/>
</g>
<!-- Nodo17 -->
<g id="node14" class="node"><title>Nodo17</title>
<ellipse fill="none" stroke="black" cx="839.245" cy="-18" rx="159.772" ry="18"/>
<text text-anchor="middle" x="839.245" y="-14.3" font-family="Times New Roman,serif" font-size="14.00">Tipo_Dato_Constraint.PRIMARY_KEY</text>
</g>
<!-- Nodo13&#45;&gt;Nodo17 -->
<g id="edge13" class="edge"><title>Nodo13&#45;&gt;Nodo17</title>
<path fill="none" stroke="black" d="M839.245,-71.6966C839.245,-63.9827 839.245,-54.7125 839.245,-46.1124"/>
<polygon fill="black" stroke="black" points="842.745,-46.1043 839.245,-36.1043 835.745,-46.1044 842.745,-46.1043"/>
</g>
<!-- Nodo19 -->
<g id="node16" class="node"><title>Nodo19</title>
<ellipse fill="none" stroke="black" cx="1055.25" cy="-18" rx="38.1938" ry="18"/>
<text text-anchor="middle" x="1055.25" y="-14.3" font-family="Times New Roman,serif" font-size="14.00">Id: item</text>
</g>
<!-- Nodo18&#45;&gt;Nodo19 -->
<g id="edge15" class="edge"><title>Nodo18&#45;&gt;Nodo19</title>
<path fill="none" stroke="black" d="M1202.97,-77.7533C1173.07,-65.8641 1125.77,-47.0512 1092.78,-33.927"/>
<polygon fill="black" stroke="black" points="1094.04,-30.6623 1083.45,-30.2188 1091.45,-37.1668 1094.04,-30.6623"/>
</g>
<!-- Nodo20 -->
<g id="node17" class="node"><title>Nodo20</title>
<ellipse fill="none" stroke="black" cx="1231.25" cy="-18" rx="119.679" ry="18"/>
<text text-anchor="middle" x="1231.25" y="-14.3" font-family="Times New Roman,serif" font-size="14.00">Tipo: Tipo_Dato.VARCHAR</text>
</g>
<!-- Nodo18&#45;&gt;Nodo20 -->
<g id="edge16" class="edge"><title>Nodo18&#45;&gt;Nodo20</title>
<path fill="none" stroke="black" d="M1231.25,-71.6966C1231.25,-63.9827 1231.25,-54.7125 1231.25,-46.1124"/>
<polygon fill="black" stroke="black" points="1234.75,-46.1043 1231.25,-36.1043 1227.75,-46.1044 1234.75,-46.1043"/>
</g>
<!-- Nodo21 -->
<g id="node18" class="node"><title>Nodo21</title>
<ellipse fill="none" stroke="black" cx="1512.25" cy="-18" rx="142.975" ry="18"/>
<text text-anchor="middle" x="1512.25" y="-14.3" font-family="Times New Roman,serif" font-size="14.00">Tipo_Dato_Constraint.NOT_NULL</text>
</g>
<!-- Nodo18&#45;&gt;Nodo21 -->
<g id="edge17" class="edge"><title>Nodo18&#45;&gt;Nodo21</title>
<path fill="none" stroke="black" d="M1264.03,-80.8331C1307.12,-70.0991 1383.99,-50.95 1440.8,-36.7966"/>
<polygon fill="black" stroke="black" points="1441.95,-40.1177 1450.81,-34.3042 1440.26,-33.3253 1441.95,-40.1177"/>
</g>
<!-- Nodo23 -->
<g id="node20" class="node"><title>Nodo23</title>
<ellipse fill="none" stroke="black" cx="1721.25" cy="-18" rx="48.1917" ry="18"/>
<text text-anchor="middle" x="1721.25" y="-14.3" font-family="Times New Roman,serif" font-size="14.00">Id: punteo</text>
</g>
<!-- Nodo22&#45;&gt;Nodo23 -->
<g id="edge19" class="edge"><title>Nodo22&#45;&gt;Nodo23</title>
<path fill="none" stroke="black" d="M1792.16,-74.1548C1779.77,-64.5167 1763.4,-51.7855 1749.51,-40.9833"/>
<polygon fill="black" stroke="black" points="1751.28,-37.9283 1741.24,-34.5516 1746.98,-43.4537 1751.28,-37.9283"/>
</g>
<!-- Nodo24 -->
<g id="node21" class="node"><title>Nodo24</title>
<ellipse fill="none" stroke="black" cx="1901.25" cy="-18" rx="114.28" ry="18"/>
<text text-anchor="middle" x="1901.25" y="-14.3" font-family="Times New Roman,serif" font-size="14.00">Tipo: Tipo_Dato.INTEGER</text>
</g>
<!-- Nodo22&#45;&gt;Nodo24 -->
<g id="edge20" class="edge"><title>Nodo22&#45;&gt;Nodo24</title>
<path fill="none" stroke="black" d="M1830.33,-74.1548C1842.3,-64.8491 1857.97,-52.6598 1871.54,-42.1074"/>
<polygon fill="black" stroke="black" points="1873.91,-44.6912 1879.66,-35.789 1869.62,-39.1657 1873.91,-44.6912"/>
</g>
<!-- Nodo25 -->
<g id="node22" class="node"><title>Nodo25</title>
<ellipse fill="none" stroke="black" cx="2176.25" cy="-18" rx="142.975" ry="18"/>
<text text-anchor="middle" x="2176.25" y="-14.3" font-family="Times New Roman,serif" font-size="14.00">Tipo_Dato_Constraint.NOT_NULL</text>
</g>
<!-- Nodo22&#45;&gt;Nodo25 -->
<g id="edge21" class="edge"><title>Nodo22&#45;&gt;Nodo25</title>
<path fill="none" stroke="black" d="M1845.58,-82.4146C1901.4,-71.7092 2013.44,-50.2233 2091.55,-35.2433"/>
<polygon fill="black" stroke="black" points="2092.22,-38.6792 2101.38,-33.3583 2090.9,-31.8045 2092.22,-38.6792"/>
</g>
<!-- Nodo27 -->
<g id="node24" class="node"><title>Nodo27</title>
<ellipse fill="none" stroke="black" cx="2045.25" cy="-90" rx="85.5853" ry="18"/>
<text text-anchor="middle" x="2045.25" y="-86.3" font-family="Times New Roman,serif" font-size="14.00">Table: tbCalificacion</text>
</g>
<!-- Nodo26&#45;&gt;Nodo27 -->
<g id="edge23" class="edge"><title>Nodo26&#45;&gt;Nodo27</title>
<path fill="none" stroke="black" d="M2045.25,-143.697C2045.25,-135.983 2045.25,-126.712 2045.25,-118.112"/>
<polygon fill="black" stroke="black" points="2048.75,-118.104 2045.25,-108.104 2041.75,-118.104 2048.75,-118.104"/>
</g>
<!-- Nodo28 -->
<g id="node25" class="node"><title>Nodo28</title>
<ellipse fill="none" stroke="black" cx="2227.25" cy="-90" rx="31.3957" ry="18"/>
<text text-anchor="middle" x="2227.25" y="-86.3" font-family="Times New Roman,serif" font-size="14.00">Value</text>
</g>
<!-- Nodo26&#45;&gt;Nodo28 -->
<g id="edge24" class="edge"><title>Nodo26&#45;&gt;Nodo28</title>
<path fill="none" stroke="black" d="M2086.54,-145.116C2118.49,-132.83 2162.22,-116.012 2192.4,-104.4"/>
<polygon fill="black" stroke="black" points="2194.01,-107.533 2202.09,-100.676 2191.5,-100.999 2194.01,-107.533"/>
</g>
<!-- Nodo56 -->
<g id="node26" class="node"><title>Nodo56</title>
<ellipse fill="none" stroke="black" cx="2364.25" cy="-18" rx="27" ry="18"/>
<text text-anchor="middle" x="2364.25" y="-14.3" font-family="Times New Roman,serif" font-size="14.00">1</text>
</g>
<!-- Nodo28&#45;&gt;Nodo56 -->
<g id="edge25" class="edge"><title>Nodo28&#45;&gt;Nodo56</title>
<path fill="none" stroke="black" d="M2249.87,-77.4409C2272.92,-65.6648 2308.79,-47.3365 2334.2,-34.349"/>
<polygon fill="black" stroke="black" points="2336.07,-37.3244 2343.39,-29.6577 2332.89,-31.091 2336.07,-37.3244"/>
</g>
<!-- Nodo112 -->
<g id="node27" class="node"><title>Nodo112</title>
<ellipse fill="none" stroke="black" cx="2505.25" cy="-18" rx="95.5831" ry="18"/>
<text text-anchor="middle" x="2505.25" y="-14.3" font-family="Times New Roman,serif" font-size="14.00">Create Table and Insert</text>
</g>
<!-- Nodo28&#45;&gt;Nodo112 -->
<g id="edge26" class="edge"><title>Nodo28&#45;&gt;Nodo112</title>
<path fill="none" stroke="black" d="M2251.09,-78.027C2256.34,-75.8462 2261.93,-73.706 2267.25,-72 2319.72,-55.1611 2380.38,-41.7414 2427.33,-32.6184"/>
<polygon fill="black" stroke="black" points="2428.27,-36.0016 2437.43,-30.68 2426.95,-29.127 2428.27,-36.0016"/>
</g>
<!-- Nodo448 -->
<g id="node29" class="node"><title>Nodo448</title>
<ellipse fill="none" stroke="black" cx="2316.25" cy="-90" rx="40.0939" ry="18"/>
<text text-anchor="middle" x="2316.25" y="-86.3" font-family="Times New Roman,serif" font-size="14.00">ALL (*)</text>
</g>
<!-- Nodo224&#45;&gt;Nodo448 -->
<g id="edge28" class="edge"><title>Nodo224&#45;&gt;Nodo448</title>
<path fill="none" stroke="black" d="M2351.87,-144.055C2346.27,-135.715 2339.4,-125.491 2333.2,-116.252"/>
<polygon fill="black" stroke="black" points="2336,-114.14 2327.52,-107.789 2330.19,-118.042 2336,-114.14"/>
</g>
<!-- Nodo896 -->
<g id="node30" class="node"><title>Nodo896</title>
<ellipse fill="none" stroke="black" cx="2411.25" cy="-90" rx="37.0935" ry="18"/>
<text text-anchor="middle" x="2411.25" y="-86.3" font-family="Times New Roman,serif" font-size="14.00">FROM</text>
</g>
<!-- Nodo224&#45;&gt;Nodo896 -->
<g id="edge29" class="edge"><title>Nodo224&#45;&gt;Nodo896</title>
<path fill="none" stroke="black" d="M2374.86,-144.055C2380.73,-135.505 2387.95,-124.975 2394.41,-115.556"/>
<polygon fill="black" stroke="black" points="2397.29,-117.534 2400.06,-107.307 2391.52,-113.575 2397.29,-117.534"/>
</g>
<!-- Nodo1792 -->
<g id="node31" class="node"><title>Nodo1792</title>
<ellipse fill="none" stroke="black" cx="2527.25" cy="-90" rx="61.1893" ry="18"/>
<text text-anchor="middle" x="2527.25" y="-86.3" font-family="Times New Roman,serif" font-size="14.00">tbCalificacion</text>
</g>
<!-- Nodo224&#45;&gt;Nodo1792 -->
<g id="edge30" class="edge"><title>Nodo224&#45;&gt;Nodo1792</title>
<path fill="none" stroke="black" d="M2398.83,-145.811C2424,-135.067 2457.87,-120.61 2484.51,-109.241"/>
<polygon fill="black" stroke="black" points="2486.14,-112.35 2493.96,-105.205 2483.39,-105.912 2486.14,-112.35"/>
</g>
</g>
</svg>
