<?xml version="1.0" encoding="UTF-8" standalone="no"?>
<!DOCTYPE svg PUBLIC "-//W3C//DTD SVG 1.1//EN"
 "http://www.w3.org/Graphics/SVG/1.1/DTD/svg11.dtd">
<!-- Generated by graphviz version 2.38.0 (20140413.2041)
 -->
<!-- Title: G Pages: 1 -->
<svg width="2528pt" height="332pt"
 viewBox="0.00 0.00 2528.48 332.00" xmlns="http://www.w3.org/2000/svg" xmlns:xlink="http://www.w3.org/1999/xlink">
<g id="graph0" class="graph" transform="scale(1 1) rotate(0) translate(4 328)">
<title>G</title>
<polygon fill="white" stroke="none" points="-4,4 -4,-328 2524.48,-328 2524.48,4 -4,4"/>
<!-- Nodo0 -->
<g id="node1" class="node"><title>Nodo0</title>
<ellipse fill="none" stroke="black" cx="527.093" cy="-306" rx="38.9931" ry="18"/>
<text text-anchor="middle" x="527.093" y="-302.3" font-family="Times New Roman,serif" font-size="14.00">INICIO</text>
</g>
<!-- Nodo1 -->
<g id="node2" class="node"><title>Nodo1</title>
<ellipse fill="none" stroke="black" cx="527.093" cy="-234" rx="59.5901" ry="18"/>
<text text-anchor="middle" x="527.093" y="-230.3" font-family="Times New Roman,serif" font-size="14.00">Instrucciones</text>
</g>
<!-- Nodo0&#45;&gt;Nodo1 -->
<g id="edge1" class="edge"><title>Nodo0&#45;&gt;Nodo1</title>
<path fill="none" stroke="black" d="M527.093,-287.697C527.093,-279.983 527.093,-270.712 527.093,-262.112"/>
<polygon fill="black" stroke="black" points="530.594,-262.104 527.093,-252.104 523.594,-262.104 530.594,-262.104"/>
</g>
<!-- Nodo2 -->
<g id="node3" class="node"><title>Nodo2</title>
<ellipse fill="none" stroke="black" cx="193.093" cy="-162" rx="96.6831" ry="18"/>
<text text-anchor="middle" x="193.093" y="-158.3" font-family="Times New Roman,serif" font-size="14.00">CREATE DATABASE</text>
</g>
<!-- Nodo1&#45;&gt;Nodo2 -->
<g id="edge2" class="edge"><title>Nodo1&#45;&gt;Nodo2</title>
<path fill="none" stroke="black" d="M479.594,-223.045C423.606,-211.311 329.988,-191.69 265.074,-178.086"/>
<polygon fill="black" stroke="black" points="265.418,-174.582 254.913,-175.956 263.982,-181.433 265.418,-174.582"/>
</g>
<!-- Nodo10 -->
<g id="node7" class="node"><title>Nodo10</title>
<ellipse fill="none" stroke="black" cx="407.093" cy="-162" rx="98.5829" ry="18"/>
<text text-anchor="middle" x="407.093" y="-158.3" font-family="Times New Roman,serif" font-size="14.00">USE DATABASE [test]</text>
</g>
<!-- Nodo1&#45;&gt;Nodo10 -->
<g id="edge6" class="edge"><title>Nodo1&#45;&gt;Nodo10</title>
<path fill="none" stroke="black" d="M500.759,-217.638C484.039,-207.885 462.162,-195.124 443.757,-184.387"/>
<polygon fill="black" stroke="black" points="445.439,-181.316 435.038,-179.301 441.912,-187.363 445.439,-181.316"/>
</g>
<!-- Nodo11 -->
<g id="node8" class="node"><title>Nodo11</title>
<ellipse fill="none" stroke="black" cx="647.093" cy="-162" rx="122.678" ry="18"/>
<text text-anchor="middle" x="647.093" y="-158.3" font-family="Times New Roman,serif" font-size="14.00">Instruccion: CREATE TABLE</text>
</g>
<!-- Nodo1&#45;&gt;Nodo11 -->
<g id="edge7" class="edge"><title>Nodo1&#45;&gt;Nodo11</title>
<path fill="none" stroke="black" d="M553.428,-217.638C570.029,-207.954 591.714,-195.304 610.038,-184.616"/>
<polygon fill="black" stroke="black" points="611.852,-187.609 618.726,-179.547 608.325,-181.563 611.852,-187.609"/>
</g>
<!-- Nodo25 -->
<g id="node22" class="node"><title>Nodo25</title>
<ellipse fill="none" stroke="black" cx="1697.09" cy="-162" rx="122.678" ry="18"/>
<text text-anchor="middle" x="1697.09" y="-158.3" font-family="Times New Roman,serif" font-size="14.00">Instruccion: CREATE TABLE</text>
</g>
<!-- Nodo1&#45;&gt;Nodo25 -->
<g id="edge21" class="edge"><title>Nodo1&#45;&gt;Nodo25</title>
<path fill="none" stroke="black" d="M585.114,-229.529C766.69,-218.665 1326.75,-185.157 1575.68,-170.264"/>
<polygon fill="black" stroke="black" points="1576.08,-173.747 1585.85,-169.656 1575.66,-166.759 1576.08,-173.747"/>
</g>
<!-- Nodo3 -->
<g id="node4" class="node"><title>Nodo3</title>
<ellipse fill="none" stroke="black" cx="74.0934" cy="-90" rx="74.187" ry="18"/>
<text text-anchor="middle" x="74.0934" y="-86.3" font-family="Times New Roman,serif" font-size="14.00">IF NOT EXISTS</text>
</g>
<!-- Nodo2&#45;&gt;Nodo3 -->
<g id="edge3" class="edge"><title>Nodo2&#45;&gt;Nodo3</title>
<path fill="none" stroke="black" d="M165.193,-144.588C148.696,-134.884 127.634,-122.494 109.918,-112.073"/>
<polygon fill="black" stroke="black" points="111.394,-108.881 101,-106.827 107.845,-114.914 111.394,-108.881"/>
</g>
<!-- Nodo4 -->
<g id="node5" class="node"><title>Nodo4</title>
<ellipse fill="none" stroke="black" cx="193.093" cy="-90" rx="27" ry="18"/>
<text text-anchor="middle" x="193.093" y="-86.3" font-family="Times New Roman,serif" font-size="14.00">test</text>
</g>
<!-- Nodo2&#45;&gt;Nodo4 -->
<g id="edge4" class="edge"><title>Nodo2&#45;&gt;Nodo4</title>
<path fill="none" stroke="black" d="M193.093,-143.697C193.093,-135.983 193.093,-126.712 193.093,-118.112"/>
<polygon fill="black" stroke="black" points="196.594,-118.104 193.093,-108.104 189.594,-118.104 196.594,-118.104"/>
</g>
<!-- Nodo5 -->
<g id="node6" class="node"><title>Nodo5</title>
<ellipse fill="none" stroke="black" cx="284.093" cy="-90" rx="46.2923" ry="18"/>
<text text-anchor="middle" x="284.093" y="-86.3" font-family="Times New Roman,serif" font-size="14.00">MODE: 1</text>
</g>
<!-- Nodo2&#45;&gt;Nodo5 -->
<g id="edge5" class="edge"><title>Nodo2&#45;&gt;Nodo5</title>
<path fill="none" stroke="black" d="M214.659,-144.411C227.107,-134.835 242.897,-122.69 256.272,-112.401"/>
<polygon fill="black" stroke="black" points="258.445,-115.145 264.237,-106.274 254.177,-109.597 258.445,-115.145"/>
</g>
<!-- Nodo12 -->
<g id="node9" class="node"><title>Nodo12</title>
<ellipse fill="none" stroke="black" cx="405.093" cy="-90" rx="40.0939" ry="18"/>
<text text-anchor="middle" x="405.093" y="-86.3" font-family="Times New Roman,serif" font-size="14.00">Id: tabla</text>
</g>
<!-- Nodo11&#45;&gt;Nodo12 -->
<g id="edge8" class="edge"><title>Nodo11&#45;&gt;Nodo12</title>
<path fill="none" stroke="black" d="M588.954,-146.104C550.495,-135.988 499.06,-121.958 454.093,-108 451.178,-107.095 448.175,-106.131 445.159,-105.141"/>
<polygon fill="black" stroke="black" points="446.167,-101.787 435.573,-101.923 443.939,-108.423 446.167,-101.787"/>
</g>
<!-- Nodo13 -->
<g id="node10" class="node"><title>Nodo13</title>
<ellipse fill="none" stroke="black" cx="501.093" cy="-90" rx="37.8943" ry="18"/>
<text text-anchor="middle" x="501.093" y="-86.3" font-family="Times New Roman,serif" font-size="14.00">Campo</text>
</g>
<!-- Nodo11&#45;&gt;Nodo13 -->
<g id="edge9" class="edge"><title>Nodo11&#45;&gt;Nodo13</title>
<path fill="none" stroke="black" d="M612.863,-144.588C589.751,-133.507 559.335,-118.924 536.068,-107.769"/>
<polygon fill="black" stroke="black" points="537.426,-104.538 526.896,-103.371 534.4,-110.85 537.426,-104.538"/>
</g>
<!-- Nodo16 -->
<g id="node13" class="node"><title>Nodo16</title>
<ellipse fill="none" stroke="black" cx="629.093" cy="-90" rx="37.8943" ry="18"/>
<text text-anchor="middle" x="629.093" y="-86.3" font-family="Times New Roman,serif" font-size="14.00">Campo</text>
</g>
<!-- Nodo11&#45;&gt;Nodo16 -->
<g id="edge12" class="edge"><title>Nodo11&#45;&gt;Nodo16</title>
<path fill="none" stroke="black" d="M642.644,-143.697C640.639,-135.898 638.224,-126.509 635.992,-117.829"/>
<polygon fill="black" stroke="black" points="639.372,-116.918 633.492,-108.104 632.592,-118.661 639.372,-116.918"/>
</g>
<!-- Nodo19 -->
<g id="node16" class="node"><title>Nodo19</title>
<ellipse fill="none" stroke="black" cx="815.093" cy="-90" rx="37.8943" ry="18"/>
<text text-anchor="middle" x="815.093" y="-86.3" font-family="Times New Roman,serif" font-size="14.00">Campo</text>
</g>
<!-- Nodo11&#45;&gt;Nodo19 -->
<g id="edge15" class="edge"><title>Nodo11&#45;&gt;Nodo19</title>
<path fill="none" stroke="black" d="M686.058,-144.765C713.77,-133.218 750.766,-117.803 778.038,-106.44"/>
<polygon fill="black" stroke="black" points="779.726,-109.528 787.61,-102.451 777.033,-103.067 779.726,-109.528"/>
</g>
<!-- Nodo22 -->
<g id="node19" class="node"><title>Nodo22</title>
<ellipse fill="none" stroke="black" cx="1187.09" cy="-90" rx="37.8943" ry="18"/>
<text text-anchor="middle" x="1187.09" y="-86.3" font-family="Times New Roman,serif" font-size="14.00">Campo</text>
</g>
<!-- Nodo11&#45;&gt;Nodo22 -->
<g id="edge18" class="edge"><title>Nodo11&#45;&gt;Nodo22</title>
<path fill="none" stroke="black" d="M735.659,-149.519C851.793,-134.465 1051.28,-108.606 1141,-96.9747"/>
<polygon fill="black" stroke="black" points="1141.67,-100.418 1151.13,-95.6616 1140.77,-93.4763 1141.67,-100.418"/>
</g>
<!-- Nodo14 -->
<g id="node11" class="node"><title>Nodo14</title>
<ellipse fill="none" stroke="black" cx="95.0934" cy="-18" rx="29.795" ry="18"/>
<text text-anchor="middle" x="95.0934" y="-14.3" font-family="Times New Roman,serif" font-size="14.00">Id: id</text>
</g>
<!-- Nodo13&#45;&gt;Nodo14 -->
<g id="edge10" class="edge"><title>Nodo13&#45;&gt;Nodo14</title>
<path fill="none" stroke="black" d="M473.085,-77.6555C466.911,-75.4978 460.346,-73.461 454.093,-72 314.728,-39.4354 272.345,-73.0071 134.093,-36 131.659,-35.3483 129.18,-34.5682 126.712,-33.7056"/>
<polygon fill="black" stroke="black" points="127.955,-30.4335 117.366,-30.0665 125.415,-36.9564 127.955,-30.4335"/>
</g>
<!-- Nodo15 -->
<g id="node12" class="node"><title>Nodo15</title>
<ellipse fill="none" stroke="black" cx="257.093" cy="-18" rx="114.28" ry="18"/>
<text text-anchor="middle" x="257.093" y="-14.3" font-family="Times New Roman,serif" font-size="14.00">Tipo: Tipo_Dato.INTEGER</text>
</g>
<!-- Nodo13&#45;&gt;Nodo15 -->
<g id="edge11" class="edge"><title>Nodo13&#45;&gt;Nodo15</title>
<path fill="none" stroke="black" d="M472.391,-78.1848C466.378,-76.0411 460.053,-73.8757 454.093,-72 411.917,-58.7247 364.026,-45.7928 326.024,-36.0264"/>
<polygon fill="black" stroke="black" points="326.64,-32.5714 316.085,-33.4861 324.907,-39.3534 326.64,-32.5714"/>
</g>
<!-- Nodo17 -->
<g id="node14" class="node"><title>Nodo17</title>
<ellipse fill="none" stroke="black" cx="443.093" cy="-18" rx="53.8905" ry="18"/>
<text text-anchor="middle" x="443.093" y="-14.3" font-family="Times New Roman,serif" font-size="14.00">Id: column2</text>
</g>
<!-- Nodo16&#45;&gt;Nodo17 -->
<g id="edge13" class="edge"><title>Nodo16&#45;&gt;Nodo17</title>
<path fill="none" stroke="black" d="M600.439,-78.2159C570.166,-66.8231 522.053,-48.7158 486.992,-35.5211"/>
<polygon fill="black" stroke="black" points="488.067,-32.1861 477.475,-31.9395 485.602,-38.7375 488.067,-32.1861"/>
</g>
<!-- Nodo18 -->
<g id="node15" class="node"><title>Nodo18</title>
<ellipse fill="none" stroke="black" cx="629.093" cy="-18" rx="114.28" ry="18"/>
<text text-anchor="middle" x="629.093" y="-14.3" font-family="Times New Roman,serif" font-size="14.00">Tipo: Tipo_Dato.INTEGER</text>
</g>
<!-- Nodo16&#45;&gt;Nodo18 -->
<g id="edge14" class="edge"><title>Nodo16&#45;&gt;Nodo18</title>
<path fill="none" stroke="black" d="M629.093,-71.6966C629.093,-63.9827 629.093,-54.7125 629.093,-46.1124"/>
<polygon fill="black" stroke="black" points="632.594,-46.1043 629.093,-36.1043 625.594,-46.1044 632.594,-46.1043"/>
</g>
<!-- Nodo20 -->
<g id="node17" class="node"><title>Nodo20</title>
<ellipse fill="none" stroke="black" cx="815.093" cy="-18" rx="53.8905" ry="18"/>
<text text-anchor="middle" x="815.093" y="-14.3" font-family="Times New Roman,serif" font-size="14.00">Id: column3</text>
</g>
<!-- Nodo19&#45;&gt;Nodo20 -->
<g id="edge16" class="edge"><title>Nodo19&#45;&gt;Nodo20</title>
<path fill="none" stroke="black" d="M815.093,-71.6966C815.093,-63.9827 815.093,-54.7125 815.093,-46.1124"/>
<polygon fill="black" stroke="black" points="818.594,-46.1043 815.093,-36.1043 811.594,-46.1044 818.594,-46.1043"/>
</g>
<!-- Nodo21 -->
<g id="node18" class="node"><title>Nodo21</title>
<ellipse fill="none" stroke="black" cx="1001.09" cy="-18" rx="114.28" ry="18"/>
<text text-anchor="middle" x="1001.09" y="-14.3" font-family="Times New Roman,serif" font-size="14.00">Tipo: Tipo_Dato.INTEGER</text>
</g>
<!-- Nodo19&#45;&gt;Nodo21 -->
<g id="edge17" class="edge"><title>Nodo19&#45;&gt;Nodo21</title>
<path fill="none" stroke="black" d="M843.748,-78.2159C871.878,-67.6293 915.414,-51.245 949.566,-38.3921"/>
<polygon fill="black" stroke="black" points="950.803,-41.6664 958.929,-34.8684 948.337,-35.115 950.803,-41.6664"/>
</g>
<!-- Nodo23 -->
<g id="node20" class="node"><title>Nodo23</title>
<ellipse fill="none" stroke="black" cx="1187.09" cy="-18" rx="53.8905" ry="18"/>
<text text-anchor="middle" x="1187.09" y="-14.3" font-family="Times New Roman,serif" font-size="14.00">Id: column4</text>
</g>
<!-- Nodo22&#45;&gt;Nodo23 -->
<g id="edge19" class="edge"><title>Nodo22&#45;&gt;Nodo23</title>
<path fill="none" stroke="black" d="M1187.09,-71.6966C1187.09,-63.9827 1187.09,-54.7125 1187.09,-46.1124"/>
<polygon fill="black" stroke="black" points="1190.59,-46.1043 1187.09,-36.1043 1183.59,-46.1044 1190.59,-46.1043"/>
</g>
<!-- Nodo24 -->
<g id="node21" class="node"><title>Nodo24</title>
<ellipse fill="none" stroke="black" cx="1373.09" cy="-18" rx="114.28" ry="18"/>
<text text-anchor="middle" x="1373.09" y="-14.3" font-family="Times New Roman,serif" font-size="14.00">Tipo: Tipo_Dato.INTEGER</text>
</g>
<!-- Nodo22&#45;&gt;Nodo24 -->
<g id="edge20" class="edge"><title>Nodo22&#45;&gt;Nodo24</title>
<path fill="none" stroke="black" d="M1215.75,-78.2159C1243.88,-67.6293 1287.41,-51.245 1321.57,-38.3921"/>
<polygon fill="black" stroke="black" points="1322.8,-41.6664 1330.93,-34.8684 1320.34,-35.115 1322.8,-41.6664"/>
</g>
<!-- Nodo26 -->
<g id="node23" class="node"><title>Nodo26</title>
<ellipse fill="none" stroke="black" cx="1584.09" cy="-90" rx="57.3905" ry="18"/>
<text text-anchor="middle" x="1584.09" y="-86.3" font-family="Times New Roman,serif" font-size="14.00">Id: tbbodega</text>
</g>
<!-- Nodo25&#45;&gt;Nodo26 -->
<g id="edge22" class="edge"><title>Nodo25&#45;&gt;Nodo26</title>
<path fill="none" stroke="black" d="M1670.31,-144.411C1654.56,-134.655 1634.51,-122.231 1617.7,-111.82"/>
<polygon fill="black" stroke="black" points="1619.09,-108.565 1608.75,-106.274 1615.41,-114.516 1619.09,-108.565"/>
</g>
<!-- Nodo27 -->
<g id="node24" class="node"><title>Nodo27</title>
<ellipse fill="none" stroke="black" cx="1697.09" cy="-90" rx="37.8943" ry="18"/>
<text text-anchor="middle" x="1697.09" y="-86.3" font-family="Times New Roman,serif" font-size="14.00">Campo</text>
</g>
<!-- Nodo25&#45;&gt;Nodo27 -->
<g id="edge23" class="edge"><title>Nodo25&#45;&gt;Nodo27</title>
<path fill="none" stroke="black" d="M1697.09,-143.697C1697.09,-135.983 1697.09,-126.712 1697.09,-118.112"/>
<polygon fill="black" stroke="black" points="1700.59,-118.104 1697.09,-108.104 1693.59,-118.104 1700.59,-118.104"/>
</g>
<!-- Nodo30 -->
<g id="node27" class="node"><title>Nodo30</title>
<ellipse fill="none" stroke="black" cx="1879.09" cy="-90" rx="37.8943" ry="18"/>
<text text-anchor="middle" x="1879.09" y="-86.3" font-family="Times New Roman,serif" font-size="14.00">Campo</text>
</g>
<!-- Nodo25&#45;&gt;Nodo30 -->
<g id="edge26" class="edge"><title>Nodo25&#45;&gt;Nodo30</title>
<path fill="none" stroke="black" d="M1738.85,-144.941C1769.59,-133.118 1811.05,-117.17 1840.91,-105.685"/>
<polygon fill="black" stroke="black" points="1842.48,-108.831 1850.56,-101.974 1839.97,-102.297 1842.48,-108.831"/>
</g>
<!-- Nodo33 -->
<g id="node30" class="node"><title>Nodo33</title>
<ellipse fill="none" stroke="black" cx="2239.09" cy="-90" rx="37.8943" ry="18"/>
<text text-anchor="middle" x="2239.09" y="-86.3" font-family="Times New Roman,serif" font-size="14.00">Campo</text>
</g>
<!-- Nodo25&#45;&gt;Nodo33 -->
<g id="edge29" class="edge"><title>Nodo25&#45;&gt;Nodo33</title>
<path fill="none" stroke="black" d="M1785.99,-149.519C1902.55,-134.465 2102.77,-108.606 2192.83,-96.9747"/>
<polygon fill="black" stroke="black" points="2193.53,-100.414 2203,-95.6616 2192.63,-93.4714 2193.53,-100.414"/>
</g>
<!-- Nodo28 -->
<g id="node25" class="node"><title>Nodo28</title>
<ellipse fill="none" stroke="black" cx="1535.09" cy="-18" rx="29.795" ry="18"/>
<text text-anchor="middle" x="1535.09" y="-14.3" font-family="Times New Roman,serif" font-size="14.00">Id: id</text>
</g>
<!-- Nodo27&#45;&gt;Nodo28 -->
<g id="edge24" class="edge"><title>Nodo27&#45;&gt;Nodo28</title>
<path fill="none" stroke="black" d="M1669.72,-77.2448C1644.79,-66.5265 1606.95,-50.2394 1574.09,-36 1572.06,-35.117 1569.96,-34.207 1567.85,-33.2884"/>
<polygon fill="black" stroke="black" points="1569.16,-30.0448 1558.6,-29.2642 1566.37,-36.4635 1569.16,-30.0448"/>
</g>
<!-- Nodo29 -->
<g id="node26" class="node"><title>Nodo29</title>
<ellipse fill="none" stroke="black" cx="1697.09" cy="-18" rx="114.28" ry="18"/>
<text text-anchor="middle" x="1697.09" y="-14.3" font-family="Times New Roman,serif" font-size="14.00">Tipo: Tipo_Dato.INTEGER</text>
</g>
<!-- Nodo27&#45;&gt;Nodo29 -->
<g id="edge25" class="edge"><title>Nodo27&#45;&gt;Nodo29</title>
<path fill="none" stroke="black" d="M1697.09,-71.6966C1697.09,-63.9827 1697.09,-54.7125 1697.09,-46.1124"/>
<polygon fill="black" stroke="black" points="1700.59,-46.1043 1697.09,-36.1043 1693.59,-46.1044 1700.59,-46.1043"/>
</g>
<!-- Nodo31 -->
<g id="node28" class="node"><title>Nodo31</title>
<ellipse fill="none" stroke="black" cx="1879.09" cy="-18" rx="50.0912" ry="18"/>
<text text-anchor="middle" x="1879.09" y="-14.3" font-family="Times New Roman,serif" font-size="14.00">Id: bodega</text>
</g>
<!-- Nodo30&#45;&gt;Nodo31 -->
<g id="edge27" class="edge"><title>Nodo30&#45;&gt;Nodo31</title>
<path fill="none" stroke="black" d="M1879.09,-71.6966C1879.09,-63.9827 1879.09,-54.7125 1879.09,-46.1124"/>
<polygon fill="black" stroke="black" points="1882.59,-46.1043 1879.09,-36.1043 1875.59,-46.1044 1882.59,-46.1043"/>
</g>
<!-- Nodo32 -->
<g id="node29" class="node"><title>Nodo32</title>
<ellipse fill="none" stroke="black" cx="2067.09" cy="-18" rx="119.679" ry="18"/>
<text text-anchor="middle" x="2067.09" y="-14.3" font-family="Times New Roman,serif" font-size="14.00">Tipo: Tipo_Dato.VARCHAR</text>
</g>
<!-- Nodo30&#45;&gt;Nodo32 -->
<g id="edge28" class="edge"><title>Nodo30&#45;&gt;Nodo32</title>
<path fill="none" stroke="black" d="M1908.06,-78.2159C1936.49,-67.6293 1980.49,-51.245 2015.01,-38.3921"/>
<polygon fill="black" stroke="black" points="2016.33,-41.6378 2024.48,-34.8684 2013.88,-35.0778 2016.33,-41.6378"/>
</g>
<!-- Nodo34 -->
<g id="node31" class="node"><title>Nodo34</title>
<ellipse fill="none" stroke="black" cx="2239.09" cy="-18" rx="34.394" ry="18"/>
<text text-anchor="middle" x="2239.09" y="-14.3" font-family="Times New Roman,serif" font-size="14.00">Id: id2</text>
</g>
<!-- Nodo33&#45;&gt;Nodo34 -->
<g id="edge30" class="edge"><title>Nodo33&#45;&gt;Nodo34</title>
<path fill="none" stroke="black" d="M2239.09,-71.6966C2239.09,-63.9827 2239.09,-54.7125 2239.09,-46.1124"/>
<polygon fill="black" stroke="black" points="2242.59,-46.1043 2239.09,-36.1043 2235.59,-46.1044 2242.59,-46.1043"/>
</g>
<!-- Nodo35 -->
<g id="node32" class="node"><title>Nodo35</title>
<ellipse fill="none" stroke="black" cx="2406.09" cy="-18" rx="114.28" ry="18"/>
<text text-anchor="middle" x="2406.09" y="-14.3" font-family="Times New Roman,serif" font-size="14.00">Tipo: Tipo_Dato.INTEGER</text>
</g>
<!-- Nodo33&#45;&gt;Nodo35 -->
<g id="edge31" class="edge"><title>Nodo33&#45;&gt;Nodo35</title>
<path fill="none" stroke="black" d="M2266.67,-77.4409C2291.58,-66.9991 2328.78,-51.4056 2358.49,-38.9518"/>
<polygon fill="black" stroke="black" points="2359.98,-42.123 2367.85,-35.0292 2357.28,-35.6671 2359.98,-42.123"/>
</g>
</g>
</svg>
