<?xml version="1.0" encoding="UTF-8" standalone="no"?>
<!DOCTYPE svg PUBLIC "-//W3C//DTD SVG 1.1//EN"
 "http://www.w3.org/Graphics/SVG/1.1/DTD/svg11.dtd">
<!-- Generated by graphviz version 2.38.0 (20140413.2041)
 -->
<!-- Title: G Pages: 1 -->
<svg width="2310pt" height="332pt"
 viewBox="0.00 0.00 2309.83 332.00" xmlns="http://www.w3.org/2000/svg" xmlns:xlink="http://www.w3.org/1999/xlink">
<g id="graph0" class="graph" transform="scale(1 1) rotate(0) translate(4 328)">
<title>G</title>
<polygon fill="white" stroke="none" points="-4,4 -4,-328 2305.83,-328 2305.83,4 -4,4"/>
<!-- Nodo0 -->
<g id="node1" class="node"><title>Nodo0</title>
<ellipse fill="none" stroke="black" cx="483.846" cy="-306" rx="38.9931" ry="18"/>
<text text-anchor="middle" x="483.846" y="-302.3" font-family="Times New Roman,serif" font-size="14.00">INICIO</text>
</g>
<!-- Nodo1 -->
<g id="node2" class="node"><title>Nodo1</title>
<ellipse fill="none" stroke="black" cx="483.846" cy="-234" rx="59.5901" ry="18"/>
<text text-anchor="middle" x="483.846" y="-230.3" font-family="Times New Roman,serif" font-size="14.00">Instrucciones</text>
</g>
<!-- Nodo0&#45;&gt;Nodo1 -->
<g id="edge1" class="edge"><title>Nodo0&#45;&gt;Nodo1</title>
<path fill="none" stroke="black" d="M483.846,-287.697C483.846,-279.983 483.846,-270.712 483.846,-262.112"/>
<polygon fill="black" stroke="black" points="487.346,-262.104 483.846,-252.104 480.346,-262.104 487.346,-262.104"/>
</g>
<!-- Nodo2 -->
<g id="node3" class="node"><title>Nodo2</title>
<ellipse fill="none" stroke="black" cx="269.846" cy="-162" rx="96.6831" ry="18"/>
<text text-anchor="middle" x="269.846" y="-158.3" font-family="Times New Roman,serif" font-size="14.00">CREATE DATABASE</text>
</g>
<!-- Nodo1&#45;&gt;Nodo2 -->
<g id="edge2" class="edge"><title>Nodo1&#45;&gt;Nodo2</title>
<path fill="none" stroke="black" d="M444.595,-220.161C411.144,-209.219 362.685,-193.368 325.278,-181.132"/>
<polygon fill="black" stroke="black" points="326.125,-177.727 315.533,-177.944 323.949,-184.38 326.125,-177.727"/>
</g>
<!-- Nodo10 -->
<g id="node7" class="node"><title>Nodo10</title>
<ellipse fill="none" stroke="black" cx="483.846" cy="-162" rx="98.5829" ry="18"/>
<text text-anchor="middle" x="483.846" y="-158.3" font-family="Times New Roman,serif" font-size="14.00">USE DATABASE [test]</text>
</g>
<!-- Nodo1&#45;&gt;Nodo10 -->
<g id="edge6" class="edge"><title>Nodo1&#45;&gt;Nodo10</title>
<path fill="none" stroke="black" d="M483.846,-215.697C483.846,-207.983 483.846,-198.712 483.846,-190.112"/>
<polygon fill="black" stroke="black" points="487.346,-190.104 483.846,-180.104 480.346,-190.104 487.346,-190.104"/>
</g>
<!-- Nodo11 -->
<g id="node8" class="node"><title>Nodo11</title>
<ellipse fill="none" stroke="black" cx="723.846" cy="-162" rx="122.678" ry="18"/>
<text text-anchor="middle" x="723.846" y="-158.3" font-family="Times New Roman,serif" font-size="14.00">Instruccion: CREATE TABLE</text>
</g>
<!-- Nodo1&#45;&gt;Nodo11 -->
<g id="edge7" class="edge"><title>Nodo1&#45;&gt;Nodo11</title>
<path fill="none" stroke="black" d="M525.103,-220.967C562.653,-210.015 618.62,-193.691 661.604,-181.154"/>
<polygon fill="black" stroke="black" points="662.777,-184.458 671.397,-178.298 660.817,-177.738 662.777,-184.458"/>
</g>
<!-- Nodo3 -->
<g id="node4" class="node"><title>Nodo3</title>
<ellipse fill="none" stroke="black" cx="150.846" cy="-90" rx="74.187" ry="18"/>
<text text-anchor="middle" x="150.846" y="-86.3" font-family="Times New Roman,serif" font-size="14.00">IF NOT EXISTS</text>
</g>
<!-- Nodo2&#45;&gt;Nodo3 -->
<g id="edge3" class="edge"><title>Nodo2&#45;&gt;Nodo3</title>
<path fill="none" stroke="black" d="M241.946,-144.588C225.449,-134.884 204.386,-122.494 186.67,-112.073"/>
<polygon fill="black" stroke="black" points="188.146,-108.881 177.753,-106.827 184.597,-114.914 188.146,-108.881"/>
</g>
<!-- Nodo4 -->
<g id="node5" class="node"><title>Nodo4</title>
<ellipse fill="none" stroke="black" cx="269.846" cy="-90" rx="27" ry="18"/>
<text text-anchor="middle" x="269.846" y="-86.3" font-family="Times New Roman,serif" font-size="14.00">test</text>
</g>
<!-- Nodo2&#45;&gt;Nodo4 -->
<g id="edge4" class="edge"><title>Nodo2&#45;&gt;Nodo4</title>
<path fill="none" stroke="black" d="M269.846,-143.697C269.846,-135.983 269.846,-126.712 269.846,-118.112"/>
<polygon fill="black" stroke="black" points="273.346,-118.104 269.846,-108.104 266.346,-118.104 273.346,-118.104"/>
</g>
<!-- Nodo5 -->
<g id="node6" class="node"><title>Nodo5</title>
<ellipse fill="none" stroke="black" cx="360.846" cy="-90" rx="46.2923" ry="18"/>
<text text-anchor="middle" x="360.846" y="-86.3" font-family="Times New Roman,serif" font-size="14.00">MODE: 1</text>
</g>
<!-- Nodo2&#45;&gt;Nodo5 -->
<g id="edge5" class="edge"><title>Nodo2&#45;&gt;Nodo5</title>
<path fill="none" stroke="black" d="M291.412,-144.411C303.86,-134.835 319.649,-122.69 333.025,-112.401"/>
<polygon fill="black" stroke="black" points="335.198,-115.145 340.99,-106.274 330.93,-109.597 335.198,-115.145"/>
</g>
<!-- Nodo12 -->
<g id="node9" class="node"><title>Nodo12</title>
<ellipse fill="none" stroke="black" cx="545.846" cy="-90" rx="55.7903" ry="18"/>
<text text-anchor="middle" x="545.846" y="-86.3" font-family="Times New Roman,serif" font-size="14.00">Id: tbcalifica</text>
</g>
<!-- Nodo11&#45;&gt;Nodo12 -->
<g id="edge8" class="edge"><title>Nodo11&#45;&gt;Nodo12</title>
<path fill="none" stroke="black" d="M683.009,-144.941C654.976,-133.916 617.819,-119.304 589.25,-108.069"/>
<polygon fill="black" stroke="black" points="590.503,-104.801 579.916,-104.398 587.941,-111.315 590.503,-104.801"/>
</g>
<!-- Nodo13 -->
<g id="node10" class="node"><title>Nodo13</title>
<ellipse fill="none" stroke="black" cx="657.846" cy="-90" rx="37.8943" ry="18"/>
<text text-anchor="middle" x="657.846" y="-86.3" font-family="Times New Roman,serif" font-size="14.00">Campo</text>
</g>
<!-- Nodo11&#45;&gt;Nodo13 -->
<g id="edge9" class="edge"><title>Nodo11&#45;&gt;Nodo13</title>
<path fill="none" stroke="black" d="M707.869,-144.055C699.44,-135.115 688.971,-124.012 679.792,-114.276"/>
<polygon fill="black" stroke="black" points="682.178,-111.704 672.771,-106.829 677.084,-116.506 682.178,-111.704"/>
</g>
<!-- Nodo18 -->
<g id="node15" class="node"><title>Nodo18</title>
<ellipse fill="none" stroke="black" cx="1121.85" cy="-90" rx="37.8943" ry="18"/>
<text text-anchor="middle" x="1121.85" y="-86.3" font-family="Times New Roman,serif" font-size="14.00">Campo</text>
</g>
<!-- Nodo11&#45;&gt;Nodo18 -->
<g id="edge14" class="edge"><title>Nodo11&#45;&gt;Nodo18</title>
<path fill="none" stroke="black" d="M799.175,-147.751C881.273,-133.312 1009.9,-110.689 1077.28,-98.8387"/>
<polygon fill="black" stroke="black" points="1077.91,-102.281 1087.16,-97.1014 1076.7,-95.3866 1077.91,-102.281"/>
</g>
<!-- Nodo22 -->
<g id="node19" class="node"><title>Nodo22</title>
<ellipse fill="none" stroke="black" cx="1790.85" cy="-90" rx="37.8943" ry="18"/>
<text text-anchor="middle" x="1790.85" y="-86.3" font-family="Times New Roman,serif" font-size="14.00">Campo</text>
</g>
<!-- Nodo11&#45;&gt;Nodo22 -->
<g id="edge18" class="edge"><title>Nodo11&#45;&gt;Nodo22</title>
<path fill="none" stroke="black" d="M833.517,-153.805C1062.51,-138.782 1583.47,-104.605 1743.32,-94.118"/>
<polygon fill="black" stroke="black" points="1744.01,-97.5804 1753.76,-93.4332 1743.55,-90.5954 1744.01,-97.5804"/>
</g>
<!-- Nodo14 -->
<g id="node11" class="node"><title>Nodo14</title>
<ellipse fill="none" stroke="black" cx="44.846" cy="-18" rx="44.6926" ry="18"/>
<text text-anchor="middle" x="44.846" y="-14.3" font-family="Times New Roman,serif" font-size="14.00">Id: iditem</text>
</g>
<!-- Nodo13&#45;&gt;Nodo14 -->
<g id="edge10" class="edge"><title>Nodo13&#45;&gt;Nodo14</title>
<path fill="none" stroke="black" d="M630.382,-77.631C624.061,-75.419 617.298,-73.3659 610.846,-72 387.675,-24.7525 322.961,-78.543 98.846,-36 94.9911,-35.2682 91.0253,-34.3513 87.0769,-33.3247"/>
<polygon fill="black" stroke="black" points="87.9457,-29.9333 77.3712,-30.5901 86.0472,-36.6709 87.9457,-29.9333"/>
</g>
<!-- Nodo15 -->
<g id="node12" class="node"><title>Nodo15</title>
<ellipse fill="none" stroke="black" cx="221.846" cy="-18" rx="114.28" ry="18"/>
<text text-anchor="middle" x="221.846" y="-14.3" font-family="Times New Roman,serif" font-size="14.00">Tipo: Tipo_Dato.INTEGER</text>
</g>
<!-- Nodo13&#45;&gt;Nodo15 -->
<g id="edge11" class="edge"><title>Nodo13&#45;&gt;Nodo15</title>
<path fill="none" stroke="black" d="M629.812,-77.762C623.64,-75.5977 617.082,-73.5312 610.846,-72 494.988,-43.5504 463.046,-52.1667 344.846,-36 335.075,-34.6635 324.867,-33.2618 314.692,-31.8608"/>
<polygon fill="black" stroke="black" points="314.929,-28.3605 304.545,-30.4625 313.974,-35.2949 314.929,-28.3605"/>
</g>
<!-- Nodo16 -->
<g id="node13" class="node"><title>Nodo16</title>
<ellipse fill="none" stroke="black" cx="496.846" cy="-18" rx="142.975" ry="18"/>
<text text-anchor="middle" x="496.846" y="-14.3" font-family="Times New Roman,serif" font-size="14.00">Tipo_Dato_Constraint.NOT_NULL</text>
</g>
<!-- Nodo13&#45;&gt;Nodo16 -->
<g id="edge12" class="edge"><title>Nodo13&#45;&gt;Nodo16</title>
<path fill="none" stroke="black" d="M630.898,-77.2836C607.253,-67.0031 572.327,-51.8177 544.052,-39.5244"/>
<polygon fill="black" stroke="black" points="545.311,-36.2551 534.744,-35.4776 542.52,-42.6746 545.311,-36.2551"/>
</g>
<!-- Nodo17 -->
<g id="node14" class="node"><title>Nodo17</title>
<ellipse fill="none" stroke="black" cx="817.846" cy="-18" rx="159.772" ry="18"/>
<text text-anchor="middle" x="817.846" y="-14.3" font-family="Times New Roman,serif" font-size="14.00">Tipo_Dato_Constraint.PRIMARY_KEY</text>
</g>
<!-- Nodo13&#45;&gt;Nodo17 -->
<g id="edge13" class="edge"><title>Nodo13&#45;&gt;Nodo17</title>
<path fill="none" stroke="black" d="M684.626,-77.2836C708.045,-67.0381 742.598,-51.9209 770.646,-39.65"/>
<polygon fill="black" stroke="black" points="772.124,-42.8236 779.883,-35.6088 769.319,-36.4105 772.124,-42.8236"/>
</g>
<!-- Nodo19 -->
<g id="node16" class="node"><title>Nodo19</title>
<ellipse fill="none" stroke="black" cx="1033.85" cy="-18" rx="38.1938" ry="18"/>
<text text-anchor="middle" x="1033.85" y="-14.3" font-family="Times New Roman,serif" font-size="14.00">Id: item</text>
</g>
<!-- Nodo18&#45;&gt;Nodo19 -->
<g id="edge15" class="edge"><title>Nodo18&#45;&gt;Nodo19</title>
<path fill="none" stroke="black" d="M1103.18,-74.1548C1090.82,-64.3173 1074.4,-51.2573 1060.64,-40.3153"/>
<polygon fill="black" stroke="black" points="1062.49,-37.31 1052.48,-33.8238 1058.13,-42.7882 1062.49,-37.31"/>
</g>
<!-- Nodo20 -->
<g id="node17" class="node"><title>Nodo20</title>
<ellipse fill="none" stroke="black" cx="1209.85" cy="-18" rx="119.679" ry="18"/>
<text text-anchor="middle" x="1209.85" y="-14.3" font-family="Times New Roman,serif" font-size="14.00">Tipo: Tipo_Dato.VARCHAR</text>
</g>
<!-- Nodo18&#45;&gt;Nodo20 -->
<g id="edge16" class="edge"><title>Nodo18&#45;&gt;Nodo20</title>
<path fill="none" stroke="black" d="M1140.51,-74.1548C1152.21,-64.8491 1167.53,-52.6598 1180.8,-42.1074"/>
<polygon fill="black" stroke="black" points="1183.09,-44.7534 1188.74,-35.789 1178.73,-39.2752 1183.09,-44.7534"/>
</g>
<!-- Nodo21 -->
<g id="node18" class="node"><title>Nodo21</title>
<ellipse fill="none" stroke="black" cx="1490.85" cy="-18" rx="142.975" ry="18"/>
<text text-anchor="middle" x="1490.85" y="-14.3" font-family="Times New Roman,serif" font-size="14.00">Tipo_Dato_Constraint.NOT_NULL</text>
</g>
<!-- Nodo18&#45;&gt;Nodo21 -->
<g id="edge17" class="edge"><title>Nodo18&#45;&gt;Nodo21</title>
<path fill="none" stroke="black" d="M1156.23,-82.4774C1212.59,-71.7853 1326.27,-50.2195 1405.4,-35.2087"/>
<polygon fill="black" stroke="black" points="1406.19,-38.6225 1415.36,-33.32 1404.88,-31.7452 1406.19,-38.6225"/>
</g>
<!-- Nodo23 -->
<g id="node20" class="node"><title>Nodo23</title>
<ellipse fill="none" stroke="black" cx="1699.85" cy="-18" rx="48.1917" ry="18"/>
<text text-anchor="middle" x="1699.85" y="-14.3" font-family="Times New Roman,serif" font-size="14.00">Id: puntos</text>
</g>
<!-- Nodo22&#45;&gt;Nodo23 -->
<g id="edge19" class="edge"><title>Nodo22&#45;&gt;Nodo23</title>
<path fill="none" stroke="black" d="M1771.55,-74.1548C1758.9,-64.4258 1742.15,-51.545 1728.03,-40.6781"/>
<polygon fill="black" stroke="black" points="1730.12,-37.8745 1720.06,-34.5516 1725.86,-43.4229 1730.12,-37.8745"/>
</g>
<!-- Nodo24 -->
<g id="node21" class="node"><title>Nodo24</title>
<ellipse fill="none" stroke="black" cx="1881.85" cy="-18" rx="115.88" ry="18"/>
<text text-anchor="middle" x="1881.85" y="-14.3" font-family="Times New Roman,serif" font-size="14.00">Tipo: Tipo_Dato.DECIMAL</text>
</g>
<!-- Nodo22&#45;&gt;Nodo24 -->
<g id="edge20" class="edge"><title>Nodo22&#45;&gt;Nodo24</title>
<path fill="none" stroke="black" d="M1810.14,-74.1548C1822.24,-64.8491 1838.09,-52.6598 1851.81,-42.1074"/>
<polygon fill="black" stroke="black" points="1854.23,-44.6603 1860.02,-35.789 1849.96,-39.112 1854.23,-44.6603"/>
</g>
<!-- Nodo25 -->
<g id="node22" class="node"><title>Nodo25</title>
<ellipse fill="none" stroke="black" cx="2158.85" cy="-18" rx="142.975" ry="18"/>
<text text-anchor="middle" x="2158.85" y="-14.3" font-family="Times New Roman,serif" font-size="14.00">Tipo_Dato_Constraint.NOT_NULL</text>
</g>
<!-- Nodo22&#45;&gt;Nodo25 -->
<g id="edge21" class="edge"><title>Nodo22&#45;&gt;Nodo25</title>
<path fill="none" stroke="black" d="M1825.14,-82.4774C1881.35,-71.7853 1994.72,-50.2195 2073.63,-35.2087"/>
<polygon fill="black" stroke="black" points="2074.39,-38.6271 2083.56,-33.32 2073.09,-31.7504 2074.39,-38.6271"/>
</g>
</g>
</svg>
