<?xml version="1.0" encoding="UTF-8" standalone="no"?>
<!DOCTYPE svg PUBLIC "-//W3C//DTD SVG 1.1//EN"
 "http://www.w3.org/Graphics/SVG/1.1/DTD/svg11.dtd">
<!-- Generated by graphviz version 2.38.0 (20140413.2041)
 -->
<!-- Title: G Pages: 1 -->
<svg width="3445pt" height="332pt"
 viewBox="0.00 0.00 3445.29 332.00" xmlns="http://www.w3.org/2000/svg" xmlns:xlink="http://www.w3.org/1999/xlink">
<g id="graph0" class="graph" transform="scale(1 1) rotate(0) translate(4 328)">
<title>G</title>
<polygon fill="white" stroke="none" points="-4,4 -4,-328 3441.29,-328 3441.29,4 -4,4"/>
<!-- Nodo0 -->
<g id="node1" class="node"><title>Nodo0</title>
<ellipse fill="none" stroke="black" cx="1464.95" cy="-306" rx="38.9931" ry="18"/>
<text text-anchor="middle" x="1464.95" y="-302.3" font-family="Times New Roman,serif" font-size="14.00">INICIO</text>
</g>
<!-- Nodo1 -->
<g id="node2" class="node"><title>Nodo1</title>
<ellipse fill="none" stroke="black" cx="1464.95" cy="-234" rx="59.5901" ry="18"/>
<text text-anchor="middle" x="1464.95" y="-230.3" font-family="Times New Roman,serif" font-size="14.00">Instrucciones</text>
</g>
<!-- Nodo0&#45;&gt;Nodo1 -->
<g id="edge1" class="edge"><title>Nodo0&#45;&gt;Nodo1</title>
<path fill="none" stroke="black" d="M1464.95,-287.697C1464.95,-279.983 1464.95,-270.712 1464.95,-262.112"/>
<polygon fill="black" stroke="black" points="1468.45,-262.104 1464.95,-252.104 1461.45,-262.104 1468.45,-262.104"/>
</g>
<!-- Nodo2 -->
<g id="node3" class="node"><title>Nodo2</title>
<ellipse fill="none" stroke="black" cx="255.945" cy="-162" rx="96.6831" ry="18"/>
<text text-anchor="middle" x="255.945" y="-158.3" font-family="Times New Roman,serif" font-size="14.00">CREATE DATABASE</text>
</g>
<!-- Nodo1&#45;&gt;Nodo2 -->
<g id="edge2" class="edge"><title>Nodo1&#45;&gt;Nodo2</title>
<path fill="none" stroke="black" d="M1405.4,-231.672C1242.55,-227.692 776.186,-213.971 389.945,-180 373.985,-178.596 357,-176.731 340.674,-174.751"/>
<polygon fill="black" stroke="black" points="340.963,-171.26 330.609,-173.506 340.103,-178.207 340.963,-171.26"/>
</g>
<!-- Nodo10 -->
<g id="node7" class="node"><title>Nodo10</title>
<ellipse fill="none" stroke="black" cx="499.945" cy="-162" rx="100.983" ry="18"/>
<text text-anchor="middle" x="499.945" y="-158.3" font-family="Times New Roman,serif" font-size="14.00">USE DATABASE [bd1]</text>
</g>
<!-- Nodo1&#45;&gt;Nodo10 -->
<g id="edge6" class="edge"><title>Nodo1&#45;&gt;Nodo10</title>
<path fill="none" stroke="black" d="M1405.7,-231.193C1266.51,-226.541 907.887,-212.189 609.945,-180 600.463,-178.976 590.548,-177.714 580.72,-176.345"/>
<polygon fill="black" stroke="black" points="580.927,-172.839 570.532,-174.886 579.934,-179.769 580.927,-172.839"/>
</g>
<!-- Nodo11 -->
<g id="node8" class="node"><title>Nodo11</title>
<ellipse fill="none" stroke="black" cx="741.945" cy="-162" rx="122.678" ry="18"/>
<text text-anchor="middle" x="741.945" y="-158.3" font-family="Times New Roman,serif" font-size="14.00">Instruccion: CREATE TABLE</text>
</g>
<!-- Nodo1&#45;&gt;Nodo11 -->
<g id="edge7" class="edge"><title>Nodo1&#45;&gt;Nodo11</title>
<path fill="none" stroke="black" d="M1408.81,-227.565C1289.26,-215.99 1007.68,-188.728 851.349,-173.592"/>
<polygon fill="black" stroke="black" points="851.527,-170.093 841.237,-172.613 850.853,-177.061 851.527,-170.093"/>
</g>
<!-- Nodo22 -->
<g id="node19" class="node"><title>Nodo22</title>
<ellipse fill="none" stroke="black" cx="1464.95" cy="-162" rx="122.678" ry="18"/>
<text text-anchor="middle" x="1464.95" y="-158.3" font-family="Times New Roman,serif" font-size="14.00">Instruccion: CREATE TABLE</text>
</g>
<!-- Nodo1&#45;&gt;Nodo22 -->
<g id="edge18" class="edge"><title>Nodo1&#45;&gt;Nodo22</title>
<path fill="none" stroke="black" d="M1464.95,-215.697C1464.95,-207.983 1464.95,-198.712 1464.95,-190.112"/>
<polygon fill="black" stroke="black" points="1468.45,-190.104 1464.95,-180.104 1461.45,-190.104 1468.45,-190.104"/>
</g>
<!-- Nodo31 -->
<g id="node28" class="node"><title>Nodo31</title>
<ellipse fill="none" stroke="black" cx="2045.95" cy="-162" rx="122.678" ry="18"/>
<text text-anchor="middle" x="2045.95" y="-158.3" font-family="Times New Roman,serif" font-size="14.00">Instruccion: CREATE TABLE</text>
</g>
<!-- Nodo1&#45;&gt;Nodo31 -->
<g id="edge27" class="edge"><title>Nodo1&#45;&gt;Nodo31</title>
<path fill="none" stroke="black" d="M1519.34,-226.446C1616.34,-214.76 1820.55,-190.157 1944.23,-175.255"/>
<polygon fill="black" stroke="black" points="1944.95,-178.693 1954.46,-174.022 1944.12,-171.743 1944.95,-178.693"/>
</g>
<!-- Nodo40 -->
<g id="node37" class="node"><title>Nodo40</title>
<ellipse fill="none" stroke="black" cx="2279.95" cy="-162" rx="93.6835" ry="18"/>
<text text-anchor="middle" x="2279.95" y="-158.3" font-family="Times New Roman,serif" font-size="14.00">SHOW DATABASES</text>
</g>
<!-- Nodo1&#45;&gt;Nodo40 -->
<g id="edge36" class="edge"><title>Nodo1&#45;&gt;Nodo40</title>
<path fill="none" stroke="black" d="M1523.81,-230.439C1646.03,-224.723 1936.09,-209.083 2177.95,-180 2186.49,-178.972 2195.42,-177.733 2204.28,-176.398"/>
<polygon fill="black" stroke="black" points="2204.88,-179.845 2214.23,-174.855 2203.81,-172.928 2204.88,-179.845"/>
</g>
<!-- Nodo41 -->
<g id="node38" class="node"><title>Nodo41</title>
<ellipse fill="none" stroke="black" cx="3075.95" cy="-162" rx="112.38" ry="18"/>
<text text-anchor="middle" x="3075.95" y="-158.3" font-family="Times New Roman,serif" font-size="14.00">Instruccion: INSERT INTO</text>
</g>
<!-- Nodo1&#45;&gt;Nodo41 -->
<g id="edge37" class="edge"><title>Nodo1&#45;&gt;Nodo41</title>
<path fill="none" stroke="black" d="M1523.71,-230.447C1759.46,-220.203 2639.24,-181.975 2958.91,-168.085"/>
<polygon fill="black" stroke="black" points="2959.29,-171.572 2969.13,-167.641 2958.98,-164.579 2959.29,-171.572"/>
</g>
<!-- Nodo3 -->
<g id="node4" class="node"><title>Nodo3</title>
<ellipse fill="none" stroke="black" cx="108.945" cy="-90" rx="74.187" ry="18"/>
<text text-anchor="middle" x="108.945" y="-86.3" font-family="Times New Roman,serif" font-size="14.00">IF NOT EXISTS</text>
</g>
<!-- Nodo2&#45;&gt;Nodo3 -->
<g id="edge3" class="edge"><title>Nodo2&#45;&gt;Nodo3</title>
<path fill="none" stroke="black" d="M222.22,-144.941C200.764,-134.723 172.837,-121.425 150.081,-110.589"/>
<polygon fill="black" stroke="black" points="151.534,-107.404 141.001,-106.264 148.524,-113.724 151.534,-107.404"/>
</g>
<!-- Nodo4 -->
<g id="node5" class="node"><title>Nodo4</title>
<ellipse fill="none" stroke="black" cx="227.945" cy="-90" rx="27" ry="18"/>
<text text-anchor="middle" x="227.945" y="-86.3" font-family="Times New Roman,serif" font-size="14.00">bd1</text>
</g>
<!-- Nodo2&#45;&gt;Nodo4 -->
<g id="edge4" class="edge"><title>Nodo2&#45;&gt;Nodo4</title>
<path fill="none" stroke="black" d="M249.024,-143.697C245.823,-135.696 241.953,-126.02 238.407,-117.155"/>
<polygon fill="black" stroke="black" points="241.558,-115.607 234.594,-107.622 235.058,-118.207 241.558,-115.607"/>
</g>
<!-- Nodo5 -->
<g id="node6" class="node"><title>Nodo5</title>
<ellipse fill="none" stroke="black" cx="318.945" cy="-90" rx="46.2923" ry="18"/>
<text text-anchor="middle" x="318.945" y="-86.3" font-family="Times New Roman,serif" font-size="14.00">MODE: 1</text>
</g>
<!-- Nodo2&#45;&gt;Nodo5 -->
<g id="edge5" class="edge"><title>Nodo2&#45;&gt;Nodo5</title>
<path fill="none" stroke="black" d="M271.196,-144.055C279.048,-135.33 288.755,-124.544 297.362,-114.981"/>
<polygon fill="black" stroke="black" points="300.181,-117.081 304.269,-107.307 294.978,-112.399 300.181,-117.081"/>
</g>
<!-- Nodo12 -->
<g id="node9" class="node"><title>Nodo12</title>
<ellipse fill="none" stroke="black" cx="446.945" cy="-90" rx="63.8893" ry="18"/>
<text text-anchor="middle" x="446.945" y="-86.3" font-family="Times New Roman,serif" font-size="14.00">Id: table_name</text>
</g>
<!-- Nodo11&#45;&gt;Nodo12 -->
<g id="edge8" class="edge"><title>Nodo11&#45;&gt;Nodo12</title>
<path fill="none" stroke="black" d="M680.463,-146.411C628.538,-134.09 554.754,-116.582 504.096,-104.561"/>
<polygon fill="black" stroke="black" points="504.824,-101.137 494.286,-102.233 503.208,-107.948 504.824,-101.137"/>
</g>
<!-- Nodo13 -->
<g id="node10" class="node"><title>Nodo13</title>
<ellipse fill="none" stroke="black" cx="565.945" cy="-90" rx="37.8943" ry="18"/>
<text text-anchor="middle" x="565.945" y="-86.3" font-family="Times New Roman,serif" font-size="14.00">Campo</text>
</g>
<!-- Nodo11&#45;&gt;Nodo13 -->
<g id="edge9" class="edge"><title>Nodo11&#45;&gt;Nodo13</title>
<path fill="none" stroke="black" d="M701.567,-144.941C672.025,-133.191 632.236,-117.366 603.401,-105.897"/>
<polygon fill="black" stroke="black" points="604.659,-102.631 594.073,-102.187 602.072,-109.135 604.659,-102.631"/>
</g>
<!-- Nodo16 -->
<g id="node13" class="node"><title>Nodo16</title>
<ellipse fill="none" stroke="black" cx="658.945" cy="-90" rx="37.8943" ry="18"/>
<text text-anchor="middle" x="658.945" y="-86.3" font-family="Times New Roman,serif" font-size="14.00">Campo</text>
</g>
<!-- Nodo11&#45;&gt;Nodo16 -->
<g id="edge12" class="edge"><title>Nodo11&#45;&gt;Nodo16</title>
<path fill="none" stroke="black" d="M721.853,-144.055C710.705,-134.653 696.718,-122.856 684.765,-112.776"/>
<polygon fill="black" stroke="black" points="686.776,-109.893 676.875,-106.122 682.263,-115.244 686.776,-109.893"/>
</g>
<!-- Nodo19 -->
<g id="node16" class="node"><title>Nodo19</title>
<ellipse fill="none" stroke="black" cx="797.945" cy="-90" rx="37.8943" ry="18"/>
<text text-anchor="middle" x="797.945" y="-86.3" font-family="Times New Roman,serif" font-size="14.00">Campo</text>
</g>
<!-- Nodo11&#45;&gt;Nodo19 -->
<g id="edge15" class="edge"><title>Nodo11&#45;&gt;Nodo19</title>
<path fill="none" stroke="black" d="M755.501,-144.055C762.411,-135.418 770.937,-124.76 778.531,-115.268"/>
<polygon fill="black" stroke="black" points="781.386,-117.302 784.9,-107.307 775.92,-112.929 781.386,-117.302"/>
</g>
<!-- Nodo14 -->
<g id="node11" class="node"><title>Nodo14</title>
<ellipse fill="none" stroke="black" cx="53.9452" cy="-18" rx="53.8905" ry="18"/>
<text text-anchor="middle" x="53.9452" y="-14.3" font-family="Times New Roman,serif" font-size="14.00">Id: column1</text>
</g>
<!-- Nodo13&#45;&gt;Nodo14 -->
<g id="edge10" class="edge"><title>Nodo13&#45;&gt;Nodo14</title>
<path fill="none" stroke="black" d="M538.574,-77.5394C532.528,-75.389 526.092,-73.3844 519.945,-72 344.516,-32.4858 293.981,-67.5441 116.945,-36 112.244,-35.1623 107.382,-34.1394 102.541,-33.0152"/>
<polygon fill="black" stroke="black" points="103.236,-29.5819 92.6893,-30.5919 101.564,-36.3793 103.236,-29.5819"/>
</g>
<!-- Nodo15 -->
<g id="node12" class="node"><title>Nodo15</title>
<ellipse fill="none" stroke="black" cx="239.945" cy="-18" rx="114.28" ry="18"/>
<text text-anchor="middle" x="239.945" y="-14.3" font-family="Times New Roman,serif" font-size="14.00">Tipo: Tipo_Dato.INTEGER</text>
</g>
<!-- Nodo13&#45;&gt;Nodo15 -->
<g id="edge11" class="edge"><title>Nodo13&#45;&gt;Nodo15</title>
<path fill="none" stroke="black" d="M537.969,-77.8167C532.075,-75.6997 525.852,-73.6383 519.945,-72 457.897,-54.7918 386.568,-41.3821 331.433,-32.3563"/>
<polygon fill="black" stroke="black" points="331.763,-28.8642 321.332,-30.722 330.645,-35.7743 331.763,-28.8642"/>
</g>
<!-- Nodo17 -->
<g id="node14" class="node"><title>Nodo17</title>
<ellipse fill="none" stroke="black" cx="425.945" cy="-18" rx="53.8905" ry="18"/>
<text text-anchor="middle" x="425.945" y="-14.3" font-family="Times New Roman,serif" font-size="14.00">Id: column2</text>
</g>
<!-- Nodo16&#45;&gt;Nodo17 -->
<g id="edge13" class="edge"><title>Nodo16&#45;&gt;Nodo17</title>
<path fill="none" stroke="black" d="M630.356,-78.043C624.619,-75.9549 618.612,-73.847 612.945,-72 587.614,-63.7433 522.38,-45.5063 476.11,-32.7433"/>
<polygon fill="black" stroke="black" points="476.824,-29.3099 466.254,-30.0284 474.965,-36.0585 476.824,-29.3099"/>
</g>
<!-- Nodo18 -->
<g id="node15" class="node"><title>Nodo18</title>
<ellipse fill="none" stroke="black" cx="611.945" cy="-18" rx="114.28" ry="18"/>
<text text-anchor="middle" x="611.945" y="-14.3" font-family="Times New Roman,serif" font-size="14.00">Tipo: Tipo_Dato.INTEGER</text>
</g>
<!-- Nodo16&#45;&gt;Nodo18 -->
<g id="edge14" class="edge"><title>Nodo16&#45;&gt;Nodo18</title>
<path fill="none" stroke="black" d="M648.044,-72.7646C642.397,-64.3538 635.372,-53.8904 629.023,-44.4356"/>
<polygon fill="black" stroke="black" points="631.923,-42.4751 623.443,-36.1239 626.111,-46.3772 631.923,-42.4751"/>
</g>
<!-- Nodo20 -->
<g id="node17" class="node"><title>Nodo20</title>
<ellipse fill="none" stroke="black" cx="797.945" cy="-18" rx="53.8905" ry="18"/>
<text text-anchor="middle" x="797.945" y="-14.3" font-family="Times New Roman,serif" font-size="14.00">Id: column3</text>
</g>
<!-- Nodo19&#45;&gt;Nodo20 -->
<g id="edge16" class="edge"><title>Nodo19&#45;&gt;Nodo20</title>
<path fill="none" stroke="black" d="M797.945,-71.6966C797.945,-63.9827 797.945,-54.7125 797.945,-46.1124"/>
<polygon fill="black" stroke="black" points="801.445,-46.1043 797.945,-36.1043 794.445,-46.1044 801.445,-46.1043"/>
</g>
<!-- Nodo21 -->
<g id="node18" class="node"><title>Nodo21</title>
<ellipse fill="none" stroke="black" cx="989.945" cy="-18" rx="119.679" ry="18"/>
<text text-anchor="middle" x="989.945" y="-14.3" font-family="Times New Roman,serif" font-size="14.00">Tipo: Tipo_Dato.VARCHAR</text>
</g>
<!-- Nodo19&#45;&gt;Nodo21 -->
<g id="edge17" class="edge"><title>Nodo19&#45;&gt;Nodo21</title>
<path fill="none" stroke="black" d="M827.106,-78.3685C856.16,-67.7757 901.431,-51.2709 936.872,-38.3497"/>
<polygon fill="black" stroke="black" points="938.389,-41.5219 946.585,-34.8083 935.991,-34.9453 938.389,-41.5219"/>
</g>
<!-- Nodo23 -->
<g id="node20" class="node"><title>Nodo23</title>
<ellipse fill="none" stroke="black" cx="1366.95" cy="-90" rx="42.4939" ry="18"/>
<text text-anchor="middle" x="1366.95" y="-86.3" font-family="Times New Roman,serif" font-size="14.00">Id: kathy</text>
</g>
<!-- Nodo22&#45;&gt;Nodo23 -->
<g id="edge19" class="edge"><title>Nodo22&#45;&gt;Nodo23</title>
<path fill="none" stroke="black" d="M1441.22,-144.055C1427.71,-134.405 1410.67,-122.233 1396.32,-111.982"/>
<polygon fill="black" stroke="black" points="1397.96,-108.852 1387.79,-105.888 1393.89,-114.549 1397.96,-108.852"/>
</g>
<!-- Nodo24 -->
<g id="node21" class="node"><title>Nodo24</title>
<ellipse fill="none" stroke="black" cx="1464.95" cy="-90" rx="37.8943" ry="18"/>
<text text-anchor="middle" x="1464.95" y="-86.3" font-family="Times New Roman,serif" font-size="14.00">Campo</text>
</g>
<!-- Nodo22&#45;&gt;Nodo24 -->
<g id="edge20" class="edge"><title>Nodo22&#45;&gt;Nodo24</title>
<path fill="none" stroke="black" d="M1464.95,-143.697C1464.95,-135.983 1464.95,-126.712 1464.95,-118.112"/>
<polygon fill="black" stroke="black" points="1468.45,-118.104 1464.95,-108.104 1461.45,-118.104 1468.45,-118.104"/>
</g>
<!-- Nodo28 -->
<g id="node25" class="node"><title>Nodo28</title>
<ellipse fill="none" stroke="black" cx="1834.95" cy="-90" rx="37.8943" ry="18"/>
<text text-anchor="middle" x="1834.95" y="-86.3" font-family="Times New Roman,serif" font-size="14.00">Campo</text>
</g>
<!-- Nodo22&#45;&gt;Nodo28 -->
<g id="edge24" class="edge"><title>Nodo22&#45;&gt;Nodo28</title>
<path fill="none" stroke="black" d="M1537.16,-147.337C1612.27,-133.128 1727.47,-111.332 1790.3,-99.4462"/>
<polygon fill="black" stroke="black" points="1791.12,-102.854 1800.29,-97.5562 1789.81,-95.9762 1791.12,-102.854"/>
</g>
<!-- Nodo25 -->
<g id="node22" class="node"><title>Nodo25</title>
<ellipse fill="none" stroke="black" cx="1156.95" cy="-18" rx="29.795" ry="18"/>
<text text-anchor="middle" x="1156.95" y="-14.3" font-family="Times New Roman,serif" font-size="14.00">Id: id</text>
</g>
<!-- Nodo24&#45;&gt;Nodo25 -->
<g id="edge21" class="edge"><title>Nodo24&#45;&gt;Nodo25</title>
<path fill="none" stroke="black" d="M1436.88,-77.8859C1430.71,-75.7138 1424.16,-73.6129 1417.95,-72 1321.19,-46.8919 1291.84,-64.1909 1195.95,-36 1193.67,-35.3321 1191.36,-34.5648 1189.05,-33.7336"/>
<polygon fill="black" stroke="black" points="1190.27,-30.4549 1179.69,-30.0466 1187.71,-36.9679 1190.27,-30.4549"/>
</g>
<!-- Nodo26 -->
<g id="node23" class="node"><title>Nodo26</title>
<ellipse fill="none" stroke="black" cx="1318.95" cy="-18" rx="114.28" ry="18"/>
<text text-anchor="middle" x="1318.95" y="-14.3" font-family="Times New Roman,serif" font-size="14.00">Tipo: Tipo_Dato.INTEGER</text>
</g>
<!-- Nodo24&#45;&gt;Nodo26 -->
<g id="edge22" class="edge"><title>Nodo24&#45;&gt;Nodo26</title>
<path fill="none" stroke="black" d="M1439.18,-76.6465C1417.91,-66.4492 1387.27,-51.7573 1362.24,-39.758"/>
<polygon fill="black" stroke="black" points="1363.49,-36.4733 1352.95,-35.306 1360.46,-42.7853 1363.49,-36.4733"/>
</g>
<!-- Nodo27 -->
<g id="node24" class="node"><title>Nodo27</title>
<ellipse fill="none" stroke="black" cx="1610.95" cy="-18" rx="159.772" ry="18"/>
<text text-anchor="middle" x="1610.95" y="-14.3" font-family="Times New Roman,serif" font-size="14.00">Tipo_Dato_Constraint.PRIMARY_KEY</text>
</g>
<!-- Nodo24&#45;&gt;Nodo27 -->
<g id="edge23" class="edge"><title>Nodo24&#45;&gt;Nodo27</title>
<path fill="none" stroke="black" d="M1490.71,-76.6465C1511.76,-66.5537 1542,-52.0577 1566.88,-40.1274"/>
<polygon fill="black" stroke="black" points="1568.62,-43.1745 1576.12,-35.6952 1565.59,-36.8625 1568.62,-43.1745"/>
</g>
<!-- Nodo29 -->
<g id="node26" class="node"><title>Nodo29</title>
<ellipse fill="none" stroke="black" cx="1834.95" cy="-18" rx="46.2923" ry="18"/>
<text text-anchor="middle" x="1834.95" y="-14.3" font-family="Times New Roman,serif" font-size="14.00">Id: precio</text>
</g>
<!-- Nodo28&#45;&gt;Nodo29 -->
<g id="edge25" class="edge"><title>Nodo28&#45;&gt;Nodo29</title>
<path fill="none" stroke="black" d="M1834.95,-71.6966C1834.95,-63.9827 1834.95,-54.7125 1834.95,-46.1124"/>
<polygon fill="black" stroke="black" points="1838.45,-46.1043 1834.95,-36.1043 1831.45,-46.1044 1838.45,-46.1043"/>
</g>
<!-- Nodo30 -->
<g id="node27" class="node"><title>Nodo30</title>
<ellipse fill="none" stroke="black" cx="2013.95" cy="-18" rx="114.28" ry="18"/>
<text text-anchor="middle" x="2013.95" y="-14.3" font-family="Times New Roman,serif" font-size="14.00">Tipo: Tipo_Dato.INTEGER</text>
</g>
<!-- Nodo28&#45;&gt;Nodo30 -->
<g id="edge26" class="edge"><title>Nodo28&#45;&gt;Nodo30</title>
<path fill="none" stroke="black" d="M1863.31,-77.9083C1890.32,-67.347 1931.55,-51.2222 1964.05,-38.5114"/>
<polygon fill="black" stroke="black" points="1965.36,-41.7574 1973.4,-34.8557 1962.81,-35.2382 1965.36,-41.7574"/>
</g>
<!-- Nodo32 -->
<g id="node29" class="node"><title>Nodo32</title>
<ellipse fill="none" stroke="black" cx="2045.95" cy="-90" rx="46.2923" ry="18"/>
<text text-anchor="middle" x="2045.95" y="-86.3" font-family="Times New Roman,serif" font-size="14.00">Id: mishel</text>
</g>
<!-- Nodo31&#45;&gt;Nodo32 -->
<g id="edge28" class="edge"><title>Nodo31&#45;&gt;Nodo32</title>
<path fill="none" stroke="black" d="M2045.95,-143.697C2045.95,-135.983 2045.95,-126.712 2045.95,-118.112"/>
<polygon fill="black" stroke="black" points="2049.45,-118.104 2045.95,-108.104 2042.45,-118.104 2049.45,-118.104"/>
</g>
<!-- Nodo33 -->
<g id="node30" class="node"><title>Nodo33</title>
<ellipse fill="none" stroke="black" cx="2256.95" cy="-90" rx="37.8943" ry="18"/>
<text text-anchor="middle" x="2256.95" y="-86.3" font-family="Times New Roman,serif" font-size="14.00">Campo</text>
</g>
<!-- Nodo31&#45;&gt;Nodo33 -->
<g id="edge29" class="edge"><title>Nodo31&#45;&gt;Nodo33</title>
<path fill="none" stroke="black" d="M2093.3,-145.291C2130.46,-132.964 2181.61,-115.994 2216.78,-104.325"/>
<polygon fill="black" stroke="black" points="2218.31,-107.505 2226.7,-101.034 2216.11,-100.861 2218.31,-107.505"/>
</g>
<!-- Nodo37 -->
<g id="node34" class="node"><title>Nodo37</title>
<ellipse fill="none" stroke="black" cx="2853.95" cy="-90" rx="37.8943" ry="18"/>
<text text-anchor="middle" x="2853.95" y="-86.3" font-family="Times New Roman,serif" font-size="14.00">Campo</text>
</g>
<!-- Nodo31&#45;&gt;Nodo37 -->
<g id="edge33" class="edge"><title>Nodo31&#45;&gt;Nodo37</title>
<path fill="none" stroke="black" d="M2132.19,-149.173C2147.1,-147.311 2162.46,-145.506 2176.95,-144 2412.94,-119.465 2696.3,-100.75 2806.69,-93.8684"/>
<polygon fill="black" stroke="black" points="2807.06,-97.3521 2816.82,-93.2395 2806.63,-90.3656 2807.06,-97.3521"/>
</g>
<!-- Nodo34 -->
<g id="node31" class="node"><title>Nodo34</title>
<ellipse fill="none" stroke="black" cx="2175.95" cy="-18" rx="29.795" ry="18"/>
<text text-anchor="middle" x="2175.95" y="-14.3" font-family="Times New Roman,serif" font-size="14.00">Id: id</text>
</g>
<!-- Nodo33&#45;&gt;Nodo34 -->
<g id="edge30" class="edge"><title>Nodo33&#45;&gt;Nodo34</title>
<path fill="none" stroke="black" d="M2239.37,-73.811C2227.92,-63.9156 2212.82,-50.8699 2200.23,-39.9884"/>
<polygon fill="black" stroke="black" points="2202.24,-37.0956 2192.38,-33.2051 2197.66,-42.3919 2202.24,-37.0956"/>
</g>
<!-- Nodo35 -->
<g id="node32" class="node"><title>Nodo35</title>
<ellipse fill="none" stroke="black" cx="2337.95" cy="-18" rx="114.28" ry="18"/>
<text text-anchor="middle" x="2337.95" y="-14.3" font-family="Times New Roman,serif" font-size="14.00">Tipo: Tipo_Dato.INTEGER</text>
</g>
<!-- Nodo33&#45;&gt;Nodo35 -->
<g id="edge31" class="edge"><title>Nodo33&#45;&gt;Nodo35</title>
<path fill="none" stroke="black" d="M2274.52,-73.811C2285.03,-64.7286 2298.61,-52.9923 2310.51,-42.7113"/>
<polygon fill="black" stroke="black" points="2313.14,-45.0635 2318.42,-35.8767 2308.56,-39.7672 2313.14,-45.0635"/>
</g>
<!-- Nodo36 -->
<g id="node33" class="node"><title>Nodo36</title>
<ellipse fill="none" stroke="black" cx="2629.95" cy="-18" rx="159.772" ry="18"/>
<text text-anchor="middle" x="2629.95" y="-14.3" font-family="Times New Roman,serif" font-size="14.00">Tipo_Dato_Constraint.PRIMARY_KEY</text>
</g>
<!-- Nodo33&#45;&gt;Nodo36 -->
<g id="edge32" class="edge"><title>Nodo33&#45;&gt;Nodo36</title>
<path fill="none" stroke="black" d="M2291.37,-82.54C2347.75,-71.9588 2461.51,-50.6094 2541.56,-35.5871"/>
<polygon fill="black" stroke="black" points="2542.46,-38.9801 2551.64,-33.6956 2541.16,-32.1002 2542.46,-38.9801"/>
</g>
<!-- Nodo38 -->
<g id="node35" class="node"><title>Nodo38</title>
<ellipse fill="none" stroke="black" cx="2853.95" cy="-18" rx="46.2923" ry="18"/>
<text text-anchor="middle" x="2853.95" y="-14.3" font-family="Times New Roman,serif" font-size="14.00">Id: precio</text>
</g>
<!-- Nodo37&#45;&gt;Nodo38 -->
<g id="edge34" class="edge"><title>Nodo37&#45;&gt;Nodo38</title>
<path fill="none" stroke="black" d="M2853.95,-71.6966C2853.95,-63.9827 2853.95,-54.7125 2853.95,-46.1124"/>
<polygon fill="black" stroke="black" points="2857.45,-46.1043 2853.95,-36.1043 2850.45,-46.1044 2857.45,-46.1043"/>
</g>
<!-- Nodo39 -->
<g id="node36" class="node"><title>Nodo39</title>
<ellipse fill="none" stroke="black" cx="3032.95" cy="-18" rx="114.28" ry="18"/>
<text text-anchor="middle" x="3032.95" y="-14.3" font-family="Times New Roman,serif" font-size="14.00">Tipo: Tipo_Dato.INTEGER</text>
</g>
<!-- Nodo37&#45;&gt;Nodo39 -->
<g id="edge35" class="edge"><title>Nodo37&#45;&gt;Nodo39</title>
<path fill="none" stroke="black" d="M2882.31,-77.9083C2909.32,-67.347 2950.55,-51.2222 2983.05,-38.5114"/>
<polygon fill="black" stroke="black" points="2984.36,-41.7574 2992.4,-34.8557 2981.81,-35.2382 2984.36,-41.7574"/>
</g>
<!-- Nodo42 -->
<g id="node39" class="node"><title>Nodo42</title>
<ellipse fill="none" stroke="black" cx="3004.95" cy="-90" rx="76.8869" ry="18"/>
<text text-anchor="middle" x="3004.95" y="-86.3" font-family="Times New Roman,serif" font-size="14.00">Table: table_name</text>
</g>
<!-- Nodo41&#45;&gt;Nodo42 -->
<g id="edge38" class="edge"><title>Nodo41&#45;&gt;Nodo42</title>
<path fill="none" stroke="black" d="M3058.76,-144.055C3049.86,-135.285 3038.85,-124.432 3029.12,-114.831"/>
<polygon fill="black" stroke="black" points="3031.55,-112.317 3021.97,-107.789 3026.64,-117.302 3031.55,-112.317"/>
</g>
<!-- Nodo43 -->
<g id="node40" class="node"><title>Nodo43</title>
<ellipse fill="none" stroke="black" cx="3146.95" cy="-90" rx="47.3916" ry="18"/>
<text text-anchor="middle" x="3146.95" y="-86.3" font-family="Times New Roman,serif" font-size="14.00">Columnas</text>
</g>
<!-- Nodo41&#45;&gt;Nodo43 -->
<g id="edge39" class="edge"><title>Nodo41&#45;&gt;Nodo43</title>
<path fill="none" stroke="black" d="M3093.13,-144.055C3102.16,-135.156 3113.36,-124.112 3123.2,-114.408"/>
<polygon fill="black" stroke="black" points="3125.74,-116.82 3130.41,-107.307 3120.83,-111.835 3125.74,-116.82"/>
</g>
<!-- Nodo44 -->
<g id="node41" class="node"><title>Nodo44</title>
<ellipse fill="none" stroke="black" cx="3253.95" cy="-90" rx="31.3957" ry="18"/>
<text text-anchor="middle" x="3253.95" y="-86.3" font-family="Times New Roman,serif" font-size="14.00">Value</text>
</g>
<!-- Nodo41&#45;&gt;Nodo44 -->
<g id="edge40" class="edge"><title>Nodo41&#45;&gt;Nodo44</title>
<path fill="none" stroke="black" d="M3116.34,-145.116C3147.39,-132.903 3189.84,-116.21 3219.35,-104.606"/>
<polygon fill="black" stroke="black" points="3220.8,-107.797 3228.82,-100.88 3218.23,-101.283 3220.8,-107.797"/>
</g>
<!-- Nodo88 -->
<g id="node42" class="node"><title>Nodo88</title>
<ellipse fill="none" stroke="black" cx="3191.95" cy="-18" rx="27" ry="18"/>
<text text-anchor="middle" x="3191.95" y="-14.3" font-family="Times New Roman,serif" font-size="14.00">1</text>
</g>
<!-- Nodo44&#45;&gt;Nodo88 -->
<g id="edge41" class="edge"><title>Nodo44&#45;&gt;Nodo88</title>
<path fill="none" stroke="black" d="M3240.19,-73.4647C3231.88,-64.0924 3221.16,-51.9898 3211.94,-41.5742"/>
<polygon fill="black" stroke="black" points="3214.49,-39.1767 3205.24,-34.0114 3209.25,-43.8179 3214.49,-39.1767"/>
</g>
<!-- Nodo176 -->
<g id="node43" class="node"><title>Nodo176</title>
<ellipse fill="none" stroke="black" cx="3263.95" cy="-18" rx="27" ry="18"/>
<text text-anchor="middle" x="3263.95" y="-14.3" font-family="Times New Roman,serif" font-size="14.00">4</text>
</g>
<!-- Nodo44&#45;&gt;Nodo176 -->
<g id="edge42" class="edge"><title>Nodo44&#45;&gt;Nodo176</title>
<path fill="none" stroke="black" d="M3256.42,-71.6966C3257.52,-63.9827 3258.84,-54.7125 3260.07,-46.1124"/>
<polygon fill="black" stroke="black" points="3263.55,-46.4988 3261.5,-36.1043 3256.62,-45.5088 3263.55,-46.4988"/>
</g>
<!-- Nodo352 -->
<g id="node44" class="node"><title>Nodo352</title>
<ellipse fill="none" stroke="black" cx="3372.95" cy="-18" rx="64.189" ry="18"/>
<text text-anchor="middle" x="3372.95" y="-14.3" font-family="Times New Roman,serif" font-size="14.00">hola mundo :D</text>
</g>
<!-- Nodo44&#45;&gt;Nodo352 -->
<g id="edge43" class="edge"><title>Nodo44&#45;&gt;Nodo352</title>
<path fill="none" stroke="black" d="M3274.95,-76.6465C3292.27,-66.458 3317.21,-51.7825 3337.6,-39.7889"/>
<polygon fill="black" stroke="black" points="3339.47,-42.7508 3346.32,-34.6637 3335.92,-36.7172 3339.47,-42.7508"/>
</g>
</g>
</svg>
