<?xml version="1.0" encoding="UTF-8" standalone="no"?>
<!DOCTYPE svg PUBLIC "-//W3C//DTD SVG 1.1//EN"
 "http://www.w3.org/Graphics/SVG/1.1/DTD/svg11.dtd">
<!-- Generated by graphviz version 2.38.0 (20140413.2041)
 -->
<!-- Title: G Pages: 1 -->
<svg width="5457pt" height="404pt"
 viewBox="0.00 0.00 5456.59 404.00" xmlns="http://www.w3.org/2000/svg" xmlns:xlink="http://www.w3.org/1999/xlink">
<g id="graph0" class="graph" transform="scale(1 1) rotate(0) translate(4 400)">
<title>G</title>
<polygon fill="white" stroke="none" points="-4,4 -4,-400 5452.59,-400 5452.59,4 -4,4"/>
<!-- Nodo0 -->
<g id="node1" class="node"><title>Nodo0</title>
<ellipse fill="none" stroke="black" cx="2747.95" cy="-378" rx="38.9931" ry="18"/>
<text text-anchor="middle" x="2747.95" y="-374.3" font-family="Times New Roman,serif" font-size="14.00">INICIO</text>
</g>
<!-- Nodo1 -->
<g id="node2" class="node"><title>Nodo1</title>
<ellipse fill="none" stroke="black" cx="2747.95" cy="-306" rx="59.5901" ry="18"/>
<text text-anchor="middle" x="2747.95" y="-302.3" font-family="Times New Roman,serif" font-size="14.00">Instrucciones</text>
</g>
<!-- Nodo0&#45;&gt;Nodo1 -->
<g id="edge1" class="edge"><title>Nodo0&#45;&gt;Nodo1</title>
<path fill="none" stroke="black" d="M2747.95,-359.697C2747.95,-351.983 2747.95,-342.712 2747.95,-334.112"/>
<polygon fill="black" stroke="black" points="2751.45,-334.104 2747.95,-324.104 2744.45,-334.104 2751.45,-334.104"/>
</g>
<!-- Nodo2 -->
<g id="node3" class="node"><title>Nodo2</title>
<ellipse fill="none" stroke="black" cx="528.945" cy="-234" rx="96.6831" ry="18"/>
<text text-anchor="middle" x="528.945" y="-230.3" font-family="Times New Roman,serif" font-size="14.00">CREATE DATABASE</text>
</g>
<!-- Nodo1&#45;&gt;Nodo2 -->
<g id="edge2" class="edge"><title>Nodo1&#45;&gt;Nodo2</title>
<path fill="none" stroke="black" d="M2688.25,-304.935C2443.2,-304.352 1490.56,-299.013 708.945,-252 680.203,-250.271 648.946,-247.598 620.668,-244.88"/>
<polygon fill="black" stroke="black" points="620.687,-241.366 610.395,-243.878 620.008,-248.333 620.687,-241.366"/>
</g>
<!-- Nodo10 -->
<g id="node7" class="node"><title>Nodo10</title>
<ellipse fill="none" stroke="black" cx="818.945" cy="-234" rx="100.983" ry="18"/>
<text text-anchor="middle" x="818.945" y="-230.3" font-family="Times New Roman,serif" font-size="14.00">USE DATABASE [bd1]</text>
</g>
<!-- Nodo1&#45;&gt;Nodo10 -->
<g id="edge6" class="edge"><title>Nodo1&#45;&gt;Nodo10</title>
<path fill="none" stroke="black" d="M2688.14,-304.258C2414.75,-300.71 1282.1,-284.309 928.945,-252 919.059,-251.096 908.71,-249.869 898.483,-248.487"/>
<polygon fill="black" stroke="black" points="898.708,-244.985 888.319,-247.059 897.734,-251.916 898.708,-244.985"/>
</g>
<!-- Nodo11 -->
<g id="node8" class="node"><title>Nodo11</title>
<ellipse fill="none" stroke="black" cx="1060.95" cy="-234" rx="122.678" ry="18"/>
<text text-anchor="middle" x="1060.95" y="-230.3" font-family="Times New Roman,serif" font-size="14.00">Instruccion: CREATE TABLE</text>
</g>
<!-- Nodo1&#45;&gt;Nodo11 -->
<g id="edge7" class="edge"><title>Nodo1&#45;&gt;Nodo11</title>
<path fill="none" stroke="black" d="M2688.89,-302.55C2446.7,-292.5 1526.32,-254.31 1187.3,-240.243"/>
<polygon fill="black" stroke="black" points="1187.33,-236.741 1177.2,-239.824 1187.04,-243.735 1187.33,-236.741"/>
</g>
<!-- Nodo23 -->
<g id="node20" class="node"><title>Nodo23</title>
<ellipse fill="none" stroke="black" cx="2315.95" cy="-234" rx="122.678" ry="18"/>
<text text-anchor="middle" x="2315.95" y="-230.3" font-family="Times New Roman,serif" font-size="14.00">Instruccion: CREATE TABLE</text>
</g>
<!-- Nodo1&#45;&gt;Nodo23 -->
<g id="edge19" class="edge"><title>Nodo1&#45;&gt;Nodo23</title>
<path fill="none" stroke="black" d="M2696.69,-296.695C2624.81,-285.048 2493.01,-263.691 2404.92,-249.417"/>
<polygon fill="black" stroke="black" points="2405.37,-245.944 2394.94,-247.8 2404.25,-252.854 2405.37,-245.944"/>
</g>
<!-- Nodo35 -->
<g id="node32" class="node"><title>Nodo35</title>
<ellipse fill="none" stroke="black" cx="2635.95" cy="-234" rx="93.6835" ry="18"/>
<text text-anchor="middle" x="2635.95" y="-230.3" font-family="Times New Roman,serif" font-size="14.00">SHOW DATABASES</text>
</g>
<!-- Nodo1&#45;&gt;Nodo35 -->
<g id="edge31" class="edge"><title>Nodo1&#45;&gt;Nodo35</title>
<path fill="none" stroke="black" d="M2723.09,-289.465C2707.72,-279.861 2687.77,-267.39 2670.83,-256.805"/>
<polygon fill="black" stroke="black" points="2672.63,-253.799 2662.29,-251.467 2668.92,-259.735 2672.63,-253.799"/>
</g>
<!-- Nodo36 -->
<g id="node33" class="node"><title>Nodo36</title>
<ellipse fill="none" stroke="black" cx="2859.95" cy="-234" rx="112.38" ry="18"/>
<text text-anchor="middle" x="2859.95" y="-230.3" font-family="Times New Roman,serif" font-size="14.00">Instruccion: INSERT INTO</text>
</g>
<!-- Nodo1&#45;&gt;Nodo36 -->
<g id="edge32" class="edge"><title>Nodo1&#45;&gt;Nodo36</title>
<path fill="none" stroke="black" d="M2772.8,-289.465C2788.06,-279.929 2807.84,-267.568 2824.69,-257.032"/>
<polygon fill="black" stroke="black" points="2826.58,-259.982 2833.2,-251.714 2822.87,-254.046 2826.58,-259.982"/>
</g>
<!-- Nodo313 -->
<g id="node40" class="node"><title>Nodo313</title>
<ellipse fill="none" stroke="black" cx="3188.95" cy="-234" rx="112.38" ry="18"/>
<text text-anchor="middle" x="3188.95" y="-230.3" font-family="Times New Roman,serif" font-size="14.00">Instruccion: INSERT INTO</text>
</g>
<!-- Nodo1&#45;&gt;Nodo313 -->
<g id="edge39" class="edge"><title>Nodo1&#45;&gt;Nodo313</title>
<path fill="none" stroke="black" d="M2799.83,-296.764C2874.23,-284.955 3012.14,-263.064 3102.21,-248.768"/>
<polygon fill="black" stroke="black" points="3102.8,-252.218 3112.13,-247.193 3101.7,-245.304 3102.8,-252.218"/>
</g>
<!-- Nodo5056 -->
<g id="node47" class="node"><title>Nodo5056</title>
<ellipse fill="none" stroke="black" cx="3446.95" cy="-234" rx="77.9862" ry="18"/>
<text text-anchor="middle" x="3446.95" y="-230.3" font-family="Times New Roman,serif" font-size="14.00">Instruccion: Select</text>
</g>
<!-- Nodo1&#45;&gt;Nodo5056 -->
<g id="edge46" class="edge"><title>Nodo1&#45;&gt;Nodo5056</title>
<path fill="none" stroke="black" d="M2804.64,-300.209C2906.08,-291.512 3125.33,-272.155 3309.95,-252 3329.63,-249.851 3350.87,-247.32 3370.62,-244.875"/>
<polygon fill="black" stroke="black" points="3371.3,-248.317 3380.79,-243.608 3370.44,-241.371 3371.3,-248.317"/>
</g>
<!-- Nodo80896 -->
<g id="node51" class="node"><title>Nodo80896</title>
<ellipse fill="none" stroke="black" cx="3984.95" cy="-234" rx="77.9862" ry="18"/>
<text text-anchor="middle" x="3984.95" y="-230.3" font-family="Times New Roman,serif" font-size="14.00">Instruccion: Select</text>
</g>
<!-- Nodo1&#45;&gt;Nodo80896 -->
<g id="edge50" class="edge"><title>Nodo1&#45;&gt;Nodo80896</title>
<path fill="none" stroke="black" d="M2806.36,-301.694C3006.32,-290.379 3663.97,-253.163 3899.82,-239.817"/>
<polygon fill="black" stroke="black" points="3900.27,-243.297 3910.06,-239.238 3899.88,-236.308 3900.27,-243.297"/>
</g>
<!-- Nodo1325400064 -->
<g id="node65" class="node"><title>Nodo1325400064</title>
<ellipse fill="none" stroke="black" cx="4732.95" cy="-234" rx="77.9862" ry="18"/>
<text text-anchor="middle" x="4732.95" y="-230.3" font-family="Times New Roman,serif" font-size="14.00">Instruccion: Select</text>
</g>
<!-- Nodo1&#45;&gt;Nodo1325400064 -->
<g id="edge64" class="edge"><title>Nodo1&#45;&gt;Nodo1325400064</title>
<path fill="none" stroke="black" d="M2807.08,-302.915C3090.44,-292.922 4309.43,-249.935 4646.36,-238.053"/>
<polygon fill="black" stroke="black" points="4646.68,-241.544 4656.55,-237.694 4646.43,-234.549 4646.68,-241.544"/>
</g>
<!-- Nodo3 -->
<g id="node4" class="node"><title>Nodo3</title>
<ellipse fill="none" stroke="black" cx="363.945" cy="-162" rx="74.187" ry="18"/>
<text text-anchor="middle" x="363.945" y="-158.3" font-family="Times New Roman,serif" font-size="14.00">IF NOT EXISTS</text>
</g>
<!-- Nodo2&#45;&gt;Nodo3 -->
<g id="edge3" class="edge"><title>Nodo2&#45;&gt;Nodo3</title>
<path fill="none" stroke="black" d="M491.916,-217.291C467.206,-206.808 434.582,-192.967 408.459,-181.885"/>
<polygon fill="black" stroke="black" points="409.728,-178.621 399.155,-177.938 406.994,-185.065 409.728,-178.621"/>
</g>
<!-- Nodo4 -->
<g id="node5" class="node"><title>Nodo4</title>
<ellipse fill="none" stroke="black" cx="482.945" cy="-162" rx="27" ry="18"/>
<text text-anchor="middle" x="482.945" y="-158.3" font-family="Times New Roman,serif" font-size="14.00">bd1</text>
</g>
<!-- Nodo2&#45;&gt;Nodo4 -->
<g id="edge4" class="edge"><title>Nodo2&#45;&gt;Nodo4</title>
<path fill="none" stroke="black" d="M517.81,-216.055C512.168,-207.469 505.214,-196.888 499.005,-187.439"/>
<polygon fill="black" stroke="black" points="501.764,-185.264 493.347,-178.829 495.914,-189.109 501.764,-185.264"/>
</g>
<!-- Nodo5 -->
<g id="node6" class="node"><title>Nodo5</title>
<ellipse fill="none" stroke="black" cx="573.945" cy="-162" rx="46.2923" ry="18"/>
<text text-anchor="middle" x="573.945" y="-158.3" font-family="Times New Roman,serif" font-size="14.00">MODE: 1</text>
</g>
<!-- Nodo2&#45;&gt;Nodo5 -->
<g id="edge5" class="edge"><title>Nodo2&#45;&gt;Nodo5</title>
<path fill="none" stroke="black" d="M539.838,-216.055C545.2,-207.715 551.773,-197.491 557.712,-188.252"/>
<polygon fill="black" stroke="black" points="560.689,-190.093 563.152,-179.789 554.801,-186.308 560.689,-190.093"/>
</g>
<!-- Nodo12 -->
<g id="node9" class="node"><title>Nodo12</title>
<ellipse fill="none" stroke="black" cx="701.945" cy="-162" rx="63.8893" ry="18"/>
<text text-anchor="middle" x="701.945" y="-158.3" font-family="Times New Roman,serif" font-size="14.00">Id: table_name</text>
</g>
<!-- Nodo11&#45;&gt;Nodo12 -->
<g id="edge8" class="edge"><title>Nodo11&#45;&gt;Nodo12</title>
<path fill="none" stroke="black" d="M984.304,-219.904C926.378,-209.751 844.975,-194.935 773.945,-180 768.967,-178.953 763.805,-177.823 758.636,-176.661"/>
<polygon fill="black" stroke="black" points="759.262,-173.214 748.734,-174.4 757.704,-180.039 759.262,-173.214"/>
</g>
<!-- Nodo13 -->
<g id="node10" class="node"><title>Nodo13</title>
<ellipse fill="none" stroke="black" cx="820.945" cy="-162" rx="37.8943" ry="18"/>
<text text-anchor="middle" x="820.945" y="-158.3" font-family="Times New Roman,serif" font-size="14.00">Campo</text>
</g>
<!-- Nodo11&#45;&gt;Nodo13 -->
<g id="edge9" class="edge"><title>Nodo11&#45;&gt;Nodo13</title>
<path fill="none" stroke="black" d="M1008.28,-217.638C964.264,-204.801 902.384,-186.753 861.981,-174.969"/>
<polygon fill="black" stroke="black" points="862.776,-171.555 852.196,-172.115 860.816,-178.275 862.776,-171.555"/>
</g>
<!-- Nodo17 -->
<g id="node14" class="node"><title>Nodo17</title>
<ellipse fill="none" stroke="black" cx="949.945" cy="-162" rx="37.8943" ry="18"/>
<text text-anchor="middle" x="949.945" y="-158.3" font-family="Times New Roman,serif" font-size="14.00">Campo</text>
</g>
<!-- Nodo11&#45;&gt;Nodo17 -->
<g id="edge13" class="edge"><title>Nodo11&#45;&gt;Nodo17</title>
<path fill="none" stroke="black" d="M1034.64,-216.411C1018.37,-206.151 997.423,-192.941 980.431,-182.225"/>
<polygon fill="black" stroke="black" points="982.277,-179.252 971.952,-176.878 978.543,-185.173 982.277,-179.252"/>
</g>
<!-- Nodo20 -->
<g id="node17" class="node"><title>Nodo20</title>
<ellipse fill="none" stroke="black" cx="1135.95" cy="-162" rx="37.8943" ry="18"/>
<text text-anchor="middle" x="1135.95" y="-158.3" font-family="Times New Roman,serif" font-size="14.00">Campo</text>
</g>
<!-- Nodo11&#45;&gt;Nodo20 -->
<g id="edge16" class="edge"><title>Nodo11&#45;&gt;Nodo20</title>
<path fill="none" stroke="black" d="M1079.1,-216.055C1089.01,-206.808 1101.4,-195.246 1112.08,-185.277"/>
<polygon fill="black" stroke="black" points="1114.57,-187.738 1119.49,-178.356 1109.79,-182.621 1114.57,-187.738"/>
</g>
<!-- Nodo14 -->
<g id="node11" class="node"><title>Nodo14</title>
<ellipse fill="none" stroke="black" cx="53.9452" cy="-90" rx="53.8905" ry="18"/>
<text text-anchor="middle" x="53.9452" y="-86.3" font-family="Times New Roman,serif" font-size="14.00">Id: column1</text>
</g>
<!-- Nodo13&#45;&gt;Nodo14 -->
<g id="edge10" class="edge"><title>Nodo13&#45;&gt;Nodo14</title>
<path fill="none" stroke="black" d="M793.609,-149.379C787.561,-147.238 781.115,-145.278 774.945,-144 488.156,-84.5719 406.128,-154.404 116.945,-108 112.163,-107.233 107.222,-106.248 102.307,-105.139"/>
<polygon fill="black" stroke="black" points="102.859,-101.671 92.3166,-102.719 101.212,-108.475 102.859,-101.671"/>
</g>
<!-- Nodo15 -->
<g id="node12" class="node"><title>Nodo15</title>
<ellipse fill="none" stroke="black" cx="239.945" cy="-90" rx="114.28" ry="18"/>
<text text-anchor="middle" x="239.945" y="-86.3" font-family="Times New Roman,serif" font-size="14.00">Tipo: Tipo_Dato.INTEGER</text>
</g>
<!-- Nodo13&#45;&gt;Nodo15 -->
<g id="edge11" class="edge"><title>Nodo13&#45;&gt;Nodo15</title>
<path fill="none" stroke="black" d="M793.576,-149.53C787.53,-147.38 781.093,-145.378 774.945,-144 595.59,-103.784 545.597,-128.589 362.945,-108 352.637,-106.838 341.858,-105.512 331.149,-104.125"/>
<polygon fill="black" stroke="black" points="331.293,-100.614 320.922,-102.78 330.38,-107.554 331.293,-100.614"/>
</g>
<!-- Nodo16 -->
<g id="node13" class="node"><title>Nodo16</title>
<ellipse fill="none" stroke="black" cx="531.945" cy="-90" rx="159.772" ry="18"/>
<text text-anchor="middle" x="531.945" y="-86.3" font-family="Times New Roman,serif" font-size="14.00">Tipo_Dato_Constraint.PRIMARY_KEY</text>
</g>
<!-- Nodo13&#45;&gt;Nodo16 -->
<g id="edge12" class="edge"><title>Nodo13&#45;&gt;Nodo16</title>
<path fill="none" stroke="black" d="M792.933,-149.943C787.042,-147.817 780.829,-145.72 774.945,-144 725.039,-129.413 668.319,-116.822 622.236,-107.577"/>
<polygon fill="black" stroke="black" points="622.761,-104.113 612.27,-105.597 621.396,-110.979 622.761,-104.113"/>
</g>
<!-- Nodo18 -->
<g id="node15" class="node"><title>Nodo18</title>
<ellipse fill="none" stroke="black" cx="763.945" cy="-90" rx="53.8905" ry="18"/>
<text text-anchor="middle" x="763.945" y="-86.3" font-family="Times New Roman,serif" font-size="14.00">Id: column2</text>
</g>
<!-- Nodo17&#45;&gt;Nodo18 -->
<g id="edge14" class="edge"><title>Nodo17&#45;&gt;Nodo18</title>
<path fill="none" stroke="black" d="M921.29,-150.216C891.018,-138.823 842.904,-120.716 807.844,-107.521"/>
<polygon fill="black" stroke="black" points="808.919,-104.186 798.327,-103.939 806.454,-110.738 808.919,-104.186"/>
</g>
<!-- Nodo19 -->
<g id="node16" class="node"><title>Nodo19</title>
<ellipse fill="none" stroke="black" cx="949.945" cy="-90" rx="114.28" ry="18"/>
<text text-anchor="middle" x="949.945" y="-86.3" font-family="Times New Roman,serif" font-size="14.00">Tipo: Tipo_Dato.INTEGER</text>
</g>
<!-- Nodo17&#45;&gt;Nodo19 -->
<g id="edge15" class="edge"><title>Nodo17&#45;&gt;Nodo19</title>
<path fill="none" stroke="black" d="M949.945,-143.697C949.945,-135.983 949.945,-126.712 949.945,-118.112"/>
<polygon fill="black" stroke="black" points="953.445,-118.104 949.945,-108.104 946.445,-118.104 953.445,-118.104"/>
</g>
<!-- Nodo21 -->
<g id="node18" class="node"><title>Nodo21</title>
<ellipse fill="none" stroke="black" cx="1135.95" cy="-90" rx="53.8905" ry="18"/>
<text text-anchor="middle" x="1135.95" y="-86.3" font-family="Times New Roman,serif" font-size="14.00">Id: column3</text>
</g>
<!-- Nodo20&#45;&gt;Nodo21 -->
<g id="edge17" class="edge"><title>Nodo20&#45;&gt;Nodo21</title>
<path fill="none" stroke="black" d="M1135.95,-143.697C1135.95,-135.983 1135.95,-126.712 1135.95,-118.112"/>
<polygon fill="black" stroke="black" points="1139.45,-118.104 1135.95,-108.104 1132.45,-118.104 1139.45,-118.104"/>
</g>
<!-- Nodo22 -->
<g id="node19" class="node"><title>Nodo22</title>
<ellipse fill="none" stroke="black" cx="1327.95" cy="-90" rx="119.679" ry="18"/>
<text text-anchor="middle" x="1327.95" y="-86.3" font-family="Times New Roman,serif" font-size="14.00">Tipo: Tipo_Dato.VARCHAR</text>
</g>
<!-- Nodo20&#45;&gt;Nodo22 -->
<g id="edge18" class="edge"><title>Nodo20&#45;&gt;Nodo22</title>
<path fill="none" stroke="black" d="M1165.11,-150.369C1194.16,-139.776 1239.43,-123.271 1274.87,-110.35"/>
<polygon fill="black" stroke="black" points="1276.39,-113.522 1284.59,-106.808 1273.99,-106.945 1276.39,-113.522"/>
</g>
<!-- Nodo24 -->
<g id="node21" class="node"><title>Nodo24</title>
<ellipse fill="none" stroke="black" cx="1873.95" cy="-162" rx="68.4888" ry="18"/>
<text text-anchor="middle" x="1873.95" y="-158.3" font-family="Times New Roman,serif" font-size="14.00">Id: table_name2</text>
</g>
<!-- Nodo23&#45;&gt;Nodo24 -->
<g id="edge20" class="edge"><title>Nodo23&#45;&gt;Nodo24</title>
<path fill="none" stroke="black" d="M2225.65,-221.756C2151.6,-212.088 2044.17,-197.036 1950.95,-180 1945.25,-178.959 1939.34,-177.799 1933.43,-176.586"/>
<polygon fill="black" stroke="black" points="1934.05,-173.139 1923.54,-174.509 1932.61,-179.99 1934.05,-173.139"/>
</g>
<!-- Nodo25 -->
<g id="node22" class="node"><title>Nodo25</title>
<ellipse fill="none" stroke="black" cx="1997.95" cy="-162" rx="37.8943" ry="18"/>
<text text-anchor="middle" x="1997.95" y="-158.3" font-family="Times New Roman,serif" font-size="14.00">Campo</text>
</g>
<!-- Nodo23&#45;&gt;Nodo25 -->
<g id="edge21" class="edge"><title>Nodo23&#45;&gt;Nodo25</title>
<path fill="none" stroke="black" d="M2250.83,-218.666C2188.35,-204.912 2095.74,-184.526 2041.64,-172.619"/>
<polygon fill="black" stroke="black" points="2042.2,-169.158 2031.68,-170.427 2040.7,-175.995 2042.2,-169.158"/>
</g>
<!-- Nodo29 -->
<g id="node26" class="node"><title>Nodo29</title>
<ellipse fill="none" stroke="black" cx="2315.95" cy="-162" rx="37.8943" ry="18"/>
<text text-anchor="middle" x="2315.95" y="-158.3" font-family="Times New Roman,serif" font-size="14.00">Campo</text>
</g>
<!-- Nodo23&#45;&gt;Nodo29 -->
<g id="edge25" class="edge"><title>Nodo23&#45;&gt;Nodo29</title>
<path fill="none" stroke="black" d="M2315.95,-215.697C2315.95,-207.983 2315.95,-198.712 2315.95,-190.112"/>
<polygon fill="black" stroke="black" points="2319.45,-190.104 2315.95,-180.104 2312.45,-190.104 2319.45,-190.104"/>
</g>
<!-- Nodo32 -->
<g id="node29" class="node"><title>Nodo32</title>
<ellipse fill="none" stroke="black" cx="2585.95" cy="-162" rx="37.8943" ry="18"/>
<text text-anchor="middle" x="2585.95" y="-158.3" font-family="Times New Roman,serif" font-size="14.00">Campo</text>
</g>
<!-- Nodo23&#45;&gt;Nodo32 -->
<g id="edge28" class="edge"><title>Nodo23&#45;&gt;Nodo32</title>
<path fill="none" stroke="black" d="M2373.54,-218.069C2424.51,-204.854 2497.71,-185.875 2543.51,-174.002"/>
<polygon fill="black" stroke="black" points="2544.61,-177.333 2553.41,-171.435 2542.85,-170.557 2544.61,-177.333"/>
</g>
<!-- Nodo26 -->
<g id="node23" class="node"><title>Nodo26</title>
<ellipse fill="none" stroke="black" cx="1519.95" cy="-90" rx="53.8905" ry="18"/>
<text text-anchor="middle" x="1519.95" y="-86.3" font-family="Times New Roman,serif" font-size="14.00">Id: column1</text>
</g>
<!-- Nodo25&#45;&gt;Nodo26 -->
<g id="edge22" class="edge"><title>Nodo25&#45;&gt;Nodo26</title>
<path fill="none" stroke="black" d="M1969.95,-149.587C1963.78,-147.433 1957.21,-145.416 1950.95,-144 1790.65,-107.77 1744.61,-137.508 1582.95,-108 1578.25,-107.142 1573.39,-106.106 1568.55,-104.974"/>
<polygon fill="black" stroke="black" points="1569.25,-101.541 1558.7,-102.54 1567.57,-108.337 1569.25,-101.541"/>
</g>
<!-- Nodo27 -->
<g id="node24" class="node"><title>Nodo27</title>
<ellipse fill="none" stroke="black" cx="1705.95" cy="-90" rx="114.28" ry="18"/>
<text text-anchor="middle" x="1705.95" y="-86.3" font-family="Times New Roman,serif" font-size="14.00">Tipo: Tipo_Dato.INTEGER</text>
</g>
<!-- Nodo25&#45;&gt;Nodo27 -->
<g id="edge23" class="edge"><title>Nodo25&#45;&gt;Nodo27</title>
<path fill="none" stroke="black" d="M1969.31,-149.954C1963.29,-147.827 1956.95,-145.727 1950.95,-144 1897.35,-128.587 1836.03,-115.325 1788.14,-105.922"/>
<polygon fill="black" stroke="black" points="1788.62,-102.45 1778.14,-103.975 1787.28,-109.321 1788.62,-102.45"/>
</g>
<!-- Nodo28 -->
<g id="node25" class="node"><title>Nodo28</title>
<ellipse fill="none" stroke="black" cx="1997.95" cy="-90" rx="159.772" ry="18"/>
<text text-anchor="middle" x="1997.95" y="-86.3" font-family="Times New Roman,serif" font-size="14.00">Tipo_Dato_Constraint.PRIMARY_KEY</text>
</g>
<!-- Nodo25&#45;&gt;Nodo28 -->
<g id="edge24" class="edge"><title>Nodo25&#45;&gt;Nodo28</title>
<path fill="none" stroke="black" d="M1997.95,-143.697C1997.95,-135.983 1997.95,-126.712 1997.95,-118.112"/>
<polygon fill="black" stroke="black" points="2001.45,-118.104 1997.95,-108.104 1994.45,-118.104 2001.45,-118.104"/>
</g>
<!-- Nodo30 -->
<g id="node27" class="node"><title>Nodo30</title>
<ellipse fill="none" stroke="black" cx="2229.95" cy="-90" rx="53.8905" ry="18"/>
<text text-anchor="middle" x="2229.95" y="-86.3" font-family="Times New Roman,serif" font-size="14.00">Id: column2</text>
</g>
<!-- Nodo29&#45;&gt;Nodo30 -->
<g id="edge26" class="edge"><title>Nodo29&#45;&gt;Nodo30</title>
<path fill="none" stroke="black" d="M2297.71,-146.155C2285.95,-136.583 2270.44,-123.961 2257.23,-113.207"/>
<polygon fill="black" stroke="black" points="2259.32,-110.395 2249.35,-106.797 2254.9,-115.824 2259.32,-110.395"/>
</g>
<!-- Nodo31 -->
<g id="node28" class="node"><title>Nodo31</title>
<ellipse fill="none" stroke="black" cx="2415.95" cy="-90" rx="114.28" ry="18"/>
<text text-anchor="middle" x="2415.95" y="-86.3" font-family="Times New Roman,serif" font-size="14.00">Tipo: Tipo_Dato.INTEGER</text>
</g>
<!-- Nodo29&#45;&gt;Nodo31 -->
<g id="edge27" class="edge"><title>Nodo29&#45;&gt;Nodo31</title>
<path fill="none" stroke="black" d="M2336.67,-146.496C2350.28,-136.968 2368.36,-124.31 2383.82,-113.49"/>
<polygon fill="black" stroke="black" points="2385.9,-116.301 2392.09,-107.699 2381.89,-110.566 2385.9,-116.301"/>
</g>
<!-- Nodo33 -->
<g id="node30" class="node"><title>Nodo33</title>
<ellipse fill="none" stroke="black" cx="2601.95" cy="-90" rx="53.8905" ry="18"/>
<text text-anchor="middle" x="2601.95" y="-86.3" font-family="Times New Roman,serif" font-size="14.00">Id: column3</text>
</g>
<!-- Nodo32&#45;&gt;Nodo33 -->
<g id="edge29" class="edge"><title>Nodo32&#45;&gt;Nodo33</title>
<path fill="none" stroke="black" d="M2589.82,-144.055C2591.6,-136.261 2593.76,-126.822 2595.76,-118.079"/>
<polygon fill="black" stroke="black" points="2599.18,-118.804 2598,-108.275 2592.36,-117.244 2599.18,-118.804"/>
</g>
<!-- Nodo34 -->
<g id="node31" class="node"><title>Nodo34</title>
<ellipse fill="none" stroke="black" cx="2793.95" cy="-90" rx="119.679" ry="18"/>
<text text-anchor="middle" x="2793.95" y="-86.3" font-family="Times New Roman,serif" font-size="14.00">Tipo: Tipo_Dato.VARCHAR</text>
</g>
<!-- Nodo32&#45;&gt;Nodo34 -->
<g id="edge30" class="edge"><title>Nodo32&#45;&gt;Nodo34</title>
<path fill="none" stroke="black" d="M2614.59,-150.222C2620.33,-148.119 2626.32,-145.96 2631.95,-144 2665.99,-132.145 2704.31,-119.572 2735.14,-109.648"/>
<polygon fill="black" stroke="black" points="2736.42,-112.914 2744.87,-106.523 2734.28,-106.249 2736.42,-112.914"/>
</g>
<!-- Nodo37 -->
<g id="node34" class="node"><title>Nodo37</title>
<ellipse fill="none" stroke="black" cx="2717.95" cy="-162" rx="76.8869" ry="18"/>
<text text-anchor="middle" x="2717.95" y="-158.3" font-family="Times New Roman,serif" font-size="14.00">Table: table_name</text>
</g>
<!-- Nodo36&#45;&gt;Nodo37 -->
<g id="edge33" class="edge"><title>Nodo36&#45;&gt;Nodo37</title>
<path fill="none" stroke="black" d="M2827.01,-216.765C2806.65,-206.728 2780.36,-193.769 2758.7,-183.088"/>
<polygon fill="black" stroke="black" points="2760.24,-179.948 2749.72,-178.666 2757.15,-186.227 2760.24,-179.948"/>
</g>
<!-- Nodo38 -->
<g id="node35" class="node"><title>Nodo38</title>
<ellipse fill="none" stroke="black" cx="2859.95" cy="-162" rx="47.3916" ry="18"/>
<text text-anchor="middle" x="2859.95" y="-158.3" font-family="Times New Roman,serif" font-size="14.00">Columnas</text>
</g>
<!-- Nodo36&#45;&gt;Nodo38 -->
<g id="edge34" class="edge"><title>Nodo36&#45;&gt;Nodo38</title>
<path fill="none" stroke="black" d="M2859.95,-215.697C2859.95,-207.983 2859.95,-198.712 2859.95,-190.112"/>
<polygon fill="black" stroke="black" points="2863.45,-190.104 2859.95,-180.104 2856.45,-190.104 2863.45,-190.104"/>
</g>
<!-- Nodo39 -->
<g id="node36" class="node"><title>Nodo39</title>
<ellipse fill="none" stroke="black" cx="2956.95" cy="-162" rx="31.3957" ry="18"/>
<text text-anchor="middle" x="2956.95" y="-158.3" font-family="Times New Roman,serif" font-size="14.00">Value</text>
</g>
<!-- Nodo36&#45;&gt;Nodo39 -->
<g id="edge35" class="edge"><title>Nodo36&#45;&gt;Nodo39</title>
<path fill="none" stroke="black" d="M2883.43,-216.055C2897.49,-205.908 2915.41,-192.972 2930.04,-182.415"/>
<polygon fill="black" stroke="black" points="2932.16,-185.202 2938.22,-176.512 2928.06,-179.526 2932.16,-185.202"/>
</g>
<!-- Nodo78 -->
<g id="node37" class="node"><title>Nodo78</title>
<ellipse fill="none" stroke="black" cx="2958.95" cy="-90" rx="27" ry="18"/>
<text text-anchor="middle" x="2958.95" y="-86.3" font-family="Times New Roman,serif" font-size="14.00">1</text>
</g>
<!-- Nodo39&#45;&gt;Nodo78 -->
<g id="edge36" class="edge"><title>Nodo39&#45;&gt;Nodo78</title>
<path fill="none" stroke="black" d="M2957.44,-143.697C2957.66,-135.983 2957.92,-126.712 2958.17,-118.112"/>
<polygon fill="black" stroke="black" points="2961.67,-118.2 2958.46,-108.104 2954.67,-118 2961.67,-118.2"/>
</g>
<!-- Nodo156 -->
<g id="node38" class="node"><title>Nodo156</title>
<ellipse fill="none" stroke="black" cx="3030.95" cy="-90" rx="27" ry="18"/>
<text text-anchor="middle" x="3030.95" y="-86.3" font-family="Times New Roman,serif" font-size="14.00">4</text>
</g>
<!-- Nodo39&#45;&gt;Nodo156 -->
<g id="edge37" class="edge"><title>Nodo39&#45;&gt;Nodo156</title>
<path fill="none" stroke="black" d="M2972.64,-146.155C2983.05,-136.307 2996.87,-123.231 3008.45,-112.282"/>
<polygon fill="black" stroke="black" points="3011.17,-114.522 3016.03,-105.108 3006.36,-109.437 3011.17,-114.522"/>
</g>
<!-- Nodo312 -->
<g id="node39" class="node"><title>Nodo312</title>
<ellipse fill="none" stroke="black" cx="3139.95" cy="-90" rx="64.189" ry="18"/>
<text text-anchor="middle" x="3139.95" y="-86.3" font-family="Times New Roman,serif" font-size="14.00">hola mundo :D</text>
</g>
<!-- Nodo39&#45;&gt;Nodo312 -->
<g id="edge38" class="edge"><title>Nodo39&#45;&gt;Nodo312</title>
<path fill="none" stroke="black" d="M2981.41,-150.388C2986.52,-148.23 2991.9,-146.007 2996.95,-144 3028.53,-131.444 3064.39,-118.154 3092.3,-108.023"/>
<polygon fill="black" stroke="black" points="3093.61,-111.272 3101.82,-104.578 3091.23,-104.69 3093.61,-111.272"/>
</g>
<!-- Nodo314 -->
<g id="node41" class="node"><title>Nodo314</title>
<ellipse fill="none" stroke="black" cx="3082.95" cy="-162" rx="76.8869" ry="18"/>
<text text-anchor="middle" x="3082.95" y="-158.3" font-family="Times New Roman,serif" font-size="14.00">Table: table_name</text>
</g>
<!-- Nodo313&#45;&gt;Nodo314 -->
<g id="edge40" class="edge"><title>Nodo313&#45;&gt;Nodo314</title>
<path fill="none" stroke="black" d="M3163.82,-216.411C3149.6,-207.016 3131.62,-195.146 3116.23,-184.983"/>
<polygon fill="black" stroke="black" points="3117.79,-181.818 3107.52,-179.228 3113.94,-187.66 3117.79,-181.818"/>
</g>
<!-- Nodo315 -->
<g id="node42" class="node"><title>Nodo315</title>
<ellipse fill="none" stroke="black" cx="3224.95" cy="-162" rx="47.3916" ry="18"/>
<text text-anchor="middle" x="3224.95" y="-158.3" font-family="Times New Roman,serif" font-size="14.00">Columnas</text>
</g>
<!-- Nodo313&#45;&gt;Nodo315 -->
<g id="edge41" class="edge"><title>Nodo313&#45;&gt;Nodo315</title>
<path fill="none" stroke="black" d="M3197.84,-215.697C3201.94,-207.728 3206.89,-198.1 3211.44,-189.264"/>
<polygon fill="black" stroke="black" points="3214.69,-190.598 3216.15,-180.104 3208.46,-187.396 3214.69,-190.598"/>
</g>
<!-- Nodo316 -->
<g id="node43" class="node"><title>Nodo316</title>
<ellipse fill="none" stroke="black" cx="3321.95" cy="-162" rx="31.3957" ry="18"/>
<text text-anchor="middle" x="3321.95" y="-158.3" font-family="Times New Roman,serif" font-size="14.00">Value</text>
</g>
<!-- Nodo313&#45;&gt;Nodo316 -->
<g id="edge42" class="edge"><title>Nodo313&#45;&gt;Nodo316</title>
<path fill="none" stroke="black" d="M3220.13,-216.588C3241.4,-205.394 3269.45,-190.627 3290.73,-179.429"/>
<polygon fill="black" stroke="black" points="3292.47,-182.471 3299.69,-174.716 3289.21,-176.276 3292.47,-182.471"/>
</g>
<!-- Nodo632 -->
<g id="node44" class="node"><title>Nodo632</title>
<ellipse fill="none" stroke="black" cx="3249.95" cy="-90" rx="27" ry="18"/>
<text text-anchor="middle" x="3249.95" y="-86.3" font-family="Times New Roman,serif" font-size="14.00">2</text>
</g>
<!-- Nodo316&#45;&gt;Nodo632 -->
<g id="edge43" class="edge"><title>Nodo316&#45;&gt;Nodo632</title>
<path fill="none" stroke="black" d="M3306.68,-146.155C3296.61,-136.372 3283.27,-123.404 3272.06,-112.5"/>
<polygon fill="black" stroke="black" points="3274.31,-109.806 3264.7,-105.345 3269.43,-114.825 3274.31,-109.806"/>
</g>
<!-- Nodo1264 -->
<g id="node45" class="node"><title>Nodo1264</title>
<ellipse fill="none" stroke="black" cx="3321.95" cy="-90" rx="27" ry="18"/>
<text text-anchor="middle" x="3321.95" y="-86.3" font-family="Times New Roman,serif" font-size="14.00">412</text>
</g>
<!-- Nodo316&#45;&gt;Nodo1264 -->
<g id="edge44" class="edge"><title>Nodo316&#45;&gt;Nodo1264</title>
<path fill="none" stroke="black" d="M3321.95,-143.697C3321.95,-135.983 3321.95,-126.712 3321.95,-118.112"/>
<polygon fill="black" stroke="black" points="3325.45,-118.104 3321.95,-108.104 3318.45,-118.104 3325.45,-118.104"/>
</g>
<!-- Nodo2528 -->
<g id="node46" class="node"><title>Nodo2528</title>
<ellipse fill="none" stroke="black" cx="3426.95" cy="-90" rx="60.3893" ry="18"/>
<text text-anchor="middle" x="3426.95" y="-86.3" font-family="Times New Roman,serif" font-size="14.00">hola mundo 2</text>
</g>
<!-- Nodo316&#45;&gt;Nodo2528 -->
<g id="edge45" class="edge"><title>Nodo316&#45;&gt;Nodo2528</title>
<path fill="none" stroke="black" d="M3341.69,-147.834C3356.57,-137.918 3377.28,-124.111 3394.56,-112.588"/>
<polygon fill="black" stroke="black" points="3396.86,-115.263 3403.24,-106.803 3392.98,-109.438 3396.86,-115.263"/>
</g>
<!-- Nodo10112 -->
<g id="node48" class="node"><title>Nodo10112</title>
<ellipse fill="none" stroke="black" cx="3410.95" cy="-162" rx="40.0939" ry="18"/>
<text text-anchor="middle" x="3410.95" y="-158.3" font-family="Times New Roman,serif" font-size="14.00">ALL (*)</text>
</g>
<!-- Nodo5056&#45;&gt;Nodo10112 -->
<g id="edge47" class="edge"><title>Nodo5056&#45;&gt;Nodo10112</title>
<path fill="none" stroke="black" d="M3438.23,-216.055C3434.03,-207.887 3428.9,-197.912 3424.23,-188.824"/>
<polygon fill="black" stroke="black" points="3427.27,-187.081 3419.58,-179.789 3421.04,-190.283 3427.27,-187.081"/>
</g>
<!-- Nodo20224 -->
<g id="node49" class="node"><title>Nodo20224</title>
<ellipse fill="none" stroke="black" cx="3505.95" cy="-162" rx="37.0935" ry="18"/>
<text text-anchor="middle" x="3505.95" y="-158.3" font-family="Times New Roman,serif" font-size="14.00">FROM</text>
</g>
<!-- Nodo5056&#45;&gt;Nodo20224 -->
<g id="edge48" class="edge"><title>Nodo5056&#45;&gt;Nodo20224</title>
<path fill="none" stroke="black" d="M3461.23,-216.055C3468.69,-207.204 3477.94,-196.231 3486.08,-186.566"/>
<polygon fill="black" stroke="black" points="3488.83,-188.731 3492.6,-178.829 3483.48,-184.22 3488.83,-188.731"/>
</g>
<!-- Nodo40448 -->
<g id="node50" class="node"><title>Nodo40448</title>
<ellipse fill="none" stroke="black" cx="3612.95" cy="-162" rx="51.9908" ry="18"/>
<text text-anchor="middle" x="3612.95" y="-158.3" font-family="Times New Roman,serif" font-size="14.00">table_name</text>
</g>
<!-- Nodo5056&#45;&gt;Nodo40448 -->
<g id="edge49" class="edge"><title>Nodo5056&#45;&gt;Nodo40448</title>
<path fill="none" stroke="black" d="M3482.56,-217.983C3508.8,-206.915 3544.56,-191.837 3571.99,-180.27"/>
<polygon fill="black" stroke="black" points="3573.46,-183.448 3581.32,-176.338 3570.74,-176.998 3573.46,-183.448"/>
</g>
<!-- Nodo161792 -->
<g id="node52" class="node"><title>Nodo161792</title>
<ellipse fill="none" stroke="black" cx="3724.95" cy="-162" rx="42.4939" ry="18"/>
<text text-anchor="middle" x="3724.95" y="-158.3" font-family="Times New Roman,serif" font-size="14.00">column1</text>
</g>
<!-- Nodo80896&#45;&gt;Nodo161792 -->
<g id="edge51" class="edge"><title>Nodo80896&#45;&gt;Nodo161792</title>
<path fill="none" stroke="black" d="M3931.83,-220.669C3889.41,-210.549 3828.57,-195.421 3775.95,-180 3772.81,-179.081 3769.58,-178.096 3766.34,-177.08"/>
<polygon fill="black" stroke="black" points="3767.25,-173.698 3756.66,-173.972 3765.11,-180.363 3767.25,-173.698"/>
</g>
<!-- Nodo323584 -->
<g id="node53" class="node"><title>Nodo323584</title>
<ellipse fill="none" stroke="black" cx="3821.95" cy="-162" rx="37.0935" ry="18"/>
<text text-anchor="middle" x="3821.95" y="-158.3" font-family="Times New Roman,serif" font-size="14.00">FROM</text>
</g>
<!-- Nodo80896&#45;&gt;Nodo323584 -->
<g id="edge52" class="edge"><title>Nodo80896&#45;&gt;Nodo323584</title>
<path fill="none" stroke="black" d="M3949.58,-217.811C3922.44,-206.157 3885.13,-190.134 3857.86,-178.422"/>
<polygon fill="black" stroke="black" points="3859.23,-175.203 3848.66,-174.473 3856.47,-181.635 3859.23,-175.203"/>
</g>
<!-- Nodo647168 -->
<g id="node54" class="node"><title>Nodo647168</title>
<ellipse fill="none" stroke="black" cx="3928.95" cy="-162" rx="51.9908" ry="18"/>
<text text-anchor="middle" x="3928.95" y="-158.3" font-family="Times New Roman,serif" font-size="14.00">table_name</text>
</g>
<!-- Nodo80896&#45;&gt;Nodo647168 -->
<g id="edge53" class="edge"><title>Nodo80896&#45;&gt;Nodo647168</title>
<path fill="none" stroke="black" d="M3971.39,-216.055C3964.58,-207.543 3956.2,-197.068 3948.69,-187.681"/>
<polygon fill="black" stroke="black" points="3951.36,-185.411 3942.38,-179.789 3945.89,-189.784 3951.36,-185.411"/>
</g>
<!-- Nodo1294336 -->
<g id="node55" class="node"><title>Nodo1294336</title>
<ellipse fill="none" stroke="black" cx="4041.95" cy="-162" rx="42.7926" ry="18"/>
<text text-anchor="middle" x="4041.95" y="-158.3" font-family="Times New Roman,serif" font-size="14.00">WHERE</text>
</g>
<!-- Nodo80896&#45;&gt;Nodo1294336 -->
<g id="edge54" class="edge"><title>Nodo80896&#45;&gt;Nodo1294336</title>
<path fill="none" stroke="black" d="M3998.74,-216.055C4005.78,-207.418 4014.46,-196.76 4022.18,-187.268"/>
<polygon fill="black" stroke="black" points="4025.07,-189.271 4028.67,-179.307 4019.64,-184.851 4025.07,-189.271"/>
</g>
<!-- Nodo2588672 -->
<g id="node56" class="node"><title>Nodo2588672</title>
<ellipse fill="none" stroke="black" cx="4207.95" cy="-162" rx="104.782" ry="18"/>
<text text-anchor="middle" x="4207.95" y="-158.3" font-family="Times New Roman,serif" font-size="14.00">Operaciones Matematicas</text>
</g>
<!-- Nodo80896&#45;&gt;Nodo2588672 -->
<g id="edge55" class="edge"><title>Nodo80896&#45;&gt;Nodo2588672</title>
<path fill="none" stroke="black" d="M4029.27,-219.087C4063.9,-208.216 4112.31,-193.019 4150.01,-181.186"/>
<polygon fill="black" stroke="black" points="4151.35,-184.434 4159.84,-178.1 4149.25,-177.755 4151.35,-184.434"/>
</g>
<!-- Nodo331350016 -->
<g id="node63" class="node"><title>Nodo331350016</title>
<ellipse fill="none" stroke="black" cx="4365.95" cy="-162" rx="35.9954" ry="18"/>
<text text-anchor="middle" x="4365.95" y="-158.3" font-family="Times New Roman,serif" font-size="14.00">LIMIT</text>
</g>
<!-- Nodo80896&#45;&gt;Nodo331350016 -->
<g id="edge62" class="edge"><title>Nodo80896&#45;&gt;Nodo331350016</title>
<path fill="none" stroke="black" d="M4055.56,-226.315C4124.38,-218.77 4231.57,-204.269 4321.95,-180 4324.53,-179.307 4327.16,-178.515 4329.8,-177.659"/>
<polygon fill="black" stroke="black" points="4330.97,-180.958 4339.25,-174.352 4328.66,-174.351 4330.97,-180.958"/>
</g>
<!-- Nodo662700032 -->
<g id="node64" class="node"><title>Nodo662700032</title>
<ellipse fill="none" stroke="black" cx="4446.95" cy="-162" rx="27" ry="18"/>
<text text-anchor="middle" x="4446.95" y="-158.3" font-family="Times New Roman,serif" font-size="14.00">4</text>
</g>
<!-- Nodo80896&#45;&gt;Nodo662700032 -->
<g id="edge63" class="edge"><title>Nodo80896&#45;&gt;Nodo662700032</title>
<path fill="none" stroke="black" d="M4061.83,-230.741C4148.28,-226.532 4292.13,-214.485 4410.95,-180 4412.89,-179.436 4414.85,-178.78 4416.82,-178.059"/>
<polygon fill="black" stroke="black" points="4418.56,-181.125 4426.44,-174.048 4415.87,-174.663 4418.56,-181.125"/>
</g>
<!-- Nodo5177344 -->
<g id="node57" class="node"><title>Nodo5177344</title>
<ellipse fill="none" stroke="black" cx="3961.95" cy="-90" rx="48.1917" ry="18"/>
<text text-anchor="middle" x="3961.95" y="-86.3" font-family="Times New Roman,serif" font-size="14.00">Relacional</text>
</g>
<!-- Nodo2588672&#45;&gt;Nodo5177344 -->
<g id="edge56" class="edge"><title>Nodo2588672&#45;&gt;Nodo5177344</title>
<path fill="none" stroke="black" d="M4154.93,-146.383C4117,-135.867 4064.78,-121.259 4018.95,-108 4015.36,-106.963 4011.65,-105.881 4007.93,-104.786"/>
<polygon fill="black" stroke="black" points="4008.68,-101.359 3998.1,-101.881 4006.7,-108.072 4008.68,-101.359"/>
</g>
<!-- Nodo10354688 -->
<g id="node58" class="node"><title>Nodo10354688</title>
<ellipse fill="none" stroke="black" cx="4132.95" cy="-90" rx="104.782" ry="18"/>
<text text-anchor="middle" x="4132.95" y="-86.3" font-family="Times New Roman,serif" font-size="14.00">Operaciones Matematicas</text>
</g>
<!-- Nodo2588672&#45;&gt;Nodo10354688 -->
<g id="edge57" class="edge"><title>Nodo2588672&#45;&gt;Nodo10354688</title>
<path fill="none" stroke="black" d="M4189.79,-144.055C4180.39,-135.285 4168.76,-124.432 4158.48,-114.831"/>
<polygon fill="black" stroke="black" points="4160.63,-112.054 4150.93,-107.789 4155.86,-117.171 4160.63,-112.054"/>
</g>
<!-- Nodo20709376 -->
<g id="node59" class="node"><title>Nodo20709376</title>
<ellipse fill="none" stroke="black" cx="4282.95" cy="-90" rx="27" ry="18"/>
<text text-anchor="middle" x="4282.95" y="-86.3" font-family="Times New Roman,serif" font-size="14.00">=</text>
</g>
<!-- Nodo2588672&#45;&gt;Nodo20709376 -->
<g id="edge58" class="edge"><title>Nodo2588672&#45;&gt;Nodo20709376</title>
<path fill="none" stroke="black" d="M4226.1,-144.055C4236.29,-134.548 4249.1,-122.593 4259.98,-112.439"/>
<polygon fill="black" stroke="black" points="4262.57,-114.806 4267.49,-105.424 4257.79,-109.689 4262.57,-114.806"/>
</g>
<!-- Nodo41418752 -->
<g id="node60" class="node"><title>Nodo41418752</title>
<ellipse fill="none" stroke="black" cx="4432.95" cy="-90" rx="104.782" ry="18"/>
<text text-anchor="middle" x="4432.95" y="-86.3" font-family="Times New Roman,serif" font-size="14.00">Operaciones Matematicas</text>
</g>
<!-- Nodo2588672&#45;&gt;Nodo41418752 -->
<g id="edge59" class="edge"><title>Nodo2588672&#45;&gt;Nodo41418752</title>
<path fill="none" stroke="black" d="M4256.21,-145.983C4291.06,-135.141 4338.28,-120.452 4375.14,-108.984"/>
<polygon fill="black" stroke="black" points="4376.25,-112.305 4384.76,-105.992 4374.17,-105.621 4376.25,-112.305"/>
</g>
<!-- Nodo82837504 -->
<g id="node61" class="node"><title>Nodo82837504</title>
<ellipse fill="none" stroke="black" cx="4387.95" cy="-18" rx="43.5923" ry="18"/>
<text text-anchor="middle" x="4387.95" y="-14.3" font-family="Times New Roman,serif" font-size="14.00">Primitivo</text>
</g>
<!-- Nodo41418752&#45;&gt;Nodo82837504 -->
<g id="edge60" class="edge"><title>Nodo41418752&#45;&gt;Nodo82837504</title>
<path fill="none" stroke="black" d="M4422.05,-72.055C4416.69,-63.7147 4410.12,-53.4908 4404.18,-44.2517"/>
<polygon fill="black" stroke="black" points="4407.09,-42.3081 4398.74,-35.789 4401.2,-46.0935 4407.09,-42.3081"/>
</g>
<!-- Nodo165675008 -->
<g id="node62" class="node"><title>Nodo165675008</title>
<ellipse fill="none" stroke="black" cx="4476.95" cy="-18" rx="27" ry="18"/>
<text text-anchor="middle" x="4476.95" y="-14.3" font-family="Times New Roman,serif" font-size="14.00">1</text>
</g>
<!-- Nodo41418752&#45;&gt;Nodo165675008 -->
<g id="edge61" class="edge"><title>Nodo41418752&#45;&gt;Nodo165675008</title>
<path fill="none" stroke="black" d="M4443.6,-72.055C4448.99,-63.4694 4455.64,-52.8877 4461.58,-43.4391"/>
<polygon fill="black" stroke="black" points="4464.64,-45.1584 4467,-34.8294 4458.71,-41.4332 4464.64,-45.1584"/>
</g>
<!-- Nodo2650800128 -->
<g id="node66" class="node"><title>Nodo2650800128</title>
<ellipse fill="none" stroke="black" cx="4533.95" cy="-162" rx="42.4939" ry="18"/>
<text text-anchor="middle" x="4533.95" y="-158.3" font-family="Times New Roman,serif" font-size="14.00">column1</text>
</g>
<!-- Nodo1325400064&#45;&gt;Nodo2650800128 -->
<g id="edge65" class="edge"><title>Nodo1325400064&#45;&gt;Nodo2650800128</title>
<path fill="none" stroke="black" d="M4691.71,-218.496C4657.62,-206.505 4609.44,-189.557 4575.32,-177.553"/>
<polygon fill="black" stroke="black" points="4576.24,-174.168 4565.65,-174.152 4573.92,-180.772 4576.24,-174.168"/>
</g>
<!-- Nodo5301600256 -->
<g id="node67" class="node"><title>Nodo5301600256</title>
<ellipse fill="none" stroke="black" cx="4635.95" cy="-162" rx="42.4939" ry="18"/>
<text text-anchor="middle" x="4635.95" y="-158.3" font-family="Times New Roman,serif" font-size="14.00">column2</text>
</g>
<!-- Nodo1325400064&#45;&gt;Nodo5301600256 -->
<g id="edge66" class="edge"><title>Nodo1325400064&#45;&gt;Nodo5301600256</title>
<path fill="none" stroke="black" d="M4710.45,-216.765C4696.88,-206.974 4679.46,-194.401 4664.87,-183.876"/>
<polygon fill="black" stroke="black" points="4666.82,-180.966 4656.66,-177.952 4662.73,-186.642 4666.82,-180.966"/>
</g>
<!-- Nodo10603200512 -->
<g id="node68" class="node"><title>Nodo10603200512</title>
<ellipse fill="none" stroke="black" cx="4732.95" cy="-162" rx="37.0935" ry="18"/>
<text text-anchor="middle" x="4732.95" y="-158.3" font-family="Times New Roman,serif" font-size="14.00">FROM</text>
</g>
<!-- Nodo1325400064&#45;&gt;Nodo10603200512 -->
<g id="edge67" class="edge"><title>Nodo1325400064&#45;&gt;Nodo10603200512</title>
<path fill="none" stroke="black" d="M4732.95,-215.697C4732.95,-207.983 4732.95,-198.712 4732.95,-190.112"/>
<polygon fill="black" stroke="black" points="4736.45,-190.104 4732.95,-180.104 4729.45,-190.104 4736.45,-190.104"/>
</g>
<!-- Nodo21206401024 -->
<g id="node69" class="node"><title>Nodo21206401024</title>
<ellipse fill="none" stroke="black" cx="4839.95" cy="-162" rx="51.9908" ry="18"/>
<text text-anchor="middle" x="4839.95" y="-158.3" font-family="Times New Roman,serif" font-size="14.00">table_name</text>
</g>
<!-- Nodo1325400064&#45;&gt;Nodo21206401024 -->
<g id="edge68" class="edge"><title>Nodo1325400064&#45;&gt;Nodo21206401024</title>
<path fill="none" stroke="black" d="M4757.76,-216.765C4772.76,-206.95 4792.04,-194.341 4808.15,-183.801"/>
<polygon fill="black" stroke="black" points="4810.28,-186.593 4816.73,-178.189 4806.44,-180.735 4810.28,-186.593"/>
</g>
<!-- Nodo42412802048 -->
<g id="node70" class="node"><title>Nodo42412802048</title>
<ellipse fill="none" stroke="black" cx="4952.95" cy="-162" rx="42.7926" ry="18"/>
<text text-anchor="middle" x="4952.95" y="-158.3" font-family="Times New Roman,serif" font-size="14.00">WHERE</text>
</g>
<!-- Nodo1325400064&#45;&gt;Nodo42412802048 -->
<g id="edge69" class="edge"><title>Nodo1325400064&#45;&gt;Nodo42412802048</title>
<path fill="none" stroke="black" d="M4777.2,-219.176C4811.1,-208.554 4859.01,-193.468 4900.95,-180 4904.07,-178.998 4907.29,-177.957 4910.53,-176.906"/>
<polygon fill="black" stroke="black" points="4911.8,-180.173 4920.23,-173.753 4909.64,-173.516 4911.8,-180.173"/>
</g>
<!-- Nodo84825604096 -->
<g id="node71" class="node"><title>Nodo84825604096</title>
<ellipse fill="none" stroke="black" cx="5118.95" cy="-162" rx="104.782" ry="18"/>
<text text-anchor="middle" x="5118.95" y="-158.3" font-family="Times New Roman,serif" font-size="14.00">Operaciones Matematicas</text>
</g>
<!-- Nodo1325400064&#45;&gt;Nodo84825604096 -->
<g id="edge70" class="edge"><title>Nodo1325400064&#45;&gt;Nodo84825604096</title>
<path fill="none" stroke="black" d="M4792.41,-222.216C4858.66,-210.202 4966.08,-190.722 5039.49,-177.409"/>
<polygon fill="black" stroke="black" points="5040.4,-180.801 5049.62,-175.573 5039.15,-173.913 5040.4,-180.801"/>
</g>
<!-- Nodo169651208192 -->
<g id="node72" class="node"><title>Nodo169651208192</title>
<ellipse fill="none" stroke="black" cx="4872.95" cy="-90" rx="48.1917" ry="18"/>
<text text-anchor="middle" x="4872.95" y="-86.3" font-family="Times New Roman,serif" font-size="14.00">Relacional</text>
</g>
<!-- Nodo84825604096&#45;&gt;Nodo169651208192 -->
<g id="edge71" class="edge"><title>Nodo84825604096&#45;&gt;Nodo169651208192</title>
<path fill="none" stroke="black" d="M5065.93,-146.383C5028,-135.867 4975.78,-121.259 4929.95,-108 4926.36,-106.963 4922.65,-105.881 4918.93,-104.786"/>
<polygon fill="black" stroke="black" points="4919.68,-101.359 4909.1,-101.881 4917.7,-108.072 4919.68,-101.359"/>
</g>
<!-- Nodo339302416384 -->
<g id="node73" class="node"><title>Nodo339302416384</title>
<ellipse fill="none" stroke="black" cx="5043.95" cy="-90" rx="104.782" ry="18"/>
<text text-anchor="middle" x="5043.95" y="-86.3" font-family="Times New Roman,serif" font-size="14.00">Operaciones Matematicas</text>
</g>
<!-- Nodo84825604096&#45;&gt;Nodo339302416384 -->
<g id="edge72" class="edge"><title>Nodo84825604096&#45;&gt;Nodo339302416384</title>
<path fill="none" stroke="black" d="M5100.79,-144.055C5091.39,-135.285 5079.76,-124.432 5069.48,-114.831"/>
<polygon fill="black" stroke="black" points="5071.63,-112.054 5061.93,-107.789 5066.86,-117.171 5071.63,-112.054"/>
</g>
<!-- Nodo678604832768 -->
<g id="node74" class="node"><title>Nodo678604832768</title>
<ellipse fill="none" stroke="black" cx="5193.95" cy="-90" rx="27" ry="18"/>
<text text-anchor="middle" x="5193.95" y="-86.3" font-family="Times New Roman,serif" font-size="14.00">=</text>
</g>
<!-- Nodo84825604096&#45;&gt;Nodo678604832768 -->
<g id="edge73" class="edge"><title>Nodo84825604096&#45;&gt;Nodo678604832768</title>
<path fill="none" stroke="black" d="M5137.1,-144.055C5147.29,-134.548 5160.1,-122.593 5170.98,-112.439"/>
<polygon fill="black" stroke="black" points="5173.57,-114.806 5178.49,-105.424 5168.79,-109.689 5173.57,-114.806"/>
</g>
<!-- Nodo1357209665536 -->
<g id="node75" class="node"><title>Nodo1357209665536</title>
<ellipse fill="none" stroke="black" cx="5343.95" cy="-90" rx="104.782" ry="18"/>
<text text-anchor="middle" x="5343.95" y="-86.3" font-family="Times New Roman,serif" font-size="14.00">Operaciones Matematicas</text>
</g>
<!-- Nodo84825604096&#45;&gt;Nodo1357209665536 -->
<g id="edge74" class="edge"><title>Nodo84825604096&#45;&gt;Nodo1357209665536</title>
<path fill="none" stroke="black" d="M5167.21,-145.983C5202.06,-135.141 5249.28,-120.452 5286.14,-108.984"/>
<polygon fill="black" stroke="black" points="5287.25,-112.305 5295.76,-105.992 5285.17,-105.621 5287.25,-112.305"/>
</g>
<!-- Nodo2714419331072 -->
<g id="node76" class="node"><title>Nodo2714419331072</title>
<ellipse fill="none" stroke="black" cx="5298.95" cy="-18" rx="43.5923" ry="18"/>
<text text-anchor="middle" x="5298.95" y="-14.3" font-family="Times New Roman,serif" font-size="14.00">Primitivo</text>
</g>
<!-- Nodo1357209665536&#45;&gt;Nodo2714419331072 -->
<g id="edge75" class="edge"><title>Nodo1357209665536&#45;&gt;Nodo2714419331072</title>
<path fill="none" stroke="black" d="M5333.05,-72.055C5327.69,-63.7147 5321.12,-53.4908 5315.18,-44.2517"/>
<polygon fill="black" stroke="black" points="5318.09,-42.3081 5309.74,-35.789 5312.2,-46.0935 5318.09,-42.3081"/>
</g>
<!-- Nodo5428838662144 -->
<g id="node77" class="node"><title>Nodo5428838662144</title>
<ellipse fill="none" stroke="black" cx="5387.95" cy="-18" rx="27" ry="18"/>
<text text-anchor="middle" x="5387.95" y="-14.3" font-family="Times New Roman,serif" font-size="14.00">1</text>
</g>
<!-- Nodo1357209665536&#45;&gt;Nodo5428838662144 -->
<g id="edge76" class="edge"><title>Nodo1357209665536&#45;&gt;Nodo5428838662144</title>
<path fill="none" stroke="black" d="M5354.6,-72.055C5359.99,-63.4694 5366.64,-52.8877 5372.58,-43.4391"/>
<polygon fill="black" stroke="black" points="5375.64,-45.1584 5378,-34.8294 5369.71,-41.4332 5375.64,-45.1584"/>
</g>
</g>
</svg>
