<?xml version="1.0" encoding="UTF-8" standalone="no"?>
<!DOCTYPE svg PUBLIC "-//W3C//DTD SVG 1.1//EN"
 "http://www.w3.org/Graphics/SVG/1.1/DTD/svg11.dtd">
<!-- Generated by graphviz version 2.38.0 (20140413.2041)
 -->
<!-- Title: G Pages: 1 -->
<svg width="2017pt" height="332pt"
 viewBox="0.00 0.00 2017.48 332.00" xmlns="http://www.w3.org/2000/svg" xmlns:xlink="http://www.w3.org/1999/xlink">
<g id="graph0" class="graph" transform="scale(1 1) rotate(0) translate(4 328)">
<title>G</title>
<polygon fill="white" stroke="none" points="-4,4 -4,-328 2013.48,-328 2013.48,4 -4,4"/>
<!-- Nodo0 -->
<g id="node1" class="node"><title>Nodo0</title>
<ellipse fill="none" stroke="black" cx="527.093" cy="-306" rx="38.9931" ry="18"/>
<text text-anchor="middle" x="527.093" y="-302.3" font-family="Times New Roman,serif" font-size="14.00">INICIO</text>
</g>
<!-- Nodo1 -->
<g id="node2" class="node"><title>Nodo1</title>
<ellipse fill="none" stroke="black" cx="527.093" cy="-234" rx="59.5901" ry="18"/>
<text text-anchor="middle" x="527.093" y="-230.3" font-family="Times New Roman,serif" font-size="14.00">Instrucciones</text>
</g>
<!-- Nodo0&#45;&gt;Nodo1 -->
<g id="edge1" class="edge"><title>Nodo0&#45;&gt;Nodo1</title>
<path fill="none" stroke="black" d="M527.093,-287.697C527.093,-279.983 527.093,-270.712 527.093,-262.112"/>
<polygon fill="black" stroke="black" points="530.594,-262.104 527.093,-252.104 523.594,-262.104 530.594,-262.104"/>
</g>
<!-- Nodo2 -->
<g id="node3" class="node"><title>Nodo2</title>
<ellipse fill="none" stroke="black" cx="193.093" cy="-162" rx="96.6831" ry="18"/>
<text text-anchor="middle" x="193.093" y="-158.3" font-family="Times New Roman,serif" font-size="14.00">CREATE DATABASE</text>
</g>
<!-- Nodo1&#45;&gt;Nodo2 -->
<g id="edge2" class="edge"><title>Nodo1&#45;&gt;Nodo2</title>
<path fill="none" stroke="black" d="M479.594,-223.045C423.606,-211.311 329.988,-191.69 265.074,-178.086"/>
<polygon fill="black" stroke="black" points="265.418,-174.582 254.913,-175.956 263.982,-181.433 265.418,-174.582"/>
</g>
<!-- Nodo10 -->
<g id="node7" class="node"><title>Nodo10</title>
<ellipse fill="none" stroke="black" cx="407.093" cy="-162" rx="98.5829" ry="18"/>
<text text-anchor="middle" x="407.093" y="-158.3" font-family="Times New Roman,serif" font-size="14.00">USE DATABASE [test]</text>
</g>
<!-- Nodo1&#45;&gt;Nodo10 -->
<g id="edge6" class="edge"><title>Nodo1&#45;&gt;Nodo10</title>
<path fill="none" stroke="black" d="M500.759,-217.638C484.039,-207.885 462.162,-195.124 443.757,-184.387"/>
<polygon fill="black" stroke="black" points="445.439,-181.316 435.038,-179.301 441.912,-187.363 445.439,-181.316"/>
</g>
<!-- Nodo11 -->
<g id="node8" class="node"><title>Nodo11</title>
<ellipse fill="none" stroke="black" cx="647.093" cy="-162" rx="122.678" ry="18"/>
<text text-anchor="middle" x="647.093" y="-158.3" font-family="Times New Roman,serif" font-size="14.00">Instruccion: CREATE TABLE</text>
</g>
<!-- Nodo1&#45;&gt;Nodo11 -->
<g id="edge7" class="edge"><title>Nodo1&#45;&gt;Nodo11</title>
<path fill="none" stroke="black" d="M553.428,-217.638C570.029,-207.954 591.714,-195.304 610.038,-184.616"/>
<polygon fill="black" stroke="black" points="611.852,-187.609 618.726,-179.547 608.325,-181.563 611.852,-187.609"/>
</g>
<!-- Nodo19 -->
<g id="node16" class="node"><title>Nodo19</title>
<ellipse fill="none" stroke="black" cx="1186.09" cy="-162" rx="122.678" ry="18"/>
<text text-anchor="middle" x="1186.09" y="-158.3" font-family="Times New Roman,serif" font-size="14.00">Instruccion: CREATE TABLE</text>
</g>
<!-- Nodo1&#45;&gt;Nodo19 -->
<g id="edge15" class="edge"><title>Nodo1&#45;&gt;Nodo19</title>
<path fill="none" stroke="black" d="M582.428,-227.122C691.956,-215.488 938.023,-189.35 1079.86,-174.284"/>
<polygon fill="black" stroke="black" points="1080.32,-177.755 1089.89,-173.219 1079.58,-170.794 1080.32,-177.755"/>
</g>
<!-- Nodo3 -->
<g id="node4" class="node"><title>Nodo3</title>
<ellipse fill="none" stroke="black" cx="74.0934" cy="-90" rx="74.187" ry="18"/>
<text text-anchor="middle" x="74.0934" y="-86.3" font-family="Times New Roman,serif" font-size="14.00">IF NOT EXISTS</text>
</g>
<!-- Nodo2&#45;&gt;Nodo3 -->
<g id="edge3" class="edge"><title>Nodo2&#45;&gt;Nodo3</title>
<path fill="none" stroke="black" d="M165.193,-144.588C148.696,-134.884 127.634,-122.494 109.918,-112.073"/>
<polygon fill="black" stroke="black" points="111.394,-108.881 101,-106.827 107.845,-114.914 111.394,-108.881"/>
</g>
<!-- Nodo4 -->
<g id="node5" class="node"><title>Nodo4</title>
<ellipse fill="none" stroke="black" cx="193.093" cy="-90" rx="27" ry="18"/>
<text text-anchor="middle" x="193.093" y="-86.3" font-family="Times New Roman,serif" font-size="14.00">test</text>
</g>
<!-- Nodo2&#45;&gt;Nodo4 -->
<g id="edge4" class="edge"><title>Nodo2&#45;&gt;Nodo4</title>
<path fill="none" stroke="black" d="M193.093,-143.697C193.093,-135.983 193.093,-126.712 193.093,-118.112"/>
<polygon fill="black" stroke="black" points="196.594,-118.104 193.093,-108.104 189.594,-118.104 196.594,-118.104"/>
</g>
<!-- Nodo5 -->
<g id="node6" class="node"><title>Nodo5</title>
<ellipse fill="none" stroke="black" cx="284.093" cy="-90" rx="46.2923" ry="18"/>
<text text-anchor="middle" x="284.093" y="-86.3" font-family="Times New Roman,serif" font-size="14.00">MODE: 1</text>
</g>
<!-- Nodo2&#45;&gt;Nodo5 -->
<g id="edge5" class="edge"><title>Nodo2&#45;&gt;Nodo5</title>
<path fill="none" stroke="black" d="M214.659,-144.411C227.107,-134.835 242.897,-122.69 256.272,-112.401"/>
<polygon fill="black" stroke="black" points="258.445,-115.145 264.237,-106.274 254.177,-109.597 258.445,-115.145"/>
</g>
<!-- Nodo12 -->
<g id="node9" class="node"><title>Nodo12</title>
<ellipse fill="none" stroke="black" cx="423.093" cy="-90" rx="40.0939" ry="18"/>
<text text-anchor="middle" x="423.093" y="-86.3" font-family="Times New Roman,serif" font-size="14.00">Id: tabla</text>
</g>
<!-- Nodo11&#45;&gt;Nodo12 -->
<g id="edge8" class="edge"><title>Nodo11&#45;&gt;Nodo12</title>
<path fill="none" stroke="black" d="M594.468,-145.657C559.634,-135.356 513.004,-121.286 472.093,-108 469.19,-107.057 466.196,-106.066 463.186,-105.055"/>
<polygon fill="black" stroke="black" points="464.207,-101.705 453.612,-101.799 461.952,-108.333 464.207,-101.705"/>
</g>
<!-- Nodo13 -->
<g id="node10" class="node"><title>Nodo13</title>
<ellipse fill="none" stroke="black" cx="519.093" cy="-90" rx="37.8943" ry="18"/>
<text text-anchor="middle" x="519.093" y="-86.3" font-family="Times New Roman,serif" font-size="14.00">Campo</text>
</g>
<!-- Nodo11&#45;&gt;Nodo13 -->
<g id="edge9" class="edge"><title>Nodo11&#45;&gt;Nodo13</title>
<path fill="none" stroke="black" d="M616.759,-144.411C597.358,-133.801 572.186,-120.035 552.256,-109.136"/>
<polygon fill="black" stroke="black" points="553.679,-105.925 543.226,-104.197 550.32,-112.066 553.679,-105.925"/>
</g>
<!-- Nodo16 -->
<g id="node13" class="node"><title>Nodo16</title>
<ellipse fill="none" stroke="black" cx="676.093" cy="-90" rx="37.8943" ry="18"/>
<text text-anchor="middle" x="676.093" y="-86.3" font-family="Times New Roman,serif" font-size="14.00">Campo</text>
</g>
<!-- Nodo11&#45;&gt;Nodo16 -->
<g id="edge12" class="edge"><title>Nodo11&#45;&gt;Nodo16</title>
<path fill="none" stroke="black" d="M654.262,-143.697C657.528,-135.813 661.467,-126.304 665.096,-117.546"/>
<polygon fill="black" stroke="black" points="668.413,-118.683 669.007,-108.104 661.946,-116.003 668.413,-118.683"/>
</g>
<!-- Nodo14 -->
<g id="node11" class="node"><title>Nodo14</title>
<ellipse fill="none" stroke="black" cx="328.093" cy="-18" rx="29.795" ry="18"/>
<text text-anchor="middle" x="328.093" y="-14.3" font-family="Times New Roman,serif" font-size="14.00">Id: id</text>
</g>
<!-- Nodo13&#45;&gt;Nodo14 -->
<g id="edge10" class="edge"><title>Nodo13&#45;&gt;Nodo14</title>
<path fill="none" stroke="black" d="M490.037,-78.4044C484.107,-76.266 477.904,-74.0469 472.093,-72 425.563,-55.6094 413.076,-53.871 367.093,-36 365.024,-35.1956 362.902,-34.3458 360.77,-33.4721"/>
<polygon fill="black" stroke="black" points="362.051,-30.2139 351.476,-29.5576 359.334,-36.665 362.051,-30.2139"/>
</g>
<!-- Nodo15 -->
<g id="node12" class="node"><title>Nodo15</title>
<ellipse fill="none" stroke="black" cx="490.093" cy="-18" rx="114.28" ry="18"/>
<text text-anchor="middle" x="490.093" y="-14.3" font-family="Times New Roman,serif" font-size="14.00">Tipo: Tipo_Dato.INTEGER</text>
</g>
<!-- Nodo13&#45;&gt;Nodo15 -->
<g id="edge11" class="edge"><title>Nodo13&#45;&gt;Nodo15</title>
<path fill="none" stroke="black" d="M512.073,-72.055C508.809,-64.1762 504.849,-54.6165 501.194,-45.794"/>
<polygon fill="black" stroke="black" points="504.311,-44.1743 497.25,-36.2753 497.844,-46.8535 504.311,-44.1743"/>
</g>
<!-- Nodo17 -->
<g id="node14" class="node"><title>Nodo17</title>
<ellipse fill="none" stroke="black" cx="676.093" cy="-18" rx="53.8905" ry="18"/>
<text text-anchor="middle" x="676.093" y="-14.3" font-family="Times New Roman,serif" font-size="14.00">Id: column2</text>
</g>
<!-- Nodo16&#45;&gt;Nodo17 -->
<g id="edge13" class="edge"><title>Nodo16&#45;&gt;Nodo17</title>
<path fill="none" stroke="black" d="M676.093,-71.6966C676.093,-63.9827 676.093,-54.7125 676.093,-46.1124"/>
<polygon fill="black" stroke="black" points="679.594,-46.1043 676.093,-36.1043 672.594,-46.1044 679.594,-46.1043"/>
</g>
<!-- Nodo18 -->
<g id="node15" class="node"><title>Nodo18</title>
<ellipse fill="none" stroke="black" cx="862.093" cy="-18" rx="114.28" ry="18"/>
<text text-anchor="middle" x="862.093" y="-14.3" font-family="Times New Roman,serif" font-size="14.00">Tipo: Tipo_Dato.INTEGER</text>
</g>
<!-- Nodo16&#45;&gt;Nodo18 -->
<g id="edge14" class="edge"><title>Nodo16&#45;&gt;Nodo18</title>
<path fill="none" stroke="black" d="M704.748,-78.2159C732.878,-67.6293 776.414,-51.245 810.566,-38.3921"/>
<polygon fill="black" stroke="black" points="811.803,-41.6664 819.929,-34.8684 809.337,-35.115 811.803,-41.6664"/>
</g>
<!-- Nodo20 -->
<g id="node17" class="node"><title>Nodo20</title>
<ellipse fill="none" stroke="black" cx="1073.09" cy="-90" rx="57.3905" ry="18"/>
<text text-anchor="middle" x="1073.09" y="-86.3" font-family="Times New Roman,serif" font-size="14.00">Id: tbbodega</text>
</g>
<!-- Nodo19&#45;&gt;Nodo20 -->
<g id="edge16" class="edge"><title>Nodo19&#45;&gt;Nodo20</title>
<path fill="none" stroke="black" d="M1159.31,-144.411C1143.56,-134.655 1123.51,-122.231 1106.7,-111.82"/>
<polygon fill="black" stroke="black" points="1108.09,-108.565 1097.75,-106.274 1104.41,-114.516 1108.09,-108.565"/>
</g>
<!-- Nodo21 -->
<g id="node18" class="node"><title>Nodo21</title>
<ellipse fill="none" stroke="black" cx="1186.09" cy="-90" rx="37.8943" ry="18"/>
<text text-anchor="middle" x="1186.09" y="-86.3" font-family="Times New Roman,serif" font-size="14.00">Campo</text>
</g>
<!-- Nodo19&#45;&gt;Nodo21 -->
<g id="edge17" class="edge"><title>Nodo19&#45;&gt;Nodo21</title>
<path fill="none" stroke="black" d="M1186.09,-143.697C1186.09,-135.983 1186.09,-126.712 1186.09,-118.112"/>
<polygon fill="black" stroke="black" points="1189.59,-118.104 1186.09,-108.104 1182.59,-118.104 1189.59,-118.104"/>
</g>
<!-- Nodo24 -->
<g id="node21" class="node"><title>Nodo24</title>
<ellipse fill="none" stroke="black" cx="1368.09" cy="-90" rx="37.8943" ry="18"/>
<text text-anchor="middle" x="1368.09" y="-86.3" font-family="Times New Roman,serif" font-size="14.00">Campo</text>
</g>
<!-- Nodo19&#45;&gt;Nodo24 -->
<g id="edge20" class="edge"><title>Nodo19&#45;&gt;Nodo24</title>
<path fill="none" stroke="black" d="M1227.85,-144.941C1258.59,-133.118 1300.05,-117.17 1329.91,-105.685"/>
<polygon fill="black" stroke="black" points="1331.48,-108.831 1339.56,-101.974 1328.97,-102.297 1331.48,-108.831"/>
</g>
<!-- Nodo27 -->
<g id="node24" class="node"><title>Nodo27</title>
<ellipse fill="none" stroke="black" cx="1728.09" cy="-90" rx="37.8943" ry="18"/>
<text text-anchor="middle" x="1728.09" y="-86.3" font-family="Times New Roman,serif" font-size="14.00">Campo</text>
</g>
<!-- Nodo19&#45;&gt;Nodo27 -->
<g id="edge23" class="edge"><title>Nodo19&#45;&gt;Nodo27</title>
<path fill="none" stroke="black" d="M1274.99,-149.519C1391.55,-134.465 1591.77,-108.606 1681.83,-96.9747"/>
<polygon fill="black" stroke="black" points="1682.53,-100.414 1692,-95.6616 1681.63,-93.4714 1682.53,-100.414"/>
</g>
<!-- Nodo22 -->
<g id="node19" class="node"><title>Nodo22</title>
<ellipse fill="none" stroke="black" cx="1024.09" cy="-18" rx="29.795" ry="18"/>
<text text-anchor="middle" x="1024.09" y="-14.3" font-family="Times New Roman,serif" font-size="14.00">Id: id</text>
</g>
<!-- Nodo21&#45;&gt;Nodo22 -->
<g id="edge18" class="edge"><title>Nodo21&#45;&gt;Nodo22</title>
<path fill="none" stroke="black" d="M1158.72,-77.2448C1133.79,-66.5265 1095.95,-50.2394 1063.09,-36 1061.06,-35.117 1058.96,-34.207 1056.85,-33.2884"/>
<polygon fill="black" stroke="black" points="1058.16,-30.0448 1047.6,-29.2642 1055.37,-36.4635 1058.16,-30.0448"/>
</g>
<!-- Nodo23 -->
<g id="node20" class="node"><title>Nodo23</title>
<ellipse fill="none" stroke="black" cx="1186.09" cy="-18" rx="114.28" ry="18"/>
<text text-anchor="middle" x="1186.09" y="-14.3" font-family="Times New Roman,serif" font-size="14.00">Tipo: Tipo_Dato.INTEGER</text>
</g>
<!-- Nodo21&#45;&gt;Nodo23 -->
<g id="edge19" class="edge"><title>Nodo21&#45;&gt;Nodo23</title>
<path fill="none" stroke="black" d="M1186.09,-71.6966C1186.09,-63.9827 1186.09,-54.7125 1186.09,-46.1124"/>
<polygon fill="black" stroke="black" points="1189.59,-46.1043 1186.09,-36.1043 1182.59,-46.1044 1189.59,-46.1043"/>
</g>
<!-- Nodo25 -->
<g id="node22" class="node"><title>Nodo25</title>
<ellipse fill="none" stroke="black" cx="1368.09" cy="-18" rx="50.0912" ry="18"/>
<text text-anchor="middle" x="1368.09" y="-14.3" font-family="Times New Roman,serif" font-size="14.00">Id: bodega</text>
</g>
<!-- Nodo24&#45;&gt;Nodo25 -->
<g id="edge21" class="edge"><title>Nodo24&#45;&gt;Nodo25</title>
<path fill="none" stroke="black" d="M1368.09,-71.6966C1368.09,-63.9827 1368.09,-54.7125 1368.09,-46.1124"/>
<polygon fill="black" stroke="black" points="1371.59,-46.1043 1368.09,-36.1043 1364.59,-46.1044 1371.59,-46.1043"/>
</g>
<!-- Nodo26 -->
<g id="node23" class="node"><title>Nodo26</title>
<ellipse fill="none" stroke="black" cx="1556.09" cy="-18" rx="119.679" ry="18"/>
<text text-anchor="middle" x="1556.09" y="-14.3" font-family="Times New Roman,serif" font-size="14.00">Tipo: Tipo_Dato.VARCHAR</text>
</g>
<!-- Nodo24&#45;&gt;Nodo26 -->
<g id="edge22" class="edge"><title>Nodo24&#45;&gt;Nodo26</title>
<path fill="none" stroke="black" d="M1397.06,-78.2159C1425.49,-67.6293 1469.49,-51.245 1504.01,-38.3921"/>
<polygon fill="black" stroke="black" points="1505.33,-41.6378 1513.48,-34.8684 1502.88,-35.0778 1505.33,-41.6378"/>
</g>
<!-- Nodo28 -->
<g id="node25" class="node"><title>Nodo28</title>
<ellipse fill="none" stroke="black" cx="1728.09" cy="-18" rx="34.394" ry="18"/>
<text text-anchor="middle" x="1728.09" y="-14.3" font-family="Times New Roman,serif" font-size="14.00">Id: id2</text>
</g>
<!-- Nodo27&#45;&gt;Nodo28 -->
<g id="edge24" class="edge"><title>Nodo27&#45;&gt;Nodo28</title>
<path fill="none" stroke="black" d="M1728.09,-71.6966C1728.09,-63.9827 1728.09,-54.7125 1728.09,-46.1124"/>
<polygon fill="black" stroke="black" points="1731.59,-46.1043 1728.09,-36.1043 1724.59,-46.1044 1731.59,-46.1043"/>
</g>
<!-- Nodo29 -->
<g id="node26" class="node"><title>Nodo29</title>
<ellipse fill="none" stroke="black" cx="1895.09" cy="-18" rx="114.28" ry="18"/>
<text text-anchor="middle" x="1895.09" y="-14.3" font-family="Times New Roman,serif" font-size="14.00">Tipo: Tipo_Dato.INTEGER</text>
</g>
<!-- Nodo27&#45;&gt;Nodo29 -->
<g id="edge25" class="edge"><title>Nodo27&#45;&gt;Nodo29</title>
<path fill="none" stroke="black" d="M1755.67,-77.4409C1780.58,-66.9991 1817.78,-51.4056 1847.49,-38.9518"/>
<polygon fill="black" stroke="black" points="1848.98,-42.123 1856.85,-35.0292 1846.28,-35.6671 1848.98,-42.123"/>
</g>
</g>
</svg>
