<?xml version="1.0" encoding="UTF-8" standalone="no"?>
<!DOCTYPE svg PUBLIC "-//W3C//DTD SVG 1.1//EN"
 "http://www.w3.org/Graphics/SVG/1.1/DTD/svg11.dtd">
<!-- Generated by graphviz version 2.38.0 (20140413.2041)
 -->
<!-- Title: G Pages: 1 -->
<svg width="1141pt" height="332pt"
 viewBox="0.00 0.00 1141.48 332.00" xmlns="http://www.w3.org/2000/svg" xmlns:xlink="http://www.w3.org/1999/xlink">
<g id="graph0" class="graph" transform="scale(1 1) rotate(0) translate(4 328)">
<title>G</title>
<polygon fill="white" stroke="none" points="-4,4 -4,-328 1137.48,-328 1137.48,4 -4,4"/>
<!-- Nodo0 -->
<g id="node1" class="node"><title>Nodo0</title>
<ellipse fill="none" stroke="black" cx="407.093" cy="-306" rx="38.9931" ry="18"/>
<text text-anchor="middle" x="407.093" y="-302.3" font-family="Times New Roman,serif" font-size="14.00">INICIO</text>
</g>
<!-- Nodo1 -->
<g id="node2" class="node"><title>Nodo1</title>
<ellipse fill="none" stroke="black" cx="407.093" cy="-234" rx="59.5901" ry="18"/>
<text text-anchor="middle" x="407.093" y="-230.3" font-family="Times New Roman,serif" font-size="14.00">Instrucciones</text>
</g>
<!-- Nodo0&#45;&gt;Nodo1 -->
<g id="edge1" class="edge"><title>Nodo0&#45;&gt;Nodo1</title>
<path fill="none" stroke="black" d="M407.093,-287.697C407.093,-279.983 407.093,-270.712 407.093,-262.112"/>
<polygon fill="black" stroke="black" points="410.594,-262.104 407.093,-252.104 403.594,-262.104 410.594,-262.104"/>
</g>
<!-- Nodo2 -->
<g id="node3" class="node"><title>Nodo2</title>
<ellipse fill="none" stroke="black" cx="193.093" cy="-162" rx="96.6831" ry="18"/>
<text text-anchor="middle" x="193.093" y="-158.3" font-family="Times New Roman,serif" font-size="14.00">CREATE DATABASE</text>
</g>
<!-- Nodo1&#45;&gt;Nodo2 -->
<g id="edge2" class="edge"><title>Nodo1&#45;&gt;Nodo2</title>
<path fill="none" stroke="black" d="M367.843,-220.161C334.391,-209.219 285.933,-193.368 248.525,-181.132"/>
<polygon fill="black" stroke="black" points="249.373,-177.727 238.78,-177.944 247.197,-184.38 249.373,-177.727"/>
</g>
<!-- Nodo10 -->
<g id="node7" class="node"><title>Nodo10</title>
<ellipse fill="none" stroke="black" cx="407.093" cy="-162" rx="98.5829" ry="18"/>
<text text-anchor="middle" x="407.093" y="-158.3" font-family="Times New Roman,serif" font-size="14.00">USE DATABASE [test]</text>
</g>
<!-- Nodo1&#45;&gt;Nodo10 -->
<g id="edge6" class="edge"><title>Nodo1&#45;&gt;Nodo10</title>
<path fill="none" stroke="black" d="M407.093,-215.697C407.093,-207.983 407.093,-198.712 407.093,-190.112"/>
<polygon fill="black" stroke="black" points="410.594,-190.104 407.093,-180.104 403.594,-190.104 410.594,-190.104"/>
</g>
<!-- Nodo11 -->
<g id="node8" class="node"><title>Nodo11</title>
<ellipse fill="none" stroke="black" cx="647.093" cy="-162" rx="122.678" ry="18"/>
<text text-anchor="middle" x="647.093" y="-158.3" font-family="Times New Roman,serif" font-size="14.00">Instruccion: CREATE TABLE</text>
</g>
<!-- Nodo1&#45;&gt;Nodo11 -->
<g id="edge7" class="edge"><title>Nodo1&#45;&gt;Nodo11</title>
<path fill="none" stroke="black" d="M448.351,-220.967C485.901,-210.015 541.868,-193.691 584.851,-181.154"/>
<polygon fill="black" stroke="black" points="586.025,-184.458 594.645,-178.298 584.065,-177.738 586.025,-184.458"/>
</g>
<!-- Nodo3 -->
<g id="node4" class="node"><title>Nodo3</title>
<ellipse fill="none" stroke="black" cx="74.0934" cy="-90" rx="74.187" ry="18"/>
<text text-anchor="middle" x="74.0934" y="-86.3" font-family="Times New Roman,serif" font-size="14.00">IF NOT EXISTS</text>
</g>
<!-- Nodo2&#45;&gt;Nodo3 -->
<g id="edge3" class="edge"><title>Nodo2&#45;&gt;Nodo3</title>
<path fill="none" stroke="black" d="M165.193,-144.588C148.696,-134.884 127.634,-122.494 109.918,-112.073"/>
<polygon fill="black" stroke="black" points="111.394,-108.881 101,-106.827 107.845,-114.914 111.394,-108.881"/>
</g>
<!-- Nodo4 -->
<g id="node5" class="node"><title>Nodo4</title>
<ellipse fill="none" stroke="black" cx="193.093" cy="-90" rx="27" ry="18"/>
<text text-anchor="middle" x="193.093" y="-86.3" font-family="Times New Roman,serif" font-size="14.00">test</text>
</g>
<!-- Nodo2&#45;&gt;Nodo4 -->
<g id="edge4" class="edge"><title>Nodo2&#45;&gt;Nodo4</title>
<path fill="none" stroke="black" d="M193.093,-143.697C193.093,-135.983 193.093,-126.712 193.093,-118.112"/>
<polygon fill="black" stroke="black" points="196.594,-118.104 193.093,-108.104 189.594,-118.104 196.594,-118.104"/>
</g>
<!-- Nodo5 -->
<g id="node6" class="node"><title>Nodo5</title>
<ellipse fill="none" stroke="black" cx="284.093" cy="-90" rx="46.2923" ry="18"/>
<text text-anchor="middle" x="284.093" y="-86.3" font-family="Times New Roman,serif" font-size="14.00">MODE: 1</text>
</g>
<!-- Nodo2&#45;&gt;Nodo5 -->
<g id="edge5" class="edge"><title>Nodo2&#45;&gt;Nodo5</title>
<path fill="none" stroke="black" d="M214.659,-144.411C227.107,-134.835 242.897,-122.69 256.272,-112.401"/>
<polygon fill="black" stroke="black" points="258.445,-115.145 264.237,-106.274 254.177,-109.597 258.445,-115.145"/>
</g>
<!-- Nodo12 -->
<g id="node9" class="node"><title>Nodo12</title>
<ellipse fill="none" stroke="black" cx="551.093" cy="-90" rx="40.0939" ry="18"/>
<text text-anchor="middle" x="551.093" y="-86.3" font-family="Times New Roman,serif" font-size="14.00">Id: tabla</text>
</g>
<!-- Nodo11&#45;&gt;Nodo12 -->
<g id="edge8" class="edge"><title>Nodo11&#45;&gt;Nodo12</title>
<path fill="none" stroke="black" d="M623.855,-144.055C610.528,-134.338 593.695,-122.064 579.577,-111.769"/>
<polygon fill="black" stroke="black" points="581.335,-108.719 571.193,-105.656 577.211,-114.375 581.335,-108.719"/>
</g>
<!-- Nodo13 -->
<g id="node10" class="node"><title>Nodo13</title>
<ellipse fill="none" stroke="black" cx="647.093" cy="-90" rx="37.8943" ry="18"/>
<text text-anchor="middle" x="647.093" y="-86.3" font-family="Times New Roman,serif" font-size="14.00">Campo</text>
</g>
<!-- Nodo11&#45;&gt;Nodo13 -->
<g id="edge9" class="edge"><title>Nodo11&#45;&gt;Nodo13</title>
<path fill="none" stroke="black" d="M647.093,-143.697C647.093,-135.983 647.093,-126.712 647.093,-118.112"/>
<polygon fill="black" stroke="black" points="650.594,-118.104 647.093,-108.104 643.594,-118.104 650.594,-118.104"/>
</g>
<!-- Nodo16 -->
<g id="node13" class="node"><title>Nodo16</title>
<ellipse fill="none" stroke="black" cx="833.093" cy="-90" rx="37.8943" ry="18"/>
<text text-anchor="middle" x="833.093" y="-86.3" font-family="Times New Roman,serif" font-size="14.00">Campo</text>
</g>
<!-- Nodo11&#45;&gt;Nodo16 -->
<g id="edge12" class="edge"><title>Nodo11&#45;&gt;Nodo16</title>
<path fill="none" stroke="black" d="M689.766,-144.941C721.509,-132.994 764.447,-116.835 795.03,-105.325"/>
<polygon fill="black" stroke="black" points="796.369,-108.561 804.496,-101.763 793.904,-102.009 796.369,-108.561"/>
</g>
<!-- Nodo14 -->
<g id="node11" class="node"><title>Nodo14</title>
<ellipse fill="none" stroke="black" cx="485.093" cy="-18" rx="29.795" ry="18"/>
<text text-anchor="middle" x="485.093" y="-14.3" font-family="Times New Roman,serif" font-size="14.00">Id: id</text>
</g>
<!-- Nodo13&#45;&gt;Nodo14 -->
<g id="edge10" class="edge"><title>Nodo13&#45;&gt;Nodo14</title>
<path fill="none" stroke="black" d="M619.722,-77.2448C594.786,-66.5265 556.949,-50.2394 524.093,-36 522.056,-35.117 519.959,-34.207 517.845,-33.2884"/>
<polygon fill="black" stroke="black" points="519.163,-30.0448 508.597,-29.2642 516.37,-36.4635 519.163,-30.0448"/>
</g>
<!-- Nodo15 -->
<g id="node12" class="node"><title>Nodo15</title>
<ellipse fill="none" stroke="black" cx="647.093" cy="-18" rx="114.28" ry="18"/>
<text text-anchor="middle" x="647.093" y="-14.3" font-family="Times New Roman,serif" font-size="14.00">Tipo: Tipo_Dato.INTEGER</text>
</g>
<!-- Nodo13&#45;&gt;Nodo15 -->
<g id="edge11" class="edge"><title>Nodo13&#45;&gt;Nodo15</title>
<path fill="none" stroke="black" d="M647.093,-71.6966C647.093,-63.9827 647.093,-54.7125 647.093,-46.1124"/>
<polygon fill="black" stroke="black" points="650.594,-46.1043 647.093,-36.1043 643.594,-46.1044 650.594,-46.1043"/>
</g>
<!-- Nodo17 -->
<g id="node14" class="node"><title>Nodo17</title>
<ellipse fill="none" stroke="black" cx="833.093" cy="-18" rx="53.8905" ry="18"/>
<text text-anchor="middle" x="833.093" y="-14.3" font-family="Times New Roman,serif" font-size="14.00">Id: column2</text>
</g>
<!-- Nodo16&#45;&gt;Nodo17 -->
<g id="edge13" class="edge"><title>Nodo16&#45;&gt;Nodo17</title>
<path fill="none" stroke="black" d="M833.093,-71.6966C833.093,-63.9827 833.093,-54.7125 833.093,-46.1124"/>
<polygon fill="black" stroke="black" points="836.594,-46.1043 833.093,-36.1043 829.594,-46.1044 836.594,-46.1043"/>
</g>
<!-- Nodo18 -->
<g id="node15" class="node"><title>Nodo18</title>
<ellipse fill="none" stroke="black" cx="1019.09" cy="-18" rx="114.28" ry="18"/>
<text text-anchor="middle" x="1019.09" y="-14.3" font-family="Times New Roman,serif" font-size="14.00">Tipo: Tipo_Dato.INTEGER</text>
</g>
<!-- Nodo16&#45;&gt;Nodo18 -->
<g id="edge14" class="edge"><title>Nodo16&#45;&gt;Nodo18</title>
<path fill="none" stroke="black" d="M861.748,-78.2159C889.878,-67.6293 933.414,-51.245 967.566,-38.3921"/>
<polygon fill="black" stroke="black" points="968.803,-41.6664 976.929,-34.8684 966.337,-35.115 968.803,-41.6664"/>
</g>
</g>
</svg>
