<?xml version="1.0" encoding="UTF-8" standalone="no"?>
<!DOCTYPE svg PUBLIC "-//W3C//DTD SVG 1.1//EN"
 "http://www.w3.org/Graphics/SVG/1.1/DTD/svg11.dtd">
<!-- Generated by graphviz version 2.38.0 (20140413.2041)
 -->
<!-- Title: G Pages: 1 -->
<svg width="952pt" height="332pt"
 viewBox="0.00 0.00 952.48 332.00" xmlns="http://www.w3.org/2000/svg" xmlns:xlink="http://www.w3.org/1999/xlink">
<g id="graph0" class="graph" transform="scale(1 1) rotate(0) translate(4 328)">
<title>G</title>
<polygon fill="white" stroke="none" points="-4,4 -4,-328 948.483,-328 948.483,4 -4,4"/>
<!-- Nodo0 -->
<g id="node1" class="node"><title>Nodo0</title>
<ellipse fill="none" stroke="black" cx="461.093" cy="-306" rx="38.9931" ry="18"/>
<text text-anchor="middle" x="461.093" y="-302.3" font-family="Times New Roman,serif" font-size="14.00">INICIO</text>
</g>
<!-- Nodo1 -->
<g id="node2" class="node"><title>Nodo1</title>
<ellipse fill="none" stroke="black" cx="461.093" cy="-234" rx="59.5901" ry="18"/>
<text text-anchor="middle" x="461.093" y="-230.3" font-family="Times New Roman,serif" font-size="14.00">Instrucciones</text>
</g>
<!-- Nodo0&#45;&gt;Nodo1 -->
<g id="edge1" class="edge"><title>Nodo0&#45;&gt;Nodo1</title>
<path fill="none" stroke="black" d="M461.093,-287.697C461.093,-279.983 461.093,-270.712 461.093,-262.112"/>
<polygon fill="black" stroke="black" points="464.594,-262.104 461.093,-252.104 457.594,-262.104 464.594,-262.104"/>
</g>
<!-- Nodo2 -->
<g id="node3" class="node"><title>Nodo2</title>
<ellipse fill="none" stroke="black" cx="247.093" cy="-162" rx="96.6831" ry="18"/>
<text text-anchor="middle" x="247.093" y="-158.3" font-family="Times New Roman,serif" font-size="14.00">CREATE DATABASE</text>
</g>
<!-- Nodo1&#45;&gt;Nodo2 -->
<g id="edge2" class="edge"><title>Nodo1&#45;&gt;Nodo2</title>
<path fill="none" stroke="black" d="M421.843,-220.161C388.391,-209.219 339.933,-193.368 302.525,-181.132"/>
<polygon fill="black" stroke="black" points="303.373,-177.727 292.78,-177.944 301.197,-184.38 303.373,-177.727"/>
</g>
<!-- Nodo12 -->
<g id="node8" class="node"><title>Nodo12</title>
<ellipse fill="none" stroke="black" cx="461.093" cy="-162" rx="98.5829" ry="18"/>
<text text-anchor="middle" x="461.093" y="-158.3" font-family="Times New Roman,serif" font-size="14.00">USE DATABASE [test]</text>
</g>
<!-- Nodo1&#45;&gt;Nodo12 -->
<g id="edge7" class="edge"><title>Nodo1&#45;&gt;Nodo12</title>
<path fill="none" stroke="black" d="M461.093,-215.697C461.093,-207.983 461.093,-198.712 461.093,-190.112"/>
<polygon fill="black" stroke="black" points="464.594,-190.104 461.093,-180.104 457.594,-190.104 464.594,-190.104"/>
</g>
<!-- Nodo13 -->
<g id="node9" class="node"><title>Nodo13</title>
<ellipse fill="none" stroke="black" cx="701.093" cy="-162" rx="122.678" ry="18"/>
<text text-anchor="middle" x="701.093" y="-158.3" font-family="Times New Roman,serif" font-size="14.00">Instruccion: CREATE TABLE</text>
</g>
<!-- Nodo1&#45;&gt;Nodo13 -->
<g id="edge8" class="edge"><title>Nodo1&#45;&gt;Nodo13</title>
<path fill="none" stroke="black" d="M502.351,-220.967C539.901,-210.015 595.868,-193.691 638.851,-181.154"/>
<polygon fill="black" stroke="black" points="640.025,-184.458 648.645,-178.298 638.065,-177.738 640.025,-184.458"/>
</g>
<!-- Nodo3 -->
<g id="node4" class="node"><title>Nodo3</title>
<ellipse fill="none" stroke="black" cx="74.0934" cy="-90" rx="74.187" ry="18"/>
<text text-anchor="middle" x="74.0934" y="-86.3" font-family="Times New Roman,serif" font-size="14.00">IF NOT EXISTS</text>
</g>
<!-- Nodo2&#45;&gt;Nodo3 -->
<g id="edge3" class="edge"><title>Nodo2&#45;&gt;Nodo3</title>
<path fill="none" stroke="black" d="M208.699,-145.465C182.519,-134.872 147.72,-120.791 120.063,-109.6"/>
<polygon fill="black" stroke="black" points="121.187,-106.279 110.604,-105.773 118.561,-112.768 121.187,-106.279"/>
</g>
<!-- Nodo4 -->
<g id="node5" class="node"><title>Nodo4</title>
<ellipse fill="none" stroke="black" cx="193.093" cy="-90" rx="27" ry="18"/>
<text text-anchor="middle" x="193.093" y="-86.3" font-family="Times New Roman,serif" font-size="14.00">test</text>
</g>
<!-- Nodo2&#45;&gt;Nodo4 -->
<g id="edge4" class="edge"><title>Nodo2&#45;&gt;Nodo4</title>
<path fill="none" stroke="black" d="M234.022,-144.055C227.165,-135.167 218.659,-124.14 211.18,-114.446"/>
<polygon fill="black" stroke="black" points="213.819,-112.136 204.94,-106.356 208.277,-116.412 213.819,-112.136"/>
</g>
<!-- Nodo5 -->
<g id="node6" class="node"><title>Nodo5</title>
<ellipse fill="none" stroke="black" cx="302.093" cy="-90" rx="63.8893" ry="18"/>
<text text-anchor="middle" x="302.093" y="-86.3" font-family="Times New Roman,serif" font-size="14.00">OWNER: root</text>
</g>
<!-- Nodo2&#45;&gt;Nodo5 -->
<g id="edge5" class="edge"><title>Nodo2&#45;&gt;Nodo5</title>
<path fill="none" stroke="black" d="M260.407,-144.055C267.096,-135.543 275.325,-125.068 282.701,-115.681"/>
<polygon fill="black" stroke="black" points="285.476,-117.815 288.902,-107.789 279.972,-113.49 285.476,-117.815"/>
</g>
<!-- Nodo6 -->
<g id="node7" class="node"><title>Nodo6</title>
<ellipse fill="none" stroke="black" cx="430.093" cy="-90" rx="46.2923" ry="18"/>
<text text-anchor="middle" x="430.093" y="-86.3" font-family="Times New Roman,serif" font-size="14.00">MODE: 1</text>
</g>
<!-- Nodo2&#45;&gt;Nodo6 -->
<g id="edge6" class="edge"><title>Nodo2&#45;&gt;Nodo6</title>
<path fill="none" stroke="black" d="M287.707,-145.465C317.827,-133.943 358.734,-118.296 388.974,-106.729"/>
<polygon fill="black" stroke="black" points="390.301,-109.969 398.39,-103.127 387.8,-103.431 390.301,-109.969"/>
</g>
<!-- Nodo14 -->
<g id="node10" class="node"><title>Nodo14</title>
<ellipse fill="none" stroke="black" cx="653.093" cy="-90" rx="40.0939" ry="18"/>
<text text-anchor="middle" x="653.093" y="-86.3" font-family="Times New Roman,serif" font-size="14.00">Id: tabla</text>
</g>
<!-- Nodo13&#45;&gt;Nodo14 -->
<g id="edge9" class="edge"><title>Nodo13&#45;&gt;Nodo14</title>
<path fill="none" stroke="black" d="M689.474,-144.055C683.611,-135.505 676.391,-124.975 669.932,-115.556"/>
<polygon fill="black" stroke="black" points="672.817,-113.575 664.275,-107.307 667.044,-117.534 672.817,-113.575"/>
</g>
<!-- Nodo15 -->
<g id="node11" class="node"><title>Nodo15</title>
<ellipse fill="none" stroke="black" cx="749.093" cy="-90" rx="37.8943" ry="18"/>
<text text-anchor="middle" x="749.093" y="-86.3" font-family="Times New Roman,serif" font-size="14.00">Campo</text>
</g>
<!-- Nodo13&#45;&gt;Nodo15 -->
<g id="edge10" class="edge"><title>Nodo13&#45;&gt;Nodo15</title>
<path fill="none" stroke="black" d="M712.713,-144.055C718.576,-135.505 725.796,-124.975 732.255,-115.556"/>
<polygon fill="black" stroke="black" points="735.143,-117.534 737.911,-107.307 729.37,-113.575 735.143,-117.534"/>
</g>
<!-- Nodo16 -->
<g id="node12" class="node"><title>Nodo16</title>
<ellipse fill="none" stroke="black" cx="668.093" cy="-18" rx="29.795" ry="18"/>
<text text-anchor="middle" x="668.093" y="-14.3" font-family="Times New Roman,serif" font-size="14.00">Id: id</text>
</g>
<!-- Nodo15&#45;&gt;Nodo16 -->
<g id="edge11" class="edge"><title>Nodo15&#45;&gt;Nodo16</title>
<path fill="none" stroke="black" d="M731.518,-73.811C720.067,-63.9156 704.971,-50.8699 692.38,-39.9884"/>
<polygon fill="black" stroke="black" points="694.385,-37.0956 684.531,-33.2051 689.808,-42.3919 694.385,-37.0956"/>
</g>
<!-- Nodo17 -->
<g id="node13" class="node"><title>Nodo17</title>
<ellipse fill="none" stroke="black" cx="830.093" cy="-18" rx="114.28" ry="18"/>
<text text-anchor="middle" x="830.093" y="-14.3" font-family="Times New Roman,serif" font-size="14.00">Tipo: Tipo_Dato.INTEGER</text>
</g>
<!-- Nodo15&#45;&gt;Nodo17 -->
<g id="edge12" class="edge"><title>Nodo15&#45;&gt;Nodo17</title>
<path fill="none" stroke="black" d="M766.669,-73.811C777.179,-64.7286 790.76,-52.9923 802.656,-42.7113"/>
<polygon fill="black" stroke="black" points="805.287,-45.0635 810.565,-35.8767 800.71,-39.7672 805.287,-45.0635"/>
</g>
</g>
</svg>
