<?xml version="1.0" encoding="UTF-8" standalone="no"?>
<!DOCTYPE svg PUBLIC "-//W3C//DTD SVG 1.1//EN"
 "http://www.w3.org/Graphics/SVG/1.1/DTD/svg11.dtd">
<!-- Generated by graphviz version 2.38.0 (20140413.2041)
 -->
<!-- Title: G Pages: 1 -->
<svg width="456pt" height="260pt"
 viewBox="0.00 0.00 456.13 260.00" xmlns="http://www.w3.org/2000/svg" xmlns:xlink="http://www.w3.org/1999/xlink">
<g id="graph0" class="graph" transform="scale(1 1) rotate(0) translate(4 256)">
<title>G</title>
<polygon fill="white" stroke="none" points="-4,4 -4,-256 452.131,-256 452.131,4 -4,4"/>
<!-- Nodo0 -->
<g id="node1" class="node"><title>Nodo0</title>
<ellipse fill="none" stroke="black" cx="207.642" cy="-234" rx="27" ry="18"/>
<text text-anchor="middle" x="207.642" y="-230.3" font-family="Times New Roman,serif" font-size="14.00">S</text>
</g>
<!-- Nodo1 -->
<g id="node2" class="node"><title>Nodo1</title>
<ellipse fill="none" stroke="black" cx="207.642" cy="-162" rx="59.5901" ry="18"/>
<text text-anchor="middle" x="207.642" y="-158.3" font-family="Times New Roman,serif" font-size="14.00">Instrucciones</text>
</g>
<!-- Nodo0&#45;&gt;Nodo1 -->
<g id="edge1" class="edge"><title>Nodo0&#45;&gt;Nodo1</title>
<path fill="none" stroke="blue" d="M207.642,-215.697C207.642,-207.983 207.642,-198.712 207.642,-190.112"/>
<polygon fill="blue" stroke="blue" points="211.142,-190.104 207.642,-180.104 204.142,-190.104 211.142,-190.104"/>
</g>
<!-- Nodo2 -->
<g id="node3" class="node"><title>Nodo2</title>
<ellipse fill="none" stroke="black" cx="91.6419" cy="-90" rx="91.784" ry="18"/>
<text text-anchor="middle" x="91.6419" y="-86.3" font-family="Times New Roman,serif" font-size="14.00">Instruccion: CREATE</text>
</g>
<!-- Nodo1&#45;&gt;Nodo2 -->
<g id="edge2" class="edge"><title>Nodo1&#45;&gt;Nodo2</title>
<path fill="none" stroke="blue" d="M182.185,-145.638C166.17,-135.974 145.259,-123.355 127.569,-112.68"/>
<polygon fill="blue" stroke="blue" points="129.025,-109.471 118.655,-107.301 125.408,-115.464 129.025,-109.471"/>
</g>
<!-- Nodo6 -->
<g id="node5" class="node"><title>Nodo6</title>
<ellipse fill="none" stroke="black" cx="324.642" cy="-90" rx="123.478" ry="18"/>
<text text-anchor="middle" x="324.642" y="-86.3" font-family="Times New Roman,serif" font-size="14.00">Instruccion: USE DATABASE</text>
</g>
<!-- Nodo1&#45;&gt;Nodo6 -->
<g id="edge4" class="edge"><title>Nodo1&#45;&gt;Nodo6</title>
<path fill="none" stroke="blue" d="M233.318,-145.638C249.357,-136.042 270.263,-123.534 288.025,-112.908"/>
<polygon fill="blue" stroke="blue" points="290.2,-115.685 296.984,-107.547 286.606,-109.678 290.2,-115.685"/>
</g>
<!-- Nodo3 -->
<g id="node4" class="node"><title>Nodo3</title>
<ellipse fill="none" stroke="black" cx="91.6419" cy="-18" rx="27" ry="18"/>
<text text-anchor="middle" x="91.6419" y="-14.3" font-family="Times New Roman,serif" font-size="14.00">db1</text>
</g>
<!-- Nodo2&#45;&gt;Nodo3 -->
<g id="edge3" class="edge"><title>Nodo2&#45;&gt;Nodo3</title>
<path fill="none" stroke="blue" d="M91.6419,-71.6966C91.6419,-63.9827 91.6419,-54.7125 91.6419,-46.1124"/>
<polygon fill="blue" stroke="blue" points="95.142,-46.1043 91.6419,-36.1043 88.142,-46.1044 95.142,-46.1043"/>
</g>
<!-- Nodo12 -->
<g id="node6" class="node"><title>Nodo12</title>
<ellipse fill="none" stroke="black" cx="324.642" cy="-18" rx="27" ry="18"/>
<text text-anchor="middle" x="324.642" y="-14.3" font-family="Times New Roman,serif" font-size="14.00">db1</text>
</g>
<!-- Nodo6&#45;&gt;Nodo12 -->
<g id="edge5" class="edge"><title>Nodo6&#45;&gt;Nodo12</title>
<path fill="none" stroke="blue" d="M324.642,-71.6966C324.642,-63.9827 324.642,-54.7125 324.642,-46.1124"/>
<polygon fill="blue" stroke="blue" points="328.142,-46.1043 324.642,-36.1043 321.142,-46.1044 328.142,-46.1043"/>
</g>
</g>
</svg>
